<?xml version="1.0" encoding="UTF-8" standalone="no"?>
<!DOCTYPE svg PUBLIC "-//W3C//DTD SVG 1.1//EN"
 "http://www.w3.org/Graphics/SVG/1.1/DTD/svg11.dtd">
<!-- Generated by graphviz version 2.40.1 (20161225.0304)
 -->
<!-- Title: muq::Approximation::WhiteNoiseKernel Pages: 1 -->
<svg width="175pt" height="234pt"
 viewBox="0.00 0.00 174.62 234.00" xmlns="http://www.w3.org/2000/svg" xmlns:xlink="http://www.w3.org/1999/xlink">
<g id="graph0" class="graph" transform="scale(1 1) rotate(0) translate(4 230)">
<title>muq::Approximation::WhiteNoiseKernel</title>
<polygon fill="#ffffff" stroke="transparent" points="-4,4 -4,-230 170.625,-230 170.625,4 -4,4"/>
<!-- Node3 -->
<g id="node1" class="node">
<title>Node3</title>
<polygon fill="#bfbfbf" stroke="#000000" points="30.8472,-.5 30.8472,-28.5 135.7778,-28.5 135.7778,-.5 30.8472,-.5"/>
<text text-anchor="start" x="38.8472" y="-16.5" font-family="FreeSans.ttf" font-size="10.00" fill="#000000">muq::Approximation</text>
<text text-anchor="middle" x="83.3125" y="-6.5" font-family="FreeSans.ttf" font-size="10.00" fill="#000000">::WhiteNoiseKernel</text>
</g>
<!-- Node4 -->
<g id="node2" class="node">
<title>Node4</title>
<g id="a_node2"><a xlink:href="classmuq_1_1Approximation_1_1KernelImpl.html" target="_top" xlink:title="muq::Approximation\l::KernelImpl\&lt; WhiteNoiseKernel \&gt;">
<polygon fill="#ffffff" stroke="#000000" points="0,-66.5 0,-94.5 166.625,-94.5 166.625,-66.5 0,-66.5"/>
<text text-anchor="start" x="8" y="-82.5" font-family="FreeSans.ttf" font-size="10.00" fill="#000000">muq::Approximation</text>
<text text-anchor="middle" x="83.3125" y="-72.5" font-family="FreeSans.ttf" font-size="10.00" fill="#000000">::KernelImpl&lt; WhiteNoiseKernel &gt;</text>
</a>
</g>
</g>
<!-- Node4&#45;&gt;Node3 -->
<g id="edge1" class="edge">
<title>Node4&#45;&gt;Node3</title>
<path fill="none" stroke="#191970" d="M83.3125,-56.0322C83.3125,-46.8606 83.3125,-36.7449 83.3125,-28.7931"/>
<polygon fill="#191970" stroke="#191970" points="79.8126,-56.1789 83.3125,-66.179 86.8126,-56.179 79.8126,-56.1789"/>
</g>
<!-- Node5 -->
<g id="node3" class="node">
<title>Node5</title>
<g id="a_node3"><a xlink:href="classmuq_1_1Approximation_1_1KernelBase.html" target="_top" xlink:title="Base class for covariance kernels. ">
<polygon fill="#ffffff" stroke="#000000" points="30.8472,-132.5 30.8472,-160.5 135.7778,-160.5 135.7778,-132.5 30.8472,-132.5"/>
<text text-anchor="start" x="38.8472" y="-148.5" font-family="FreeSans.ttf" font-size="10.00" fill="#000000">muq::Approximation</text>
<text text-anchor="middle" x="83.3125" y="-138.5" font-family="FreeSans.ttf" font-size="10.00" fill="#000000">::KernelBase</text>
</a>
</g>
</g>
<!-- Node5&#45;&gt;Node4 -->
<g id="edge2" class="edge">
<title>Node5&#45;&gt;Node4</title>
<path fill="none" stroke="#191970" d="M83.3125,-122.0322C83.3125,-112.8606 83.3125,-102.7449 83.3125,-94.7931"/>
<polygon fill="#191970" stroke="#191970" points="79.8126,-122.1789 83.3125,-132.179 86.8126,-122.179 79.8126,-122.1789"/>
</g>
<!-- Node6 -->
<g id="node4" class="node">
<title>Node6</title>
<polygon fill="#ffffff" stroke="#bfbfbf" points="23.335,-207.5 23.335,-225.5 143.29,-225.5 143.29,-207.5 23.335,-207.5"/>
<text text-anchor="middle" x="83.3125" y="-213.5" font-family="FreeSans.ttf" font-size="10.00" fill="#000000">std::vector&lt; unsigned &gt;</text>
</g>
<!-- Node6&#45;&gt;Node5 -->
<g id="edge3" class="edge">
<title>Node6&#45;&gt;Node5</title>
<path fill="none" stroke="#9a32cd" stroke-dasharray="5,2" d="M83.3125,-197.0243C83.3125,-185.5169 83.3125,-171.2016 83.3125,-160.7499"/>
<polygon fill="#9a32cd" stroke="#9a32cd" points="79.8126,-197.3487 83.3125,-207.3487 86.8126,-197.3488 79.8126,-197.3487"/>
<text text-anchor="middle" x="102.209" y="-181" font-family="FreeSans.ttf" font-size="10.00" fill="#000000"> dimInds</text>
</g>
</g>
</svg>
