<?xml version="1.0" encoding="UTF-8" standalone="no"?>
<!DOCTYPE svg PUBLIC "-//W3C//DTD SVG 1.1//EN"
 "http://www.w3.org/Graphics/SVG/1.1/DTD/svg11.dtd">
<!-- Generated by graphviz version 2.40.1 (20161225.0304)
 -->
<!-- Title: muq::Approximation::ConcatenateKernel&lt; KernelType1, KernelType2 &gt; Pages: 1 -->
<svg width="172pt" height="187pt"
 viewBox="0.00 0.00 171.59 187.00" xmlns="http://www.w3.org/2000/svg" xmlns:xlink="http://www.w3.org/1999/xlink">
<g id="graph0" class="graph" transform="scale(1 1) rotate(0) translate(4 183)">
<title>muq::Approximation::ConcatenateKernel&lt; KernelType1, KernelType2 &gt;</title>
<polygon fill="#ffffff" stroke="transparent" points="-4,4 -4,-183 167.5879,-183 167.5879,4 -4,4"/>
<!-- Node0 -->
<g id="node1" class="node">
<title>Node0</title>
<polygon fill="#bfbfbf" stroke="#000000" points="6.2451,-.5 6.2451,-38.5 157.3428,-38.5 157.3428,-.5 6.2451,-.5"/>
<text text-anchor="start" x="14.2451" y="-26.5" font-family="FreeSans.ttf" font-size="10.00" fill="#000000">muq::Approximation</text>
<text text-anchor="start" x="14.2451" y="-16.5" font-family="FreeSans.ttf" font-size="10.00" fill="#000000">::ConcatenateKernel</text>
<text text-anchor="middle" x="81.7939" y="-6.5" font-family="FreeSans.ttf" font-size="10.00" fill="#000000">&lt; KernelType1, KernelType2 &gt;</text>
</g>
<!-- Node1 -->
<g id="node2" class="node">
<title>Node1</title>
<g id="a_node2"><a xlink:href="classmuq_1_1Approximation_1_1KernelImpl.html" target="_top" xlink:title="muq::Approximation\l::KernelImpl\&lt; ConcatenateKernel\l\&lt; KernelType1, KernelType2 \&gt; \&gt;">
<polygon fill="#ffffff" stroke="#000000" points="0,-75.5 0,-113.5 163.5879,-113.5 163.5879,-75.5 0,-75.5"/>
<text text-anchor="start" x="8" y="-101.5" font-family="FreeSans.ttf" font-size="10.00" fill="#000000">muq::Approximation</text>
<text text-anchor="start" x="8" y="-91.5" font-family="FreeSans.ttf" font-size="10.00" fill="#000000">::KernelImpl&lt; ConcatenateKernel</text>
<text text-anchor="middle" x="81.7939" y="-81.5" font-family="FreeSans.ttf" font-size="10.00" fill="#000000">&lt; KernelType1, KernelType2 &gt; &gt;</text>
</a>
</g>
</g>
<!-- Node1&#45;&gt;Node0 -->
<g id="edge1" class="edge">
<title>Node1&#45;&gt;Node0</title>
<path fill="none" stroke="#191970" d="M81.7939,-64.8977C81.7939,-56.1033 81.7939,-46.7019 81.7939,-38.7489"/>
<polygon fill="#191970" stroke="#191970" points="78.294,-65.1856 81.7939,-75.1856 85.294,-65.1857 78.294,-65.1856"/>
</g>
<!-- Node2 -->
<g id="node3" class="node">
<title>Node2</title>
<g id="a_node3"><a xlink:href="classmuq_1_1Approximation_1_1KernelBase.html" target="_top" xlink:title="Base class for covariance kernels. ">
<polygon fill="#ffffff" stroke="#000000" points="29.3286,-150.5 29.3286,-178.5 134.2593,-178.5 134.2593,-150.5 29.3286,-150.5"/>
<text text-anchor="start" x="37.3286" y="-166.5" font-family="FreeSans.ttf" font-size="10.00" fill="#000000">muq::Approximation</text>
<text text-anchor="middle" x="81.7939" y="-156.5" font-family="FreeSans.ttf" font-size="10.00" fill="#000000">::KernelBase</text>
</a>
</g>
</g>
<!-- Node2&#45;&gt;Node1 -->
<g id="edge2" class="edge">
<title>Node2&#45;&gt;Node1</title>
<path fill="none" stroke="#191970" d="M81.7939,-140.0725C81.7939,-131.4275 81.7939,-121.8328 81.7939,-113.6857"/>
<polygon fill="#191970" stroke="#191970" points="78.294,-140.3344 81.7939,-150.3345 85.294,-140.3345 78.294,-140.3344"/>
</g>
</g>
</svg>
