<?xml version="1.0" encoding="UTF-8" standalone="no"?>
<!DOCTYPE svg PUBLIC "-//W3C//DTD SVG 1.1//EN"
 "http://www.w3.org/Graphics/SVG/1.1/DTD/svg11.dtd">
<!-- Generated by graphviz version 2.40.1 (20161225.0304)
 -->
<!-- Title: muq::Approximation::ConcatenateKernel&lt; KernelType1, KernelType2 &gt; Pages: 1 -->
<svg width="172pt" height="254pt"
 viewBox="0.00 0.00 171.59 254.00" xmlns="http://www.w3.org/2000/svg" xmlns:xlink="http://www.w3.org/1999/xlink">
<g id="graph0" class="graph" transform="scale(1 1) rotate(0) translate(4 250)">
<title>muq::Approximation::ConcatenateKernel&lt; KernelType1, KernelType2 &gt;</title>
<polygon fill="#ffffff" stroke="transparent" points="-4,4 -4,-250 167.5879,-250 167.5879,4 -4,4"/>
<!-- Node3 -->
<g id="node1" class="node">
<title>Node3</title>
<polygon fill="#bfbfbf" stroke="#000000" points="6.2451,-.5 6.2451,-38.5 157.3428,-38.5 157.3428,-.5 6.2451,-.5"/>
<text text-anchor="start" x="14.2451" y="-26.5" font-family="FreeSans.ttf" font-size="10.00" fill="#000000">muq::Approximation</text>
<text text-anchor="start" x="14.2451" y="-16.5" font-family="FreeSans.ttf" font-size="10.00" fill="#000000">::ConcatenateKernel</text>
<text text-anchor="middle" x="81.7939" y="-6.5" font-family="FreeSans.ttf" font-size="10.00" fill="#000000">&lt; KernelType1, KernelType2 &gt;</text>
</g>
<!-- Node4 -->
<g id="node2" class="node">
<title>Node4</title>
<g id="a_node2"><a xlink:href="classmuq_1_1Approximation_1_1KernelImpl.html" target="_top" xlink:title="muq::Approximation\l::KernelImpl\&lt; ConcatenateKernel\l\&lt; KernelType1, KernelType2 \&gt; \&gt;">
<polygon fill="#ffffff" stroke="#000000" points="0,-76.5 0,-114.5 163.5879,-114.5 163.5879,-76.5 0,-76.5"/>
<text text-anchor="start" x="8" y="-102.5" font-family="FreeSans.ttf" font-size="10.00" fill="#000000">muq::Approximation</text>
<text text-anchor="start" x="8" y="-92.5" font-family="FreeSans.ttf" font-size="10.00" fill="#000000">::KernelImpl&lt; ConcatenateKernel</text>
<text text-anchor="middle" x="81.7939" y="-82.5" font-family="FreeSans.ttf" font-size="10.00" fill="#000000">&lt; KernelType1, KernelType2 &gt; &gt;</text>
</a>
</g>
</g>
<!-- Node4&#45;&gt;Node3 -->
<g id="edge1" class="edge">
<title>Node4&#45;&gt;Node3</title>
<path fill="none" stroke="#191970" d="M81.7939,-66.3048C81.7939,-57.0426 81.7939,-47.0418 81.7939,-38.6719"/>
<polygon fill="#191970" stroke="#191970" points="78.294,-66.322 81.7939,-76.322 85.294,-66.322 78.294,-66.322"/>
</g>
<!-- Node5 -->
<g id="node3" class="node">
<title>Node5</title>
<g id="a_node3"><a xlink:href="classmuq_1_1Approximation_1_1KernelBase.html" target="_top" xlink:title="Base class for covariance kernels. ">
<polygon fill="#ffffff" stroke="#000000" points="29.3286,-152.5 29.3286,-180.5 134.2593,-180.5 134.2593,-152.5 29.3286,-152.5"/>
<text text-anchor="start" x="37.3286" y="-168.5" font-family="FreeSans.ttf" font-size="10.00" fill="#000000">muq::Approximation</text>
<text text-anchor="middle" x="81.7939" y="-158.5" font-family="FreeSans.ttf" font-size="10.00" fill="#000000">::KernelBase</text>
</a>
</g>
</g>
<!-- Node5&#45;&gt;Node4 -->
<g id="edge2" class="edge">
<title>Node5&#45;&gt;Node4</title>
<path fill="none" stroke="#191970" d="M81.7939,-142.1894C81.7939,-133.1757 81.7939,-123.0901 81.7939,-114.6055"/>
<polygon fill="#191970" stroke="#191970" points="78.294,-142.4727 81.7939,-152.4727 85.294,-142.4727 78.294,-142.4727"/>
</g>
<!-- Node6 -->
<g id="node4" class="node">
<title>Node6</title>
<polygon fill="#ffffff" stroke="#bfbfbf" points="21.8164,-227.5 21.8164,-245.5 141.7715,-245.5 141.7715,-227.5 21.8164,-227.5"/>
<text text-anchor="middle" x="81.7939" y="-233.5" font-family="FreeSans.ttf" font-size="10.00" fill="#000000">std::vector&lt; unsigned &gt;</text>
</g>
<!-- Node6&#45;&gt;Node5 -->
<g id="edge3" class="edge">
<title>Node6&#45;&gt;Node5</title>
<path fill="none" stroke="#9a32cd" stroke-dasharray="5,2" d="M81.7939,-217.0243C81.7939,-205.5169 81.7939,-191.2016 81.7939,-180.7499"/>
<polygon fill="#9a32cd" stroke="#9a32cd" points="78.294,-217.3487 81.7939,-227.3487 85.294,-217.3488 78.294,-217.3487"/>
<text text-anchor="middle" x="100.6904" y="-201" font-family="FreeSans.ttf" font-size="10.00" fill="#000000"> dimInds</text>
</g>
</g>
</svg>
