<?xml version="1.0" encoding="UTF-8" standalone="no"?>
<!DOCTYPE svg PUBLIC "-//W3C//DTD SVG 1.1//EN"
 "http://www.w3.org/Graphics/SVG/1.1/DTD/svg11.dtd">
<!-- Generated by graphviz version 2.40.1 (20161225.0304)
 -->
<!-- Title: muq::Approximation::SumKernel&lt; LeftType, RightType &gt; Pages: 1 -->
<svg width="139pt" height="187pt"
 viewBox="0.00 0.00 138.80 187.00" xmlns="http://www.w3.org/2000/svg" xmlns:xlink="http://www.w3.org/1999/xlink">
<g id="graph0" class="graph" transform="scale(1 1) rotate(0) translate(4 183)">
<title>muq::Approximation::SumKernel&lt; LeftType, RightType &gt;</title>
<polygon fill="#ffffff" stroke="transparent" points="-4,4 -4,-183 134.8047,-183 134.8047,4 -4,4"/>
<!-- Node0 -->
<g id="node1" class="node">
<title>Node0</title>
<polygon fill="#bfbfbf" stroke="#000000" points="5.0098,-.5 5.0098,-38.5 125.7949,-38.5 125.7949,-.5 5.0098,-.5"/>
<text text-anchor="start" x="13.0098" y="-26.5" font-family="FreeSans.ttf" font-size="10.00" fill="#000000">muq::Approximation</text>
<text text-anchor="start" x="13.0098" y="-16.5" font-family="FreeSans.ttf" font-size="10.00" fill="#000000">::SumKernel&lt; LeftType,</text>
<text text-anchor="middle" x="65.4023" y="-6.5" font-family="FreeSans.ttf" font-size="10.00" fill="#000000"> RightType &gt;</text>
</g>
<!-- Node1 -->
<g id="node2" class="node">
<title>Node1</title>
<g id="a_node2"><a xlink:href="classmuq_1_1Approximation_1_1KernelImpl.html" target="_top" xlink:title="muq::Approximation\l::KernelImpl\&lt; SumKernel\l\&lt; LeftType, RightType \&gt; \&gt;">
<polygon fill="#ffffff" stroke="#000000" points="0,-75.5 0,-113.5 130.8047,-113.5 130.8047,-75.5 0,-75.5"/>
<text text-anchor="start" x="8" y="-101.5" font-family="FreeSans.ttf" font-size="10.00" fill="#000000">muq::Approximation</text>
<text text-anchor="start" x="8" y="-91.5" font-family="FreeSans.ttf" font-size="10.00" fill="#000000">::KernelImpl&lt; SumKernel</text>
<text text-anchor="middle" x="65.4023" y="-81.5" font-family="FreeSans.ttf" font-size="10.00" fill="#000000">&lt; LeftType, RightType &gt; &gt;</text>
</a>
</g>
</g>
<!-- Node1&#45;&gt;Node0 -->
<g id="edge1" class="edge">
<title>Node1&#45;&gt;Node0</title>
<path fill="none" stroke="#191970" d="M65.4023,-64.8977C65.4023,-56.1033 65.4023,-46.7019 65.4023,-38.7489"/>
<polygon fill="#191970" stroke="#191970" points="61.9024,-65.1856 65.4023,-75.1856 68.9024,-65.1857 61.9024,-65.1856"/>
</g>
<!-- Node2 -->
<g id="node3" class="node">
<title>Node2</title>
<g id="a_node3"><a xlink:href="classmuq_1_1Approximation_1_1KernelBase.html" target="_top" xlink:title="Base class for covariance kernels. ">
<polygon fill="#ffffff" stroke="#000000" points="12.937,-150.5 12.937,-178.5 117.8677,-178.5 117.8677,-150.5 12.937,-150.5"/>
<text text-anchor="start" x="20.937" y="-166.5" font-family="FreeSans.ttf" font-size="10.00" fill="#000000">muq::Approximation</text>
<text text-anchor="middle" x="65.4023" y="-156.5" font-family="FreeSans.ttf" font-size="10.00" fill="#000000">::KernelBase</text>
</a>
</g>
</g>
<!-- Node2&#45;&gt;Node1 -->
<g id="edge2" class="edge">
<title>Node2&#45;&gt;Node1</title>
<path fill="none" stroke="#191970" d="M65.4023,-140.0725C65.4023,-131.4275 65.4023,-121.8328 65.4023,-113.6857"/>
<polygon fill="#191970" stroke="#191970" points="61.9024,-140.3344 65.4023,-150.3345 68.9024,-140.3345 61.9024,-140.3344"/>
</g>
</g>
</svg>
