<?xml version="1.0" encoding="UTF-8" standalone="no"?>
<!DOCTYPE svg PUBLIC "-//W3C//DTD SVG 1.1//EN"
 "http://www.w3.org/Graphics/SVG/1.1/DTD/svg11.dtd">
<!-- Generated by graphviz version 2.40.1 (20161225.0304)
 -->
<!-- Title: muq::Utilities::BlockDataset Pages: 1 -->
<svg width="146pt" height="158pt"
 viewBox="0.00 0.00 145.71 158.00" xmlns="http://www.w3.org/2000/svg" xmlns:xlink="http://www.w3.org/1999/xlink">
<g id="graph0" class="graph" transform="scale(1 1) rotate(0) translate(4 154)">
<title>muq::Utilities::BlockDataset</title>
<polygon fill="#ffffff" stroke="transparent" points="-4,4 -4,-154 141.709,-154 141.709,4 -4,4"/>
<!-- Node1 -->
<g id="node1" class="node">
<title>Node1</title>
<polygon fill="#bfbfbf" stroke="#000000" points="0,-.5 0,-18.5 137.709,-18.5 137.709,-.5 0,-.5"/>
<text text-anchor="middle" x="68.8545" y="-6.5" font-family="FreeSans.ttf" font-size="10.00" fill="#000000">muq::Utilities::BlockDataset</text>
</g>
<!-- Node2 -->
<g id="node2" class="node">
<title>Node2</title>
<g id="a_node2"><a xlink:title="STL class. ">
<polygon fill="#ffffff" stroke="#bfbfbf" points="39.1797,-65.5 39.1797,-83.5 98.5293,-83.5 98.5293,-65.5 39.1797,-65.5"/>
<text text-anchor="middle" x="68.8545" y="-71.5" font-family="FreeSans.ttf" font-size="10.00" fill="#000000">std::string</text>
</a>
</g>
</g>
<!-- Node2&#45;&gt;Node1 -->
<g id="edge1" class="edge">
<title>Node2&#45;&gt;Node1</title>
<path fill="none" stroke="#9a32cd" stroke-dasharray="5,2" d="M68.8545,-55.1265C68.8545,-43.1522 68.8545,-28.3205 68.8545,-18.8821"/>
<polygon fill="#9a32cd" stroke="#9a32cd" points="65.3546,-55.462 68.8545,-65.462 72.3546,-55.4621 65.3546,-55.462"/>
<text text-anchor="middle" x="79.9751" y="-39" font-family="FreeSans.ttf" font-size="10.00" fill="#000000"> path</text>
</g>
<!-- Node3 -->
<g id="node3" class="node">
<title>Node3</title>
<g id="a_node3"><a xlink:title="STL class. ">
<polygon fill="#ffffff" stroke="#bfbfbf" points="21.8066,-121.5 21.8066,-149.5 115.9023,-149.5 115.9023,-121.5 21.8066,-121.5"/>
<text text-anchor="start" x="29.8066" y="-137.5" font-family="FreeSans.ttf" font-size="10.00" fill="#000000">std::basic_string&lt;</text>
<text text-anchor="middle" x="68.8545" y="-127.5" font-family="FreeSans.ttf" font-size="10.00" fill="#000000"> char &gt;</text>
</a>
</g>
</g>
<!-- Node3&#45;&gt;Node2 -->
<g id="edge2" class="edge">
<title>Node3&#45;&gt;Node2</title>
<path fill="none" stroke="#191970" d="M68.8545,-111.1001C68.8545,-101.5157 68.8545,-91.0935 68.8545,-83.831"/>
<polygon fill="#191970" stroke="#191970" points="65.3546,-111.352 68.8545,-121.3521 72.3546,-111.3521 65.3546,-111.352"/>
</g>
</g>
</svg>
