<?xml version="1.0" encoding="UTF-8" standalone="no"?>
<!DOCTYPE svg PUBLIC "-//W3C//DTD SVG 1.1//EN"
 "http://www.w3.org/Graphics/SVG/1.1/DTD/svg11.dtd">
<!-- Generated by graphviz version 2.40.1 (20161225.0304)
 -->
<!-- Title: muq::Approximation::SquaredExpKernel Pages: 1 -->
<svg width="179pt" height="234pt"
 viewBox="0.00 0.00 178.54 234.00" xmlns="http://www.w3.org/2000/svg" xmlns:xlink="http://www.w3.org/1999/xlink">
<g id="graph0" class="graph" transform="scale(1 1) rotate(0) translate(4 230)">
<title>muq::Approximation::SquaredExpKernel</title>
<polygon fill="#ffffff" stroke="transparent" points="-4,4 -4,-230 174.5361,-230 174.5361,4 -4,4"/>
<!-- Node3 -->
<g id="node1" class="node">
<title>Node3</title>
<polygon fill="#bfbfbf" stroke="#000000" points="32.5171,-.5 32.5171,-28.5 138.019,-28.5 138.019,-.5 32.5171,-.5"/>
<text text-anchor="start" x="40.5171" y="-16.5" font-family="FreeSans.ttf" font-size="10.00" fill="#000000">muq::Approximation</text>
<text text-anchor="middle" x="85.2681" y="-6.5" font-family="FreeSans.ttf" font-size="10.00" fill="#000000">::SquaredExpKernel</text>
</g>
<!-- Node4 -->
<g id="node2" class="node">
<title>Node4</title>
<g id="a_node2"><a xlink:href="classmuq_1_1Approximation_1_1KernelImpl.html" target="_top" xlink:title="muq::Approximation\l::KernelImpl\&lt; SquaredExpKernel \&gt;">
<polygon fill="#ffffff" stroke="#000000" points="0,-66.5 0,-94.5 170.5361,-94.5 170.5361,-66.5 0,-66.5"/>
<text text-anchor="start" x="8" y="-82.5" font-family="FreeSans.ttf" font-size="10.00" fill="#000000">muq::Approximation</text>
<text text-anchor="middle" x="85.2681" y="-72.5" font-family="FreeSans.ttf" font-size="10.00" fill="#000000">::KernelImpl&lt; SquaredExpKernel &gt;</text>
</a>
</g>
</g>
<!-- Node4&#45;&gt;Node3 -->
<g id="edge1" class="edge">
<title>Node4&#45;&gt;Node3</title>
<path fill="none" stroke="#191970" d="M85.2681,-56.0322C85.2681,-46.8606 85.2681,-36.7449 85.2681,-28.7931"/>
<polygon fill="#191970" stroke="#191970" points="81.7682,-56.1789 85.2681,-66.179 88.7682,-56.179 81.7682,-56.1789"/>
</g>
<!-- Node5 -->
<g id="node3" class="node">
<title>Node5</title>
<g id="a_node3"><a xlink:href="classmuq_1_1Approximation_1_1KernelBase.html" target="_top" xlink:title="Base class for covariance kernels. ">
<polygon fill="#ffffff" stroke="#000000" points="32.8027,-132.5 32.8027,-160.5 137.7334,-160.5 137.7334,-132.5 32.8027,-132.5"/>
<text text-anchor="start" x="40.8027" y="-148.5" font-family="FreeSans.ttf" font-size="10.00" fill="#000000">muq::Approximation</text>
<text text-anchor="middle" x="85.2681" y="-138.5" font-family="FreeSans.ttf" font-size="10.00" fill="#000000">::KernelBase</text>
</a>
</g>
</g>
<!-- Node5&#45;&gt;Node4 -->
<g id="edge2" class="edge">
<title>Node5&#45;&gt;Node4</title>
<path fill="none" stroke="#191970" d="M85.2681,-122.0322C85.2681,-112.8606 85.2681,-102.7449 85.2681,-94.7931"/>
<polygon fill="#191970" stroke="#191970" points="81.7682,-122.1789 85.2681,-132.179 88.7682,-122.179 81.7682,-122.1789"/>
</g>
<!-- Node6 -->
<g id="node4" class="node">
<title>Node6</title>
<polygon fill="#ffffff" stroke="#bfbfbf" points="25.2905,-207.5 25.2905,-225.5 145.2456,-225.5 145.2456,-207.5 25.2905,-207.5"/>
<text text-anchor="middle" x="85.2681" y="-213.5" font-family="FreeSans.ttf" font-size="10.00" fill="#000000">std::vector&lt; unsigned &gt;</text>
</g>
<!-- Node6&#45;&gt;Node5 -->
<g id="edge3" class="edge">
<title>Node6&#45;&gt;Node5</title>
<path fill="none" stroke="#9a32cd" stroke-dasharray="5,2" d="M85.2681,-197.0243C85.2681,-185.5169 85.2681,-171.2016 85.2681,-160.7499"/>
<polygon fill="#9a32cd" stroke="#9a32cd" points="81.7682,-197.3487 85.2681,-207.3487 88.7682,-197.3488 81.7682,-197.3487"/>
<text text-anchor="middle" x="104.1646" y="-181" font-family="FreeSans.ttf" font-size="10.00" fill="#000000"> dimInds</text>
</g>
</g>
</svg>
