<?xml version="1.0" encoding="UTF-8" standalone="no"?>
<!DOCTYPE svg PUBLIC "-//W3C//DTD SVG 1.1//EN"
 "http://www.w3.org/Graphics/SVG/1.1/DTD/svg11.dtd">
<!-- Generated by graphviz version 2.40.1 (20161225.0304)
 -->
<!-- Title: muq::Approximation::ProductKernel&lt; LeftType, RightType &gt; Pages: 1 -->
<svg width="149pt" height="187pt"
 viewBox="0.00 0.00 149.34 187.00" xmlns="http://www.w3.org/2000/svg" xmlns:xlink="http://www.w3.org/1999/xlink">
<g id="graph0" class="graph" transform="scale(1 1) rotate(0) translate(4 183)">
<title>muq::Approximation::ProductKernel&lt; LeftType, RightType &gt;</title>
<polygon fill="#ffffff" stroke="transparent" points="-4,4 -4,-183 145.3418,-183 145.3418,4 -4,4"/>
<!-- Node0 -->
<g id="node1" class="node">
<title>Node0</title>
<polygon fill="#bfbfbf" stroke="#000000" points="3.3276,-.5 3.3276,-38.5 138.0142,-38.5 138.0142,-.5 3.3276,-.5"/>
<text text-anchor="start" x="11.3276" y="-26.5" font-family="FreeSans.ttf" font-size="10.00" fill="#000000">muq::Approximation</text>
<text text-anchor="start" x="11.3276" y="-16.5" font-family="FreeSans.ttf" font-size="10.00" fill="#000000">::ProductKernel&lt; LeftType,</text>
<text text-anchor="middle" x="70.6709" y="-6.5" font-family="FreeSans.ttf" font-size="10.00" fill="#000000"> RightType &gt;</text>
</g>
<!-- Node1 -->
<g id="node2" class="node">
<title>Node1</title>
<g id="a_node2"><a xlink:href="classmuq_1_1Approximation_1_1KernelImpl.html" target="_top" xlink:title="muq::Approximation\l::KernelImpl\&lt; ProductKernel\l\&lt; LeftType, RightType \&gt; \&gt;">
<polygon fill="#ffffff" stroke="#000000" points="0,-75.5 0,-113.5 141.3418,-113.5 141.3418,-75.5 0,-75.5"/>
<text text-anchor="start" x="8" y="-101.5" font-family="FreeSans.ttf" font-size="10.00" fill="#000000">muq::Approximation</text>
<text text-anchor="start" x="8" y="-91.5" font-family="FreeSans.ttf" font-size="10.00" fill="#000000">::KernelImpl&lt; ProductKernel</text>
<text text-anchor="middle" x="70.6709" y="-81.5" font-family="FreeSans.ttf" font-size="10.00" fill="#000000">&lt; LeftType, RightType &gt; &gt;</text>
</a>
</g>
</g>
<!-- Node1&#45;&gt;Node0 -->
<g id="edge1" class="edge">
<title>Node1&#45;&gt;Node0</title>
<path fill="none" stroke="#191970" d="M70.6709,-64.8977C70.6709,-56.1033 70.6709,-46.7019 70.6709,-38.7489"/>
<polygon fill="#191970" stroke="#191970" points="67.171,-65.1856 70.6709,-75.1856 74.171,-65.1857 67.171,-65.1856"/>
</g>
<!-- Node2 -->
<g id="node3" class="node">
<title>Node2</title>
<g id="a_node3"><a xlink:href="classmuq_1_1Approximation_1_1KernelBase.html" target="_top" xlink:title="Base class for covariance kernels. ">
<polygon fill="#ffffff" stroke="#000000" points="18.2056,-150.5 18.2056,-178.5 123.1362,-178.5 123.1362,-150.5 18.2056,-150.5"/>
<text text-anchor="start" x="26.2056" y="-166.5" font-family="FreeSans.ttf" font-size="10.00" fill="#000000">muq::Approximation</text>
<text text-anchor="middle" x="70.6709" y="-156.5" font-family="FreeSans.ttf" font-size="10.00" fill="#000000">::KernelBase</text>
</a>
</g>
</g>
<!-- Node2&#45;&gt;Node1 -->
<g id="edge2" class="edge">
<title>Node2&#45;&gt;Node1</title>
<path fill="none" stroke="#191970" d="M70.6709,-140.0725C70.6709,-131.4275 70.6709,-121.8328 70.6709,-113.6857"/>
<polygon fill="#191970" stroke="#191970" points="67.171,-140.3344 70.6709,-150.3345 74.171,-140.3345 67.171,-140.3344"/>
</g>
</g>
</svg>
