<?xml version="1.0" encoding="UTF-8" standalone="no"?>
<!DOCTYPE svg PUBLIC "-//W3C//DTD SVG 1.1//EN"
 "http://www.w3.org/Graphics/SVG/1.1/DTD/svg11.dtd">
<!-- Generated by graphviz version 2.40.1 (20161225.0304)
 -->
<!-- Title: muq::Utilities::H5Object Pages: 1 -->
<svg width="1184pt" height="172pt"
 viewBox="0.00 0.00 1183.72 172.00" xmlns="http://www.w3.org/2000/svg" xmlns:xlink="http://www.w3.org/1999/xlink">
<g id="graph0" class="graph" transform="scale(1 1) rotate(0) translate(4 168)">
<title>muq::Utilities::H5Object</title>
<polygon fill="#ffffff" stroke="transparent" points="-4,4 -4,-168 1179.7188,-168 1179.7188,4 -4,4"/>
<!-- Node1 -->
<g id="node1" class="node">
<title>Node1</title>
<polygon fill="#bfbfbf" stroke="#000000" points="844.0127,-47 844.0127,-65 964.4902,-65 964.4902,-47 844.0127,-47"/>
<text text-anchor="middle" x="904.2515" y="-53" font-family="FreeSans.ttf" font-size="10.00" fill="#000000">muq::Utilities::H5Object</text>
</g>
<!-- Node2 -->
<g id="node2" class="node">
<title>Node2</title>
<polygon fill="#ffffff" stroke="#bfbfbf" points="1043.8447,-19 1043.8447,-47 1175.7188,-47 1175.7188,-19 1043.8447,-19"/>
<text text-anchor="start" x="1051.8447" y="-35" font-family="FreeSans.ttf" font-size="10.00" fill="#000000">std::map&lt; std::string,</text>
<text text-anchor="middle" x="1109.7817" y="-25" font-family="FreeSans.ttf" font-size="10.00" fill="#000000"> muq::Utilities::H5Object &gt;</text>
</g>
<!-- Node1&#45;&gt;Node2 -->
<g id="edge4" class="edge">
<title>Node1&#45;&gt;Node2</title>
<path fill="none" stroke="#9a32cd" stroke-dasharray="5,2" d="M938.371,-43.6673C951.9137,-39.383 967.7498,-35.1217 982.4902,-33 1002.286,-30.1506 1023.9936,-29.3158 1043.7873,-29.4273"/>
<polygon fill="#9a32cd" stroke="#9a32cd" points="936.9208,-40.4599 928.5179,-46.913 939.111,-47.1085 936.9208,-40.4599"/>
<text text-anchor="middle" x="1004.1675" y="-35" font-family="FreeSans.ttf" font-size="10.00" fill="#000000"> elements</text>
</g>
<!-- Node2&#45;&gt;Node1 -->
<g id="edge1" class="edge">
<title>Node2&#45;&gt;Node1</title>
<path fill="none" stroke="#9a32cd" stroke-dasharray="5,2" d="M1033.6212,-43.0887C1030.998,-43.4018 1028.3999,-43.7066 1025.8447,-44 1005.9298,-46.287 984.1488,-48.5208 964.5932,-50.4289"/>
<polygon fill="#9a32cd" stroke="#9a32cd" points="1034.3223,-46.5293 1043.8257,-41.8458 1033.4758,-39.5807 1034.3223,-46.5293"/>
<text text-anchor="middle" x="1004.1675" y="-51" font-family="FreeSans.ttf" font-size="10.00" fill="#000000"> children</text>
</g>
<!-- Node3 -->
<g id="node3" class="node">
<title>Node3</title>
<g id="a_node3"><a xlink:title="STL class. ">
<polygon fill="#ffffff" stroke="#bfbfbf" points="131.0957,-83 131.0957,-101 190.4453,-101 190.4453,-83 131.0957,-83"/>
<text text-anchor="middle" x="160.7705" y="-89" font-family="FreeSans.ttf" font-size="10.00" fill="#000000">std::string</text>
</a>
</g>
</g>
<!-- Node3&#45;&gt;Node1 -->
<g id="edge5" class="edge">
<title>Node3&#45;&gt;Node1</title>
<path fill="none" stroke="#9a32cd" stroke-dasharray="5,2" d="M187.1908,-78.55C216.3479,-64.9739 265.0457,-46 309.4771,-46 309.4771,-46 309.4771,-46 719.9883,-46 761.3163,-46 807.7818,-48.5392 843.7131,-51.0586"/>
<polygon fill="#9a32cd" stroke="#9a32cd" points="185.5924,-75.4347 178.0862,-82.9119 188.6169,-81.7476 185.5924,-75.4347"/>
<text text-anchor="middle" x="510.564" y="-48" font-family="FreeSans.ttf" font-size="10.00" fill="#000000"> path</text>
</g>
<!-- Node3&#45;&gt;Node2 -->
<g id="edge2" class="edge">
<title>Node3&#45;&gt;Node2</title>
<path fill="none" stroke="#9a32cd" stroke-dasharray="5,2" d="M175.4266,-75.0756C200.1623,-48.505 253.0459,0 309.4771,0 309.4771,0 309.4771,0 904.2515,0 955.0273,0 1011.9769,-9.94 1053.0294,-18.9093"/>
<polygon fill="#9a32cd" stroke="#9a32cd" points="172.5183,-73.074 168.4158,-82.8423 177.7145,-77.7645 172.5183,-73.074"/>
<text text-anchor="middle" x="614.2349" y="-2" font-family="FreeSans.ttf" font-size="10.00" fill="#000000"> keys</text>
</g>
<!-- Node5 -->
<g id="node5" class="node">
<title>Node5</title>
<g id="a_node5"><a xlink:href="classmuq_1_1Utilities_1_1AttributeList.html" target="_top" xlink:title="muq::Utilities::AttributeList">
<polygon fill="#ffffff" stroke="#000000" points="654.1904,-99 654.1904,-117 785.7861,-117 785.7861,-99 654.1904,-99"/>
<text text-anchor="middle" x="719.9883" y="-105" font-family="FreeSans.ttf" font-size="10.00" fill="#000000">muq::Utilities::AttributeList</text>
</a>
</g>
</g>
<!-- Node3&#45;&gt;Node5 -->
<g id="edge7" class="edge">
<title>Node3&#45;&gt;Node5</title>
<path fill="none" stroke="#9a32cd" stroke-dasharray="5,2" d="M174.6431,-108.7987C183.4051,-118.3798 195.4913,-129.865 208.4453,-137 225.7297,-146.5202 231.8815,-145.5363 251.46,-148 409.6102,-167.9014 599.0644,-134.1772 680.0752,-117.0507"/>
<polygon fill="#9a32cd" stroke="#9a32cd" points="177.0727,-106.2596 167.8606,-101.0262 171.7984,-110.8621 177.0727,-106.2596"/>
<text text-anchor="middle" x="407.1714" y="-156" font-family="FreeSans.ttf" font-size="10.00" fill="#000000"> path</text>
</g>
<!-- Node6 -->
<g id="node6" class="node">
<title>Node6</title>
<polygon fill="#ffffff" stroke="#bfbfbf" points="446.8486,-94 446.8486,-122 574.2793,-122 574.2793,-94 446.8486,-94"/>
<text text-anchor="start" x="454.8486" y="-110" font-family="FreeSans.ttf" font-size="10.00" fill="#000000">std::map&lt; std::string,</text>
<text text-anchor="middle" x="510.564" y="-100" font-family="FreeSans.ttf" font-size="10.00" fill="#000000"> muq::Utilities::Attribute &gt;</text>
</g>
<!-- Node3&#45;&gt;Node6 -->
<g id="edge9" class="edge">
<title>Node3&#45;&gt;Node6</title>
<path fill="none" stroke="#9a32cd" stroke-dasharray="5,2" d="M200.5663,-93.669C242.1945,-95.4297 309.4358,-98.3159 367.4941,-101 393.4537,-102.2001 422.0594,-103.5869 446.8253,-104.8079"/>
<polygon fill="#9a32cd" stroke="#9a32cd" points="200.6947,-90.1714 190.5559,-93.2464 200.3994,-97.1652 200.6947,-90.1714"/>
<text text-anchor="middle" x="309.4771" y="-103" font-family="FreeSans.ttf" font-size="10.00" fill="#000000"> keys</text>
</g>
<!-- Node7 -->
<g id="node7" class="node">
<title>Node7</title>
<g id="a_node7"><a xlink:href="classmuq_1_1Utilities_1_1Attribute.html" target="_top" xlink:title="muq::Utilities::Attribute">
<polygon fill="#ffffff" stroke="#000000" points="251.46,-121 251.46,-139 367.4941,-139 367.4941,-121 251.46,-121"/>
<text text-anchor="middle" x="309.4771" y="-127" font-family="FreeSans.ttf" font-size="10.00" fill="#000000">muq::Utilities::Attribute</text>
</a>
</g>
</g>
<!-- Node3&#45;&gt;Node7 -->
<g id="edge11" class="edge">
<title>Node3&#45;&gt;Node7</title>
<path fill="none" stroke="#9a32cd" stroke-dasharray="5,2" d="M200.3414,-103.7923C203.0795,-104.5552 205.8007,-105.2981 208.4453,-106 228.3099,-111.2722 250.5175,-116.6081 269.0422,-120.9055"/>
<polygon fill="#9a32cd" stroke="#9a32cd" points="201.0342,-100.3505 190.458,-100.979 199.1178,-107.0831 201.0342,-100.3505"/>
<text text-anchor="middle" x="220.9526" y="-125" font-family="FreeSans.ttf" font-size="10.00" fill="#000000"> path</text>
<text text-anchor="middle" x="220.9526" y="-115" font-family="FreeSans.ttf" font-size="10.00" fill="#000000">name</text>
</g>
<!-- Node4 -->
<g id="node4" class="node">
<title>Node4</title>
<g id="a_node4"><a xlink:title="STL class. ">
<polygon fill="#ffffff" stroke="#bfbfbf" points="0,-78 0,-106 94.0957,-106 94.0957,-78 0,-78"/>
<text text-anchor="start" x="8" y="-94" font-family="FreeSans.ttf" font-size="10.00" fill="#000000">std::basic_string&lt;</text>
<text text-anchor="middle" x="47.0479" y="-84" font-family="FreeSans.ttf" font-size="10.00" fill="#000000"> char &gt;</text>
</a>
</g>
</g>
<!-- Node4&#45;&gt;Node3 -->
<g id="edge3" class="edge">
<title>Node4&#45;&gt;Node3</title>
<path fill="none" stroke="#191970" d="M104.2966,-92C113.5577,-92 122.8051,-92 131.056,-92"/>
<polygon fill="#191970" stroke="#191970" points="104.2886,-88.5001 94.2885,-92 104.2885,-95.5001 104.2886,-88.5001"/>
</g>
<!-- Node5&#45;&gt;Node1 -->
<g id="edge6" class="edge">
<title>Node5&#45;&gt;Node1</title>
<path fill="none" stroke="#9a32cd" stroke-dasharray="5,2" d="M762.0371,-96.1336C795.5191,-86.6848 841.6785,-73.6584 872.2145,-65.041"/>
<polygon fill="#9a32cd" stroke="#9a32cd" points="760.758,-92.8578 752.0845,-98.9423 762.6592,-99.5947 760.758,-92.8578"/>
<text text-anchor="middle" x="814.8994" y="-86" font-family="FreeSans.ttf" font-size="10.00" fill="#000000"> attrs</text>
</g>
<!-- Node6&#45;&gt;Node5 -->
<g id="edge8" class="edge">
<title>Node6&#45;&gt;Node5</title>
<path fill="none" stroke="#9a32cd" stroke-dasharray="5,2" d="M584.7325,-108C607.2785,-108 631.8948,-108 653.8734,-108"/>
<polygon fill="#9a32cd" stroke="#9a32cd" points="584.5361,-104.5001 574.5361,-108 584.5361,-111.5001 584.5361,-104.5001"/>
<text text-anchor="middle" x="614.2349" y="-110" font-family="FreeSans.ttf" font-size="10.00" fill="#000000"> attributes</text>
</g>
<!-- Node7&#45;&gt;Node6 -->
<g id="edge10" class="edge">
<title>Node7&#45;&gt;Node6</title>
<path fill="none" stroke="#9a32cd" stroke-dasharray="5,2" d="M377.6867,-122.5375C399.956,-120.1011 424.5937,-117.4056 446.5437,-115.0042"/>
<polygon fill="#9a32cd" stroke="#9a32cd" points="377.1997,-119.0698 367.6397,-123.6367 377.9611,-126.0283 377.1997,-119.0698"/>
<text text-anchor="middle" x="407.1714" y="-124" font-family="FreeSans.ttf" font-size="10.00" fill="#000000"> elements</text>
</g>
</g>
</svg>
