<?xml version="1.0" encoding="UTF-8" standalone="no"?>
<!DOCTYPE svg PUBLIC "-//W3C//DTD SVG 1.1//EN"
 "http://www.w3.org/Graphics/SVG/1.1/DTD/svg11.dtd">
<!-- Generated by graphviz version 2.40.1 (20161225.0304)
 -->
<!-- Title: muq::Approximation::KernelImpl&lt; ChildType &gt; Pages: 1 -->
<svg width="139pt" height="102pt"
 viewBox="0.00 0.00 139.06 102.00" xmlns="http://www.w3.org/2000/svg" xmlns:xlink="http://www.w3.org/1999/xlink">
<g id="graph0" class="graph" transform="scale(1 1) rotate(0) translate(4 98)">
<title>muq::Approximation::KernelImpl&lt; ChildType &gt;</title>
<polygon fill="#ffffff" stroke="transparent" points="-4,4 -4,-98 135.0635,-98 135.0635,4 -4,4"/>
<!-- Node0 -->
<g id="node1" class="node">
<title>Node0</title>
<polygon fill="#bfbfbf" stroke="#000000" points="0,-.5 0,-28.5 131.0635,-28.5 131.0635,-.5 0,-.5"/>
<text text-anchor="start" x="8" y="-16.5" font-family="FreeSans.ttf" font-size="10.00" fill="#000000">muq::Approximation</text>
<text text-anchor="middle" x="65.5317" y="-6.5" font-family="FreeSans.ttf" font-size="10.00" fill="#000000">::KernelImpl&lt; ChildType &gt;</text>
</g>
<!-- Node1 -->
<g id="node2" class="node">
<title>Node1</title>
<g id="a_node2"><a xlink:href="classmuq_1_1Approximation_1_1KernelBase.html" target="_top" xlink:title="Base class for covariance kernels. ">
<polygon fill="#ffffff" stroke="#000000" points="13.0664,-65.5 13.0664,-93.5 117.9971,-93.5 117.9971,-65.5 13.0664,-65.5"/>
<text text-anchor="start" x="21.0664" y="-81.5" font-family="FreeSans.ttf" font-size="10.00" fill="#000000">muq::Approximation</text>
<text text-anchor="middle" x="65.5317" y="-71.5" font-family="FreeSans.ttf" font-size="10.00" fill="#000000">::KernelBase</text>
</a>
</g>
</g>
<!-- Node1&#45;&gt;Node0 -->
<g id="edge1" class="edge">
<title>Node1&#45;&gt;Node0</title>
<path fill="none" stroke="#191970" d="M65.5317,-55.1081C65.5317,-46.1539 65.5317,-36.3227 65.5317,-28.5765"/>
<polygon fill="#191970" stroke="#191970" points="62.0318,-55.3959 65.5317,-65.396 69.0318,-55.396 62.0318,-55.3959"/>
</g>
</g>
</svg>
