<?xml version="1.0" encoding="UTF-8" standalone="no"?>
<!DOCTYPE svg PUBLIC "-//W3C//DTD SVG 1.1//EN"
 "http://www.w3.org/Graphics/SVG/1.1/DTD/svg11.dtd">
<!-- Generated by graphviz version 2.40.1 (20161225.0304)
 -->
<!-- Title: muq::Utilities::HDF5File Pages: 1 -->
<svg width="225pt" height="168pt"
 viewBox="0.00 0.00 225.12 168.00" xmlns="http://www.w3.org/2000/svg" xmlns:xlink="http://www.w3.org/1999/xlink">
<g id="graph0" class="graph" transform="scale(1 1) rotate(0) translate(4 164)">
<title>muq::Utilities::HDF5File</title>
<polygon fill="#ffffff" stroke="transparent" points="-4,4 -4,-164 221.1216,-164 221.1216,4 -4,4"/>
<!-- Node2 -->
<g id="node1" class="node">
<title>Node2</title>
<polygon fill="#bfbfbf" stroke="#000000" points="16.564,-.5 16.564,-18.5 137.5835,-18.5 137.5835,-.5 16.564,-.5"/>
<text text-anchor="middle" x="77.0737" y="-6.5" font-family="FreeSans.ttf" font-size="10.00" fill="#000000">muq::Utilities::HDF5File</text>
</g>
<!-- Node3 -->
<g id="node2" class="node">
<title>Node3</title>
<polygon fill="#ffffff" stroke="#bfbfbf" points="0,-65.5 0,-93.5 122.1475,-93.5 122.1475,-65.5 0,-65.5"/>
<text text-anchor="start" x="8" y="-81.5" font-family="FreeSans.ttf" font-size="10.00" fill="#000000">std::enable_shared</text>
<text text-anchor="middle" x="61.0737" y="-71.5" font-family="FreeSans.ttf" font-size="10.00" fill="#000000">_from_this&lt; HDF5File &gt;</text>
</g>
<!-- Node3&#45;&gt;Node2 -->
<g id="edge1" class="edge">
<title>Node3&#45;&gt;Node2</title>
<path fill="none" stroke="#191970" d="M66.5854,-55.3864C69.4717,-42.7588 72.838,-28.0315 74.9625,-18.7368"/>
<polygon fill="#191970" stroke="#191970" points="63.1279,-54.806 64.3116,-65.3345 69.9519,-56.3658 63.1279,-54.806"/>
</g>
<!-- Node4 -->
<g id="node3" class="node">
<title>Node4</title>
<g id="a_node3"><a xlink:title="STL class. ">
<polygon fill="#ffffff" stroke="#bfbfbf" points="140.3989,-70.5 140.3989,-88.5 199.7485,-88.5 199.7485,-70.5 140.3989,-70.5"/>
<text text-anchor="middle" x="170.0737" y="-76.5" font-family="FreeSans.ttf" font-size="10.00" fill="#000000">std::string</text>
</a>
</g>
</g>
<!-- Node4&#45;&gt;Node2 -->
<g id="edge2" class="edge">
<title>Node4&#45;&gt;Node2</title>
<path fill="none" stroke="#9a32cd" stroke-dasharray="5,2" d="M149.8301,-64.2629C131.3442,-50.3487 104.6229,-30.2359 89.2348,-18.6535"/>
<polygon fill="#9a32cd" stroke="#9a32cd" points="147.8211,-67.1313 157.9156,-70.3487 152.0307,-61.5386 147.8211,-67.1313"/>
<text text-anchor="middle" x="146.3618" y="-39" font-family="FreeSans.ttf" font-size="10.00" fill="#000000"> filename</text>
</g>
<!-- Node5 -->
<g id="node4" class="node">
<title>Node5</title>
<g id="a_node4"><a xlink:title="STL class. ">
<polygon fill="#ffffff" stroke="#bfbfbf" points="123.0259,-131.5 123.0259,-159.5 217.1216,-159.5 217.1216,-131.5 123.0259,-131.5"/>
<text text-anchor="start" x="131.0259" y="-147.5" font-family="FreeSans.ttf" font-size="10.00" fill="#000000">std::basic_string&lt;</text>
<text text-anchor="middle" x="170.0737" y="-137.5" font-family="FreeSans.ttf" font-size="10.00" fill="#000000"> char &gt;</text>
</a>
</g>
</g>
<!-- Node5&#45;&gt;Node4 -->
<g id="edge3" class="edge">
<title>Node5&#45;&gt;Node4</title>
<path fill="none" stroke="#191970" d="M170.0737,-121.0035C170.0737,-109.7414 170.0737,-97.0613 170.0737,-88.7139"/>
<polygon fill="#191970" stroke="#191970" points="166.5738,-121.1789 170.0737,-131.179 173.5738,-121.179 166.5738,-121.1789"/>
</g>
</g>
</svg>
