<?xml version="1.0" encoding="UTF-8" standalone="no"?>
<!DOCTYPE svg PUBLIC "-//W3C//DTD SVG 1.1//EN"
 "http://www.w3.org/Graphics/SVG/1.1/DTD/svg11.dtd">
<!-- Generated by graphviz version 2.40.1 (20161225.0304)
 -->
<!-- Title: muq::Modeling::ODE Pages: 1 -->
<svg width="143pt" height="137pt"
 viewBox="0.00 0.00 143.32 137.00" xmlns="http://www.w3.org/2000/svg" xmlns:xlink="http://www.w3.org/1999/xlink">
<g id="graph0" class="graph" transform="scale(1 1) rotate(0) translate(4 133)">
<title>muq::Modeling::ODE</title>
<polygon fill="#ffffff" stroke="transparent" points="-4,4 -4,-133 139.3164,-133 139.3164,4 -4,4"/>
<!-- Node0 -->
<g id="node1" class="node">
<title>Node0</title>
<polygon fill="#bfbfbf" stroke="#000000" points="13.2495,-.5 13.2495,-18.5 122.0669,-18.5 122.0669,-.5 13.2495,-.5"/>
<text text-anchor="middle" x="67.6582" y="-6.5" font-family="FreeSans.ttf" font-size="10.00" fill="#000000">muq::Modeling::ODE</text>
</g>
<!-- Node1 -->
<g id="node2" class="node">
<title>Node1</title>
<g id="a_node2"><a xlink:href="classmuq_1_1Modeling_1_1ODEBase.html" target="_top" xlink:title="A bass class to integrate ODE&#39;s. ">
<polygon fill="#ffffff" stroke="#000000" points="1.853,-55.5 1.853,-73.5 133.4634,-73.5 133.4634,-55.5 1.853,-55.5"/>
<text text-anchor="middle" x="67.6582" y="-61.5" font-family="FreeSans.ttf" font-size="10.00" fill="#000000">muq::Modeling::ODEBase</text>
</a>
</g>
</g>
<!-- Node1&#45;&gt;Node0 -->
<g id="edge1" class="edge">
<title>Node1&#45;&gt;Node0</title>
<path fill="none" stroke="#191970" d="M67.6582,-45.383C67.6582,-36.3738 67.6582,-26.0373 67.6582,-18.7795"/>
<polygon fill="#191970" stroke="#191970" points="64.1583,-45.4178 67.6582,-55.4179 71.1583,-45.4179 64.1583,-45.4178"/>
</g>
<!-- Node2 -->
<g id="node3" class="node">
<title>Node2</title>
<g id="a_node3"><a xlink:href="classmuq_1_1Modeling_1_1WorkPiece.html" target="_top" xlink:title="Base class for MUQ&#39;s modelling envronment. ">
<polygon fill="#ffffff" stroke="#000000" points="0,-110.5 0,-128.5 135.3164,-128.5 135.3164,-110.5 0,-110.5"/>
<text text-anchor="middle" x="67.6582" y="-116.5" font-family="FreeSans.ttf" font-size="10.00" fill="#000000">muq::Modeling::WorkPiece</text>
</a>
</g>
</g>
<!-- Node2&#45;&gt;Node1 -->
<g id="edge2" class="edge">
<title>Node2&#45;&gt;Node1</title>
<path fill="none" stroke="#191970" d="M67.6582,-100.383C67.6582,-91.3738 67.6582,-81.0373 67.6582,-73.7795"/>
<polygon fill="#191970" stroke="#191970" points="64.1583,-100.4178 67.6582,-110.4179 71.1583,-100.4179 64.1583,-100.4178"/>
</g>
</g>
</svg>
