<?xml version="1.0" encoding="UTF-8" standalone="no"?>
<!DOCTYPE svg PUBLIC "-//W3C//DTD SVG 1.1//EN"
 "http://www.w3.org/Graphics/SVG/1.1/DTD/svg11.dtd">
<!-- Generated by graphviz version 2.40.1 (20161225.0304)
 -->
<!-- Title: muq::Utilities::Attribute Pages: 1 -->
<svg width="124pt" height="168pt"
 viewBox="0.00 0.00 124.03 168.00" xmlns="http://www.w3.org/2000/svg" xmlns:xlink="http://www.w3.org/1999/xlink">
<g id="graph0" class="graph" transform="scale(1 1) rotate(0) translate(4 164)">
<title>muq::Utilities::Attribute</title>
<polygon fill="#ffffff" stroke="transparent" points="-4,4 -4,-164 120.0342,-164 120.0342,4 -4,4"/>
<!-- Node1 -->
<g id="node1" class="node">
<title>Node1</title>
<polygon fill="#bfbfbf" stroke="#000000" points="0,-.5 0,-18.5 116.0342,-18.5 116.0342,-.5 0,-.5"/>
<text text-anchor="middle" x="58.0171" y="-6.5" font-family="FreeSans.ttf" font-size="10.00" fill="#000000">muq::Utilities::Attribute</text>
</g>
<!-- Node2 -->
<g id="node2" class="node">
<title>Node2</title>
<g id="a_node2"><a xlink:title="STL class. ">
<polygon fill="#ffffff" stroke="#bfbfbf" points="28.3423,-75.5 28.3423,-93.5 87.6919,-93.5 87.6919,-75.5 28.3423,-75.5"/>
<text text-anchor="middle" x="58.0171" y="-81.5" font-family="FreeSans.ttf" font-size="10.00" fill="#000000">std::string</text>
</a>
</g>
</g>
<!-- Node2&#45;&gt;Node1 -->
<g id="edge1" class="edge">
<title>Node2&#45;&gt;Node1</title>
<path fill="none" stroke="#9a32cd" stroke-dasharray="5,2" d="M58.0171,-65.1079C58.0171,-50.2042 58.0171,-30.2791 58.0171,-18.7717"/>
<polygon fill="#9a32cd" stroke="#9a32cd" points="54.5172,-65.3035 58.0171,-75.3035 61.5172,-65.3036 54.5172,-65.3035"/>
<text text-anchor="middle" x="70.5244" y="-49" font-family="FreeSans.ttf" font-size="10.00" fill="#000000"> path</text>
<text text-anchor="middle" x="70.5244" y="-39" font-family="FreeSans.ttf" font-size="10.00" fill="#000000">name</text>
</g>
<!-- Node3 -->
<g id="node3" class="node">
<title>Node3</title>
<g id="a_node3"><a xlink:title="STL class. ">
<polygon fill="#ffffff" stroke="#bfbfbf" points="10.9692,-131.5 10.9692,-159.5 105.0649,-159.5 105.0649,-131.5 10.9692,-131.5"/>
<text text-anchor="start" x="18.9692" y="-147.5" font-family="FreeSans.ttf" font-size="10.00" fill="#000000">std::basic_string&lt;</text>
<text text-anchor="middle" x="58.0171" y="-137.5" font-family="FreeSans.ttf" font-size="10.00" fill="#000000"> char &gt;</text>
</a>
</g>
</g>
<!-- Node3&#45;&gt;Node2 -->
<g id="edge2" class="edge">
<title>Node3&#45;&gt;Node2</title>
<path fill="none" stroke="#191970" d="M58.0171,-121.1001C58.0171,-111.5157 58.0171,-101.0935 58.0171,-93.831"/>
<polygon fill="#191970" stroke="#191970" points="54.5172,-121.352 58.0171,-131.3521 61.5172,-121.3521 54.5172,-121.352"/>
</g>
</g>
</svg>
