<?xml version="1.0" encoding="UTF-8" standalone="no"?>
<!DOCTYPE svg PUBLIC "-//W3C//DTD SVG 1.1//EN"
 "http://www.w3.org/Graphics/SVG/1.1/DTD/svg11.dtd">
<!-- Generated by graphviz version 2.40.1 (20161225.0304)
 -->
<!-- Title: muq::Utilities::AttributeList Pages: 1 -->
<svg width="261pt" height="308pt"
 viewBox="0.00 0.00 260.81 308.00" xmlns="http://www.w3.org/2000/svg" xmlns:xlink="http://www.w3.org/1999/xlink">
<g id="graph0" class="graph" transform="scale(1 1) rotate(0) translate(4 304)">
<title>muq::Utilities::AttributeList</title>
<polygon fill="#ffffff" stroke="transparent" points="-4,4 -4,-304 256.8149,-304 256.8149,4 -4,4"/>
<!-- Node1 -->
<g id="node1" class="node">
<title>Node1</title>
<polygon fill="#bfbfbf" stroke="#000000" points="0,-.5 0,-18.5 131.5957,-18.5 131.5957,-.5 0,-.5"/>
<text text-anchor="middle" x="65.7979" y="-6.5" font-family="FreeSans.ttf" font-size="10.00" fill="#000000">muq::Utilities::AttributeList</text>
</g>
<!-- Node2 -->
<g id="node2" class="node">
<title>Node2</title>
<g id="a_node2"><a xlink:title="STL class. ">
<polygon fill="#ffffff" stroke="#bfbfbf" points="66.123,-215.5 66.123,-233.5 125.4727,-233.5 125.4727,-215.5 66.123,-215.5"/>
<text text-anchor="middle" x="95.7979" y="-221.5" font-family="FreeSans.ttf" font-size="10.00" fill="#000000">std::string</text>
</a>
</g>
</g>
<!-- Node2&#45;&gt;Node1 -->
<g id="edge1" class="edge">
<title>Node2&#45;&gt;Node1</title>
<path fill="none" stroke="#9a32cd" stroke-dasharray="5,2" d="M90.8618,-205.6852C84.487,-180.4681 73.6373,-134.2188 68.7979,-94 65.536,-66.8919 65.4303,-34.5683 65.6164,-18.9181"/>
<polygon fill="#9a32cd" stroke="#9a32cd" points="87.4826,-206.5983 93.3639,-215.4109 94.2619,-204.8542 87.4826,-206.5983"/>
<text text-anchor="middle" x="84.9185" y="-114" font-family="FreeSans.ttf" font-size="10.00" fill="#000000"> path</text>
</g>
<!-- Node4 -->
<g id="node4" class="node">
<title>Node4</title>
<polygon fill="#ffffff" stroke="#bfbfbf" points="78.0825,-65.5 78.0825,-93.5 205.5132,-93.5 205.5132,-65.5 78.0825,-65.5"/>
<text text-anchor="start" x="86.0825" y="-81.5" font-family="FreeSans.ttf" font-size="10.00" fill="#000000">std::map&lt; std::string,</text>
<text text-anchor="middle" x="141.7979" y="-71.5" font-family="FreeSans.ttf" font-size="10.00" fill="#000000"> muq::Utilities::Attribute &gt;</text>
</g>
<!-- Node2&#45;&gt;Node4 -->
<g id="edge4" class="edge">
<title>Node2&#45;&gt;Node4</title>
<path fill="none" stroke="#9a32cd" stroke-dasharray="5,2" d="M95.3464,-205.2613C95.4971,-187.7883 97.1412,-161.5335 104.458,-140 110.2556,-122.9374 121.5853,-105.6589 130.2514,-93.9604"/>
<polygon fill="#9a32cd" stroke="#9a32cd" points="91.8469,-205.3629 95.4183,-215.3376 98.8467,-205.3129 91.8469,-205.3629"/>
<text text-anchor="middle" x="116.4678" y="-146.5" font-family="FreeSans.ttf" font-size="10.00" fill="#000000"> keys</text>
</g>
<!-- Node5 -->
<g id="node5" class="node">
<title>Node5</title>
<g id="a_node5"><a xlink:href="classmuq_1_1Utilities_1_1Attribute.html" target="_top" xlink:title="muq::Utilities::Attribute">
<polygon fill="#ffffff" stroke="#000000" points="136.7808,-140.5 136.7808,-158.5 252.8149,-158.5 252.8149,-140.5 136.7808,-140.5"/>
<text text-anchor="middle" x="194.7979" y="-146.5" font-family="FreeSans.ttf" font-size="10.00" fill="#000000">muq::Utilities::Attribute</text>
</a>
</g>
</g>
<!-- Node2&#45;&gt;Node5 -->
<g id="edge6" class="edge">
<title>Node2&#45;&gt;Node5</title>
<path fill="none" stroke="#9a32cd" stroke-dasharray="5,2" d="M116.1336,-209.0941C136.2456,-193.8578 166.3411,-171.0581 182.8684,-158.5374"/>
<polygon fill="#9a32cd" stroke="#9a32cd" points="113.7946,-206.4751 107.9372,-215.3035 118.0217,-212.0547 113.7946,-206.4751"/>
<text text-anchor="middle" x="169.3052" y="-189" font-family="FreeSans.ttf" font-size="10.00" fill="#000000"> path</text>
<text text-anchor="middle" x="169.3052" y="-179" font-family="FreeSans.ttf" font-size="10.00" fill="#000000">name</text>
</g>
<!-- Node3 -->
<g id="node3" class="node">
<title>Node3</title>
<g id="a_node3"><a xlink:title="STL class. ">
<polygon fill="#ffffff" stroke="#bfbfbf" points="48.75,-271.5 48.75,-299.5 142.8457,-299.5 142.8457,-271.5 48.75,-271.5"/>
<text text-anchor="start" x="56.75" y="-287.5" font-family="FreeSans.ttf" font-size="10.00" fill="#000000">std::basic_string&lt;</text>
<text text-anchor="middle" x="95.7979" y="-277.5" font-family="FreeSans.ttf" font-size="10.00" fill="#000000"> char &gt;</text>
</a>
</g>
</g>
<!-- Node3&#45;&gt;Node2 -->
<g id="edge2" class="edge">
<title>Node3&#45;&gt;Node2</title>
<path fill="none" stroke="#191970" d="M95.7979,-261.1001C95.7979,-251.5157 95.7979,-241.0935 95.7979,-233.831"/>
<polygon fill="#191970" stroke="#191970" points="92.2979,-261.352 95.7979,-271.3521 99.2979,-261.3521 92.2979,-261.352"/>
</g>
<!-- Node4&#45;&gt;Node1 -->
<g id="edge3" class="edge">
<title>Node4&#45;&gt;Node1</title>
<path fill="none" stroke="#9a32cd" stroke-dasharray="5,2" d="M118.8598,-58.3729C104.5035,-45.1499 86.7251,-28.7751 75.8264,-18.7368"/>
<polygon fill="#9a32cd" stroke="#9a32cd" points="116.6915,-61.1341 126.4181,-65.3345 121.4338,-55.9852 116.6915,-61.1341"/>
<text text-anchor="middle" x="128.7534" y="-39" font-family="FreeSans.ttf" font-size="10.00" fill="#000000"> attributes</text>
</g>
<!-- Node5&#45;&gt;Node4 -->
<g id="edge5" class="edge">
<title>Node5&#45;&gt;Node4</title>
<path fill="none" stroke="#9a32cd" stroke-dasharray="5,2" d="M181.6595,-132.1475C172.7055,-120.3214 160.9951,-104.8548 152.5871,-93.7499"/>
<polygon fill="#9a32cd" stroke="#9a32cd" points="179.0422,-134.4889 187.869,-140.3487 184.623,-130.2634 179.0422,-134.4889"/>
<text text-anchor="middle" x="194.4751" y="-114" font-family="FreeSans.ttf" font-size="10.00" fill="#000000"> elements</text>
</g>
</g>
</svg>
