<?xml version="1.0" encoding="UTF-8" standalone="no"?>
<!DOCTYPE svg PUBLIC "-//W3C//DTD SVG 1.1//EN"
 "http://www.w3.org/Graphics/SVG/1.1/DTD/svg11.dtd">
<!-- Generated by graphviz version 2.40.1 (20161225.0304)
 -->
<!-- Title: muq::Approximation::LinearTransformKernel&lt; KernelType &gt; Pages: 1 -->
<svg width="159pt" height="187pt"
 viewBox="0.00 0.00 158.97 187.00" xmlns="http://www.w3.org/2000/svg" xmlns:xlink="http://www.w3.org/1999/xlink">
<g id="graph0" class="graph" transform="scale(1 1) rotate(0) translate(4 183)">
<title>muq::Approximation::LinearTransformKernel&lt; KernelType &gt;</title>
<polygon fill="#ffffff" stroke="transparent" points="-4,4 -4,-183 154.9658,-183 154.9658,4 -4,4"/>
<!-- Node0 -->
<g id="node1" class="node">
<title>Node0</title>
<polygon fill="#bfbfbf" stroke="#000000" points="13.7549,-.5 13.7549,-38.5 137.2109,-38.5 137.2109,-.5 13.7549,-.5"/>
<text text-anchor="start" x="21.7549" y="-26.5" font-family="FreeSans.ttf" font-size="10.00" fill="#000000">muq::Approximation</text>
<text text-anchor="start" x="21.7549" y="-16.5" font-family="FreeSans.ttf" font-size="10.00" fill="#000000">::LinearTransformKernel</text>
<text text-anchor="middle" x="75.4829" y="-6.5" font-family="FreeSans.ttf" font-size="10.00" fill="#000000">&lt; KernelType &gt;</text>
</g>
<!-- Node1 -->
<g id="node2" class="node">
<title>Node1</title>
<g id="a_node2"><a xlink:href="classmuq_1_1Approximation_1_1KernelImpl.html" target="_top" xlink:title="muq::Approximation\l::KernelImpl\&lt; LinearTransform\lKernel\&lt; KernelType \&gt; \&gt;">
<polygon fill="#ffffff" stroke="#000000" points="0,-75.5 0,-113.5 150.9658,-113.5 150.9658,-75.5 0,-75.5"/>
<text text-anchor="start" x="8" y="-101.5" font-family="FreeSans.ttf" font-size="10.00" fill="#000000">muq::Approximation</text>
<text text-anchor="start" x="8" y="-91.5" font-family="FreeSans.ttf" font-size="10.00" fill="#000000">::KernelImpl&lt; LinearTransform</text>
<text text-anchor="middle" x="75.4829" y="-81.5" font-family="FreeSans.ttf" font-size="10.00" fill="#000000">Kernel&lt; KernelType &gt; &gt;</text>
</a>
</g>
</g>
<!-- Node1&#45;&gt;Node0 -->
<g id="edge1" class="edge">
<title>Node1&#45;&gt;Node0</title>
<path fill="none" stroke="#191970" d="M75.4829,-64.8977C75.4829,-56.1033 75.4829,-46.7019 75.4829,-38.7489"/>
<polygon fill="#191970" stroke="#191970" points="71.983,-65.1856 75.4829,-75.1856 78.983,-65.1857 71.983,-65.1856"/>
</g>
<!-- Node2 -->
<g id="node3" class="node">
<title>Node2</title>
<g id="a_node3"><a xlink:href="classmuq_1_1Approximation_1_1KernelBase.html" target="_top" xlink:title="Base class for covariance kernels. ">
<polygon fill="#ffffff" stroke="#000000" points="23.0176,-150.5 23.0176,-178.5 127.9482,-178.5 127.9482,-150.5 23.0176,-150.5"/>
<text text-anchor="start" x="31.0176" y="-166.5" font-family="FreeSans.ttf" font-size="10.00" fill="#000000">muq::Approximation</text>
<text text-anchor="middle" x="75.4829" y="-156.5" font-family="FreeSans.ttf" font-size="10.00" fill="#000000">::KernelBase</text>
</a>
</g>
</g>
<!-- Node2&#45;&gt;Node1 -->
<g id="edge2" class="edge">
<title>Node2&#45;&gt;Node1</title>
<path fill="none" stroke="#191970" d="M75.4829,-140.0725C75.4829,-131.4275 75.4829,-121.8328 75.4829,-113.6857"/>
<polygon fill="#191970" stroke="#191970" points="71.983,-140.3344 75.4829,-150.3345 78.983,-140.3345 71.983,-140.3344"/>
</g>
</g>
</svg>
