<?xml version="1.0" encoding="UTF-8" standalone="no"?>
<!DOCTYPE svg PUBLIC "-//W3C//DTD SVG 1.1//EN"
 "http://www.w3.org/Graphics/SVG/1.1/DTD/svg11.dtd">
<!-- Generated by graphviz version 2.40.1 (20161225.0304)
 -->
<!-- Title: muq::Approximation::CoregionalKernel Pages: 1 -->
<svg width="683pt" height="94pt"
 viewBox="0.00 0.00 683.49 94.00" xmlns="http://www.w3.org/2000/svg" xmlns:xlink="http://www.w3.org/1999/xlink">
<g id="graph0" class="graph" transform="scale(1 1) rotate(0) translate(4 90)">
<title>muq::Approximation::CoregionalKernel</title>
<polygon fill="#ffffff" stroke="transparent" points="-4,4 -4,-90 679.4854,-90 679.4854,4 -4,4"/>
<!-- Node3 -->
<g id="node1" class="node">
<title>Node3</title>
<polygon fill="#bfbfbf" stroke="#000000" points="570.5547,-17.5 570.5547,-45.5 675.4854,-45.5 675.4854,-17.5 570.5547,-17.5"/>
<text text-anchor="start" x="578.5547" y="-33.5" font-family="FreeSans.ttf" font-size="10.00" fill="#000000">muq::Approximation</text>
<text text-anchor="middle" x="623.02" y="-23.5" font-family="FreeSans.ttf" font-size="10.00" fill="#000000">::CoregionalKernel</text>
</g>
<!-- Node4 -->
<g id="node2" class="node">
<title>Node4</title>
<g id="a_node2"><a xlink:href="classmuq_1_1Approximation_1_1KernelImpl.html" target="_top" xlink:title="muq::Approximation\l::KernelImpl\&lt; CoregionalKernel \&gt;">
<polygon fill="#ffffff" stroke="#000000" points="335.6787,-57.5 335.6787,-85.5 499.54,-85.5 499.54,-57.5 335.6787,-57.5"/>
<text text-anchor="start" x="343.6787" y="-73.5" font-family="FreeSans.ttf" font-size="10.00" fill="#000000">muq::Approximation</text>
<text text-anchor="middle" x="417.6094" y="-63.5" font-family="FreeSans.ttf" font-size="10.00" fill="#000000">::KernelImpl&lt; CoregionalKernel &gt;</text>
</a>
</g>
</g>
<!-- Node4&#45;&gt;Node3 -->
<g id="edge1" class="edge">
<title>Node4&#45;&gt;Node3</title>
<path fill="none" stroke="#191970" d="M499.8364,-55.4878C523.6485,-50.8508 548.9913,-45.9157 570.4602,-41.7351"/>
<polygon fill="#191970" stroke="#191970" points="498.8873,-52.1068 489.7406,-57.4537 500.2253,-58.9777 498.8873,-52.1068"/>
</g>
<!-- Node5 -->
<g id="node3" class="node">
<title>Node5</title>
<g id="a_node3"><a xlink:href="classmuq_1_1Approximation_1_1KernelBase.html" target="_top" xlink:title="Base class for covariance kernels. ">
<polygon fill="#ffffff" stroke="#000000" points="193.748,-57.5 193.748,-85.5 298.6787,-85.5 298.6787,-57.5 193.748,-57.5"/>
<text text-anchor="start" x="201.748" y="-73.5" font-family="FreeSans.ttf" font-size="10.00" fill="#000000">muq::Approximation</text>
<text text-anchor="middle" x="246.2134" y="-63.5" font-family="FreeSans.ttf" font-size="10.00" fill="#000000">::KernelBase</text>
</a>
</g>
</g>
<!-- Node5&#45;&gt;Node4 -->
<g id="edge2" class="edge">
<title>Node5&#45;&gt;Node4</title>
<path fill="none" stroke="#191970" d="M309.3136,-71.5C317.8922,-71.5 326.7962,-71.5 335.6469,-71.5"/>
<polygon fill="#191970" stroke="#191970" points="309.0364,-68.0001 299.0364,-71.5 309.0363,-75.0001 309.0364,-68.0001"/>
</g>
<!-- Node6 -->
<g id="node4" class="node">
<title>Node6</title>
<polygon fill="#ffffff" stroke="#bfbfbf" points="0,-62.5 0,-80.5 119.9551,-80.5 119.9551,-62.5 0,-62.5"/>
<text text-anchor="middle" x="59.9775" y="-68.5" font-family="FreeSans.ttf" font-size="10.00" fill="#000000">std::vector&lt; unsigned &gt;</text>
</g>
<!-- Node6&#45;&gt;Node5 -->
<g id="edge3" class="edge">
<title>Node6&#45;&gt;Node5</title>
<path fill="none" stroke="#9a32cd" stroke-dasharray="5,2" d="M130.3569,-71.5C151.3871,-71.5 174.0656,-71.5 193.7345,-71.5"/>
<polygon fill="#9a32cd" stroke="#9a32cd" points="130.1858,-68.0001 120.1858,-71.5 130.1858,-75.0001 130.1858,-68.0001"/>
<text text-anchor="middle" x="156.8516" y="-73.5" font-family="FreeSans.ttf" font-size="10.00" fill="#000000"> dimInds</text>
</g>
<!-- Node7 -->
<g id="node5" class="node">
<title>Node7</title>
<polygon fill="#ffffff" stroke="#bfbfbf" points="352.2192,-.5 352.2192,-38.5 482.9995,-38.5 482.9995,-.5 352.2192,-.5"/>
<text text-anchor="start" x="360.2192" y="-26.5" font-family="FreeSans.ttf" font-size="10.00" fill="#000000">std::vector&lt; std::shared</text>
<text text-anchor="start" x="360.2192" y="-16.5" font-family="FreeSans.ttf" font-size="10.00" fill="#000000">_ptr&lt; muq::Approximation</text>
<text text-anchor="middle" x="417.6094" y="-6.5" font-family="FreeSans.ttf" font-size="10.00" fill="#000000">::KernelBase &gt; &gt;</text>
</g>
<!-- Node7&#45;&gt;Node3 -->
<g id="edge4" class="edge">
<title>Node7&#45;&gt;Node3</title>
<path fill="none" stroke="#9a32cd" stroke-dasharray="5,2" d="M493.2351,-23.918C518.8798,-25.4162 546.9502,-27.056 570.4051,-28.4263"/>
<polygon fill="#9a32cd" stroke="#9a32cd" points="493.3545,-20.4191 483.1673,-23.3299 492.9462,-27.4072 493.3545,-20.4191"/>
<text text-anchor="middle" x="535.0474" y="-29.5" font-family="FreeSans.ttf" font-size="10.00" fill="#000000"> kernels</text>
</g>
</g>
</svg>
