<?xml version="1.0" encoding="UTF-8" standalone="no"?>
<!DOCTYPE svg PUBLIC "-//W3C//DTD SVG 1.1//EN"
 "http://www.w3.org/Graphics/SVG/1.1/DTD/svg11.dtd">
<!-- Generated by graphviz version 2.40.1 (20161225.0304)
 -->
<!-- Title: muq::Approximation::SumKernel&lt; LeftType, RightType &gt; Pages: 1 -->
<svg width="139pt" height="254pt"
 viewBox="0.00 0.00 138.80 254.00" xmlns="http://www.w3.org/2000/svg" xmlns:xlink="http://www.w3.org/1999/xlink">
<g id="graph0" class="graph" transform="scale(1 1) rotate(0) translate(4 250)">
<title>muq::Approximation::SumKernel&lt; LeftType, RightType &gt;</title>
<polygon fill="#ffffff" stroke="transparent" points="-4,4 -4,-250 134.8047,-250 134.8047,4 -4,4"/>
<!-- Node3 -->
<g id="node1" class="node">
<title>Node3</title>
<polygon fill="#bfbfbf" stroke="#000000" points="5.0098,-.5 5.0098,-38.5 125.7949,-38.5 125.7949,-.5 5.0098,-.5"/>
<text text-anchor="start" x="13.0098" y="-26.5" font-family="FreeSans.ttf" font-size="10.00" fill="#000000">muq::Approximation</text>
<text text-anchor="start" x="13.0098" y="-16.5" font-family="FreeSans.ttf" font-size="10.00" fill="#000000">::SumKernel&lt; LeftType,</text>
<text text-anchor="middle" x="65.4023" y="-6.5" font-family="FreeSans.ttf" font-size="10.00" fill="#000000"> RightType &gt;</text>
</g>
<!-- Node4 -->
<g id="node2" class="node">
<title>Node4</title>
<g id="a_node2"><a xlink:href="classmuq_1_1Approximation_1_1KernelImpl.html" target="_top" xlink:title="muq::Approximation\l::KernelImpl\&lt; SumKernel\l\&lt; LeftType, RightType \&gt; \&gt;">
<polygon fill="#ffffff" stroke="#000000" points="0,-76.5 0,-114.5 130.8047,-114.5 130.8047,-76.5 0,-76.5"/>
<text text-anchor="start" x="8" y="-102.5" font-family="FreeSans.ttf" font-size="10.00" fill="#000000">muq::Approximation</text>
<text text-anchor="start" x="8" y="-92.5" font-family="FreeSans.ttf" font-size="10.00" fill="#000000">::KernelImpl&lt; SumKernel</text>
<text text-anchor="middle" x="65.4023" y="-82.5" font-family="FreeSans.ttf" font-size="10.00" fill="#000000">&lt; LeftType, RightType &gt; &gt;</text>
</a>
</g>
</g>
<!-- Node4&#45;&gt;Node3 -->
<g id="edge1" class="edge">
<title>Node4&#45;&gt;Node3</title>
<path fill="none" stroke="#191970" d="M65.4023,-66.3048C65.4023,-57.0426 65.4023,-47.0418 65.4023,-38.6719"/>
<polygon fill="#191970" stroke="#191970" points="61.9024,-66.322 65.4023,-76.322 68.9024,-66.322 61.9024,-66.322"/>
</g>
<!-- Node5 -->
<g id="node3" class="node">
<title>Node5</title>
<g id="a_node3"><a xlink:href="classmuq_1_1Approximation_1_1KernelBase.html" target="_top" xlink:title="Base class for covariance kernels. ">
<polygon fill="#ffffff" stroke="#000000" points="12.937,-152.5 12.937,-180.5 117.8677,-180.5 117.8677,-152.5 12.937,-152.5"/>
<text text-anchor="start" x="20.937" y="-168.5" font-family="FreeSans.ttf" font-size="10.00" fill="#000000">muq::Approximation</text>
<text text-anchor="middle" x="65.4023" y="-158.5" font-family="FreeSans.ttf" font-size="10.00" fill="#000000">::KernelBase</text>
</a>
</g>
</g>
<!-- Node5&#45;&gt;Node4 -->
<g id="edge2" class="edge">
<title>Node5&#45;&gt;Node4</title>
<path fill="none" stroke="#191970" d="M65.4023,-142.1894C65.4023,-133.1757 65.4023,-123.0901 65.4023,-114.6055"/>
<polygon fill="#191970" stroke="#191970" points="61.9024,-142.4727 65.4023,-152.4727 68.9024,-142.4727 61.9024,-142.4727"/>
</g>
<!-- Node6 -->
<g id="node4" class="node">
<title>Node6</title>
<polygon fill="#ffffff" stroke="#bfbfbf" points="5.4248,-227.5 5.4248,-245.5 125.3799,-245.5 125.3799,-227.5 5.4248,-227.5"/>
<text text-anchor="middle" x="65.4023" y="-233.5" font-family="FreeSans.ttf" font-size="10.00" fill="#000000">std::vector&lt; unsigned &gt;</text>
</g>
<!-- Node6&#45;&gt;Node5 -->
<g id="edge3" class="edge">
<title>Node6&#45;&gt;Node5</title>
<path fill="none" stroke="#9a32cd" stroke-dasharray="5,2" d="M65.4023,-217.0243C65.4023,-205.5169 65.4023,-191.2016 65.4023,-180.7499"/>
<polygon fill="#9a32cd" stroke="#9a32cd" points="61.9024,-217.3487 65.4023,-227.3487 68.9024,-217.3488 61.9024,-217.3487"/>
<text text-anchor="middle" x="84.2988" y="-201" font-family="FreeSans.ttf" font-size="10.00" fill="#000000"> dimInds</text>
</g>
</g>
</svg>
