<?xml version="1.0" encoding="UTF-8" standalone="no"?>
<!DOCTYPE svg PUBLIC "-//W3C//DTD SVG 1.1//EN"
 "http://www.w3.org/Graphics/SVG/1.1/DTD/svg11.dtd">
<!-- Generated by graphviz version 2.40.1 (20161225.0304)
 -->
<!-- Title: muq::Modeling::RootfindingIVP Pages: 1 -->
<svg width="162pt" height="137pt"
 viewBox="0.00 0.00 161.86 137.00" xmlns="http://www.w3.org/2000/svg" xmlns:xlink="http://www.w3.org/1999/xlink">
<g id="graph0" class="graph" transform="scale(1 1) rotate(0) translate(4 133)">
<title>muq::Modeling::RootfindingIVP</title>
<polygon fill="#ffffff" stroke="transparent" points="-4,4 -4,-133 157.8564,-133 157.8564,4 -4,4"/>
<!-- Node0 -->
<g id="node1" class="node">
<title>Node0</title>
<polygon fill="#bfbfbf" stroke="#000000" points="0,-.5 0,-18.5 153.8564,-18.5 153.8564,-.5 0,-.5"/>
<text text-anchor="middle" x="76.9282" y="-6.5" font-family="FreeSans.ttf" font-size="10.00" fill="#000000">muq::Modeling::RootfindingIVP</text>
</g>
<!-- Node1 -->
<g id="node2" class="node">
<title>Node1</title>
<g id="a_node2"><a xlink:href="classmuq_1_1Modeling_1_1ODEBase.html" target="_top" xlink:title="A bass class to integrate ODE&#39;s. ">
<polygon fill="#ffffff" stroke="#000000" points="11.123,-55.5 11.123,-73.5 142.7334,-73.5 142.7334,-55.5 11.123,-55.5"/>
<text text-anchor="middle" x="76.9282" y="-61.5" font-family="FreeSans.ttf" font-size="10.00" fill="#000000">muq::Modeling::ODEBase</text>
</a>
</g>
</g>
<!-- Node1&#45;&gt;Node0 -->
<g id="edge1" class="edge">
<title>Node1&#45;&gt;Node0</title>
<path fill="none" stroke="#191970" d="M76.9282,-45.383C76.9282,-36.3738 76.9282,-26.0373 76.9282,-18.7795"/>
<polygon fill="#191970" stroke="#191970" points="73.4283,-45.4178 76.9282,-55.4179 80.4283,-45.4179 73.4283,-45.4178"/>
</g>
<!-- Node2 -->
<g id="node3" class="node">
<title>Node2</title>
<g id="a_node3"><a xlink:href="classmuq_1_1Modeling_1_1WorkPiece.html" target="_top" xlink:title="Base class for MUQ&#39;s modelling envronment. ">
<polygon fill="#ffffff" stroke="#000000" points="9.27,-110.5 9.27,-128.5 144.5864,-128.5 144.5864,-110.5 9.27,-110.5"/>
<text text-anchor="middle" x="76.9282" y="-116.5" font-family="FreeSans.ttf" font-size="10.00" fill="#000000">muq::Modeling::WorkPiece</text>
</a>
</g>
</g>
<!-- Node2&#45;&gt;Node1 -->
<g id="edge2" class="edge">
<title>Node2&#45;&gt;Node1</title>
<path fill="none" stroke="#191970" d="M76.9282,-100.383C76.9282,-91.3738 76.9282,-81.0373 76.9282,-73.7795"/>
<polygon fill="#191970" stroke="#191970" points="73.4283,-100.4178 76.9282,-110.4179 80.4283,-100.4179 73.4283,-100.4178"/>
</g>
</g>
</svg>
