<?xml version="1.0" encoding="UTF-8" standalone="no"?>
<!DOCTYPE svg PUBLIC "-//W3C//DTD SVG 1.1//EN"
 "http://www.w3.org/Graphics/SVG/1.1/DTD/svg11.dtd">
<!-- Generated by graphviz version 2.40.1 (20161225.0304)
 -->
<!-- Title: muq::Approximation::LinearTransformKernel&lt; KernelType &gt; Pages: 1 -->
<svg width="159pt" height="254pt"
 viewBox="0.00 0.00 158.97 254.00" xmlns="http://www.w3.org/2000/svg" xmlns:xlink="http://www.w3.org/1999/xlink">
<g id="graph0" class="graph" transform="scale(1 1) rotate(0) translate(4 250)">
<title>muq::Approximation::LinearTransformKernel&lt; KernelType &gt;</title>
<polygon fill="#ffffff" stroke="transparent" points="-4,4 -4,-250 154.9658,-250 154.9658,4 -4,4"/>
<!-- Node3 -->
<g id="node1" class="node">
<title>Node3</title>
<polygon fill="#bfbfbf" stroke="#000000" points="13.7549,-.5 13.7549,-38.5 137.2109,-38.5 137.2109,-.5 13.7549,-.5"/>
<text text-anchor="start" x="21.7549" y="-26.5" font-family="FreeSans.ttf" font-size="10.00" fill="#000000">muq::Approximation</text>
<text text-anchor="start" x="21.7549" y="-16.5" font-family="FreeSans.ttf" font-size="10.00" fill="#000000">::LinearTransformKernel</text>
<text text-anchor="middle" x="75.4829" y="-6.5" font-family="FreeSans.ttf" font-size="10.00" fill="#000000">&lt; KernelType &gt;</text>
</g>
<!-- Node4 -->
<g id="node2" class="node">
<title>Node4</title>
<g id="a_node2"><a xlink:href="classmuq_1_1Approximation_1_1KernelImpl.html" target="_top" xlink:title="muq::Approximation\l::KernelImpl\&lt; LinearTransform\lKernel\&lt; KernelType \&gt; \&gt;">
<polygon fill="#ffffff" stroke="#000000" points="0,-76.5 0,-114.5 150.9658,-114.5 150.9658,-76.5 0,-76.5"/>
<text text-anchor="start" x="8" y="-102.5" font-family="FreeSans.ttf" font-size="10.00" fill="#000000">muq::Approximation</text>
<text text-anchor="start" x="8" y="-92.5" font-family="FreeSans.ttf" font-size="10.00" fill="#000000">::KernelImpl&lt; LinearTransform</text>
<text text-anchor="middle" x="75.4829" y="-82.5" font-family="FreeSans.ttf" font-size="10.00" fill="#000000">Kernel&lt; KernelType &gt; &gt;</text>
</a>
</g>
</g>
<!-- Node4&#45;&gt;Node3 -->
<g id="edge1" class="edge">
<title>Node4&#45;&gt;Node3</title>
<path fill="none" stroke="#191970" d="M75.4829,-66.3048C75.4829,-57.0426 75.4829,-47.0418 75.4829,-38.6719"/>
<polygon fill="#191970" stroke="#191970" points="71.983,-66.322 75.4829,-76.322 78.983,-66.322 71.983,-66.322"/>
</g>
<!-- Node5 -->
<g id="node3" class="node">
<title>Node5</title>
<g id="a_node3"><a xlink:href="classmuq_1_1Approximation_1_1KernelBase.html" target="_top" xlink:title="Base class for covariance kernels. ">
<polygon fill="#ffffff" stroke="#000000" points="23.0176,-152.5 23.0176,-180.5 127.9482,-180.5 127.9482,-152.5 23.0176,-152.5"/>
<text text-anchor="start" x="31.0176" y="-168.5" font-family="FreeSans.ttf" font-size="10.00" fill="#000000">muq::Approximation</text>
<text text-anchor="middle" x="75.4829" y="-158.5" font-family="FreeSans.ttf" font-size="10.00" fill="#000000">::KernelBase</text>
</a>
</g>
</g>
<!-- Node5&#45;&gt;Node4 -->
<g id="edge2" class="edge">
<title>Node5&#45;&gt;Node4</title>
<path fill="none" stroke="#191970" d="M75.4829,-142.1894C75.4829,-133.1757 75.4829,-123.0901 75.4829,-114.6055"/>
<polygon fill="#191970" stroke="#191970" points="71.983,-142.4727 75.4829,-152.4727 78.983,-142.4727 71.983,-142.4727"/>
</g>
<!-- Node6 -->
<g id="node4" class="node">
<title>Node6</title>
<polygon fill="#ffffff" stroke="#bfbfbf" points="15.5054,-227.5 15.5054,-245.5 135.4604,-245.5 135.4604,-227.5 15.5054,-227.5"/>
<text text-anchor="middle" x="75.4829" y="-233.5" font-family="FreeSans.ttf" font-size="10.00" fill="#000000">std::vector&lt; unsigned &gt;</text>
</g>
<!-- Node6&#45;&gt;Node5 -->
<g id="edge3" class="edge">
<title>Node6&#45;&gt;Node5</title>
<path fill="none" stroke="#9a32cd" stroke-dasharray="5,2" d="M75.4829,-217.0243C75.4829,-205.5169 75.4829,-191.2016 75.4829,-180.7499"/>
<polygon fill="#9a32cd" stroke="#9a32cd" points="71.983,-217.3487 75.4829,-227.3487 78.983,-217.3488 71.983,-217.3487"/>
<text text-anchor="middle" x="94.3794" y="-201" font-family="FreeSans.ttf" font-size="10.00" fill="#000000"> dimInds</text>
</g>
</g>
</svg>
