<?xml version="1.0" encoding="UTF-8" standalone="no"?>
<!DOCTYPE svg PUBLIC "-//W3C//DTD SVG 1.1//EN"
 "http://www.w3.org/Graphics/SVG/1.1/DTD/svg11.dtd">
<!-- Generated by graphviz version 2.40.1 (20161225.0304)
 -->
<!-- Title: muq::Modeling::ODEBase Pages: 1 -->
<svg width="824pt" height="214pt"
 viewBox="0.00 0.00 823.54 213.50" xmlns="http://www.w3.org/2000/svg" xmlns:xlink="http://www.w3.org/1999/xlink">
<g id="graph0" class="graph" transform="scale(1 1) rotate(0) translate(4 209.5)">
<title>muq::Modeling::ODEBase</title>
<polygon fill="#ffffff" stroke="transparent" points="-4,4 -4,-209.5 819.5361,-209.5 819.5361,4 -4,4"/>
<!-- Node4 -->
<g id="node1" class="node">
<title>Node4</title>
<polygon fill="#bfbfbf" stroke="#000000" points="683.9258,-120.5 683.9258,-138.5 815.5361,-138.5 815.5361,-120.5 683.9258,-120.5"/>
<text text-anchor="middle" x="749.731" y="-126.5" font-family="FreeSans.ttf" font-size="10.00" fill="#000000">muq::Modeling::ODEBase</text>
</g>
<!-- Node5 -->
<g id="node2" class="node">
<title>Node5</title>
<g id="a_node2"><a xlink:href="classmuq_1_1Modeling_1_1WorkPiece.html" target="_top" xlink:title="Base class for MUQ&#39;s modelling envronment. ">
<polygon fill="#ffffff" stroke="#000000" points="511.6094,-75.5 511.6094,-93.5 646.9258,-93.5 646.9258,-75.5 511.6094,-75.5"/>
<text text-anchor="middle" x="579.2676" y="-81.5" font-family="FreeSans.ttf" font-size="10.00" fill="#000000">muq::Modeling::WorkPiece</text>
</a>
</g>
</g>
<!-- Node5&#45;&gt;Node4 -->
<g id="edge1" class="edge">
<title>Node5&#45;&gt;Node4</title>
<path fill="none" stroke="#191970" d="M623.5518,-96.1904C652.2704,-103.7717 689.1246,-113.5007 715.5777,-120.484"/>
<polygon fill="#191970" stroke="#191970" points="624.3255,-92.7748 613.7634,-93.6064 622.5388,-99.543 624.3255,-92.7748"/>
</g>
<!-- Node6 -->
<g id="node3" class="node">
<title>Node6</title>
<polygon fill="#ffffff" stroke="#bfbfbf" points="269.7998,-94.5 269.7998,-122.5 378.8955,-122.5 378.8955,-94.5 269.7998,-94.5"/>
<text text-anchor="start" x="277.7998" y="-110.5" font-family="FreeSans.ttf" font-size="10.00" fill="#000000">std::map&lt; std::string,</text>
<text text-anchor="middle" x="324.3477" y="-100.5" font-family="FreeSans.ttf" font-size="10.00" fill="#000000"> std::string &gt;</text>
</g>
<!-- Node6&#45;&gt;Node5 -->
<g id="edge2" class="edge">
<title>Node6&#45;&gt;Node5</title>
<path fill="none" stroke="#9a32cd" stroke-dasharray="5,2" d="M389.3132,-102.3837C426.7079,-98.8631 473.6391,-94.4446 511.4963,-90.8805"/>
<polygon fill="#9a32cd" stroke="#9a32cd" points="388.6623,-98.9294 379.0344,-103.3514 389.3184,-105.8986 388.6623,-98.9294"/>
<text text-anchor="middle" x="445.2524" y="-102.5" font-family="FreeSans.ttf" font-size="10.00" fill="#000000"> types</text>
</g>
<!-- Node7 -->
<g id="node4" class="node">
<title>Node7</title>
<g id="a_node4"><a xlink:title="STL class. ">
<polygon fill="#ffffff" stroke="#bfbfbf" points="131.0957,-99.5 131.0957,-117.5 190.4453,-117.5 190.4453,-99.5 131.0957,-99.5"/>
<text text-anchor="middle" x="160.7705" y="-105.5" font-family="FreeSans.ttf" font-size="10.00" fill="#000000">std::string</text>
</a>
</g>
</g>
<!-- Node7&#45;&gt;Node4 -->
<g id="edge8" class="edge">
<title>Node7&#45;&gt;Node4</title>
<path fill="none" stroke="#9a32cd" stroke-dasharray="5,2" d="M183.6481,-122.723C191.2512,-126.6991 199.9508,-130.4825 208.4453,-132.5 380.7932,-173.4338 592.8057,-152.4596 692.627,-138.5532"/>
<polygon fill="#9a32cd" stroke="#9a32cd" points="185.1353,-119.5442 174.7018,-117.7019 181.7092,-125.6484 185.1353,-119.5442"/>
<text text-anchor="middle" x="445.2524" y="-197.5" font-family="FreeSans.ttf" font-size="10.00" fill="#000000"> linSolver</text>
<text text-anchor="middle" x="445.2524" y="-187.5" font-family="FreeSans.ttf" font-size="10.00" fill="#000000">N_VectorName</text>
<text text-anchor="middle" x="445.2524" y="-177.5" font-family="FreeSans.ttf" font-size="10.00" fill="#000000">stdvecDlsMatName</text>
<text text-anchor="middle" x="445.2524" y="-167.5" font-family="FreeSans.ttf" font-size="10.00" fill="#000000">DlsMatName</text>
<text text-anchor="middle" x="445.2524" y="-157.5" font-family="FreeSans.ttf" font-size="10.00" fill="#000000">stdvecN_VectorName</text>
</g>
<!-- Node7&#45;&gt;Node6 -->
<g id="edge3" class="edge">
<title>Node7&#45;&gt;Node6</title>
<path fill="none" stroke="#9a32cd" stroke-dasharray="5,2" d="M200.8269,-108.5C221.5648,-108.5 247.1923,-108.5 269.719,-108.5"/>
<polygon fill="#9a32cd" stroke="#9a32cd" points="200.7731,-105.0001 190.7731,-108.5 200.773,-112.0001 200.7731,-105.0001"/>
<text text-anchor="middle" x="230.1226" y="-120.5" font-family="FreeSans.ttf" font-size="10.00" fill="#000000"> keys</text>
<text text-anchor="middle" x="230.1226" y="-110.5" font-family="FreeSans.ttf" font-size="10.00" fill="#000000">elements</text>
</g>
<!-- Node10 -->
<g id="node7" class="node">
<title>Node10</title>
<polygon fill="#ffffff" stroke="#bfbfbf" points="272.5684,-47.5 272.5684,-75.5 376.127,-75.5 376.127,-47.5 272.5684,-47.5"/>
<text text-anchor="start" x="280.5684" y="-63.5" font-family="FreeSans.ttf" font-size="10.00" fill="#000000">std::map&lt; unsigned</text>
<text text-anchor="middle" x="324.3477" y="-53.5" font-family="FreeSans.ttf" font-size="10.00" fill="#000000"> int, std::string &gt;</text>
</g>
<!-- Node7&#45;&gt;Node10 -->
<g id="edge7" class="edge">
<title>Node7&#45;&gt;Node10</title>
<path fill="none" stroke="#9a32cd" stroke-dasharray="5,2" d="M200.3786,-96.8418C203.1078,-96.0468 205.8168,-95.2601 208.4453,-94.5 230.1513,-88.223 254.171,-81.3689 274.689,-75.5418"/>
<polygon fill="#9a32cd" stroke="#9a32cd" points="199.1312,-93.5598 190.5144,-99.7244 201.0948,-100.2788 199.1312,-93.5598"/>
<text text-anchor="middle" x="230.1226" y="-96.5" font-family="FreeSans.ttf" font-size="10.00" fill="#000000"> elements</text>
</g>
<!-- Node8 -->
<g id="node5" class="node">
<title>Node8</title>
<g id="a_node5"><a xlink:title="STL class. ">
<polygon fill="#ffffff" stroke="#bfbfbf" points="0,-94.5 0,-122.5 94.0957,-122.5 94.0957,-94.5 0,-94.5"/>
<text text-anchor="start" x="8" y="-110.5" font-family="FreeSans.ttf" font-size="10.00" fill="#000000">std::basic_string&lt;</text>
<text text-anchor="middle" x="47.0479" y="-100.5" font-family="FreeSans.ttf" font-size="10.00" fill="#000000"> char &gt;</text>
</a>
</g>
</g>
<!-- Node8&#45;&gt;Node7 -->
<g id="edge4" class="edge">
<title>Node8&#45;&gt;Node7</title>
<path fill="none" stroke="#191970" d="M104.2966,-108.5C113.5577,-108.5 122.8051,-108.5 131.056,-108.5"/>
<polygon fill="#191970" stroke="#191970" points="104.2886,-105.0001 94.2885,-108.5 104.2885,-112.0001 104.2886,-105.0001"/>
</g>
<!-- Node9 -->
<g id="node6" class="node">
<title>Node9</title>
<polygon fill="#ffffff" stroke="#bfbfbf" points="276.7432,-.5 276.7432,-28.5 371.9521,-28.5 371.9521,-.5 276.7432,-.5"/>
<text text-anchor="start" x="284.7432" y="-16.5" font-family="FreeSans.ttf" font-size="10.00" fill="#000000">std::vector&lt; boost</text>
<text text-anchor="middle" x="324.3477" y="-6.5" font-family="FreeSans.ttf" font-size="10.00" fill="#000000">::any &gt;</text>
</g>
<!-- Node9&#45;&gt;Node5 -->
<g id="edge5" class="edge">
<title>Node9&#45;&gt;Node5</title>
<path fill="none" stroke="#9a32cd" stroke-dasharray="5,2" d="M382.1392,-21.4869C415.2543,-26.3778 457.3172,-34.1064 493.6094,-45.5 518.5531,-53.3308 545.7774,-66.6075 562.6879,-75.4638"/>
<polygon fill="#9a32cd" stroke="#9a32cd" points="382.5607,-18.0117 372.1657,-20.0593 381.5688,-24.941 382.5607,-18.0117"/>
<text text-anchor="middle" x="445.2524" y="-47.5" font-family="FreeSans.ttf" font-size="10.00" fill="#000000"> outputs</text>
</g>
<!-- Node10&#45;&gt;Node5 -->
<g id="edge6" class="edge">
<title>Node10&#45;&gt;Node5</title>
<path fill="none" stroke="#9a32cd" stroke-dasharray="5,2" d="M386.5398,-59.4661C418.6309,-59.2089 458.3432,-60.1206 493.6094,-64.5 511.7951,-66.7583 531.7531,-71.294 547.826,-75.4758"/>
<polygon fill="#9a32cd" stroke="#9a32cd" points="386.361,-55.9679 376.4037,-59.5878 386.4451,-62.9674 386.361,-55.9679"/>
<text text-anchor="middle" x="445.2524" y="-76.5" font-family="FreeSans.ttf" font-size="10.00" fill="#000000"> outputTypes</text>
<text text-anchor="middle" x="445.2524" y="-66.5" font-family="FreeSans.ttf" font-size="10.00" fill="#000000">inputTypes</text>
</g>
</g>
</svg>
