<?xml version="1.0" encoding="UTF-8" standalone="no"?>
<!DOCTYPE svg PUBLIC "-//W3C//DTD SVG 1.1//EN"
 "http://www.w3.org/Graphics/SVG/1.1/DTD/svg11.dtd">
<!-- Generated by graphviz version 2.40.1 (20161225.0304)
 -->
<!-- Title: muq::Modeling::WorkPiece Pages: 1 -->
<svg width="521pt" height="148pt"
 viewBox="0.00 0.00 521.36 148.00" xmlns="http://www.w3.org/2000/svg" xmlns:xlink="http://www.w3.org/1999/xlink">
<g id="graph0" class="graph" transform="scale(1 1) rotate(0) translate(4 144)">
<title>muq::Modeling::WorkPiece</title>
<polygon fill="#ffffff" stroke="transparent" points="-4,4 -4,-144 517.3594,-144 517.3594,4 -4,4"/>
<!-- Node0 -->
<g id="node1" class="node">
<title>Node0</title>
<polygon fill="#bfbfbf" stroke="#000000" points="0,-65.5 0,-83.5 135.3164,-83.5 135.3164,-65.5 0,-65.5"/>
<text text-anchor="middle" x="67.6582" y="-71.5" font-family="FreeSans.ttf" font-size="10.00" fill="#000000">muq::Modeling::WorkPiece</text>
</g>
<!-- Node1 -->
<g id="node2" class="node">
<title>Node1</title>
<g id="a_node2"><a xlink:href="classmuq_1_1Modeling_1_1ConstantPiece.html" target="_top" xlink:title="A muq::Modeling::WorkPiece with no inputs and known, constant outputs. ">
<polygon fill="#ffffff" stroke="#000000" points="171.3164,-121.5 171.3164,-139.5 323.5029,-139.5 323.5029,-121.5 171.3164,-121.5"/>
<text text-anchor="middle" x="247.4097" y="-127.5" font-family="FreeSans.ttf" font-size="10.00" fill="#000000">muq::Modeling::ConstantPiece</text>
</a>
</g>
</g>
<!-- Node0&#45;&gt;Node1 -->
<g id="edge1" class="edge">
<title>Node0&#45;&gt;Node1</title>
<path fill="none" stroke="#191970" d="M99.4504,-87.2718C119.7942,-95.165 146.8644,-105.1545 171.3164,-112.5 182.2375,-115.7807 194.1842,-118.8465 205.3078,-121.4851"/>
<polygon fill="#191970" stroke="#191970" points="100.6325,-83.9759 90.0448,-83.586 98.0785,-90.4933 100.6325,-83.9759"/>
</g>
<!-- Node2 -->
<g id="node3" class="node">
<title>Node2</title>
<g id="a_node3"><a xlink:href="classmuq_1_1Modeling_1_1IdentityPiece.html" target="_top" xlink:title="A muq::Modeling::WorkPiece that returns its inputs (identity operator) ">
<polygon fill="#ffffff" stroke="#000000" points="175.208,-84.5 175.208,-102.5 319.6113,-102.5 319.6113,-84.5 175.208,-84.5"/>
<text text-anchor="middle" x="247.4097" y="-90.5" font-family="FreeSans.ttf" font-size="10.00" fill="#000000">muq::Modeling::IdentityPiece</text>
</a>
</g>
</g>
<!-- Node0&#45;&gt;Node2 -->
<g id="edge2" class="edge">
<title>Node0&#45;&gt;Node2</title>
<path fill="none" stroke="#191970" d="M145.4752,-82.7254C155.27,-83.7607 165.2594,-84.8166 174.9667,-85.8427"/>
<polygon fill="#191970" stroke="#191970" points="145.6709,-79.2266 135.3584,-81.656 144.9351,-86.1879 145.6709,-79.2266"/>
</g>
<!-- Node3 -->
<g id="node4" class="node">
<title>Node3</title>
<g id="a_node4"><a xlink:href="classmuq_1_1Modeling_1_1ODEBase.html" target="_top" xlink:title="A bass class to integrate ODE&#39;s. ">
<polygon fill="#ffffff" stroke="#000000" points="181.6045,-47.5 181.6045,-65.5 313.2148,-65.5 313.2148,-47.5 181.6045,-47.5"/>
<text text-anchor="middle" x="247.4097" y="-53.5" font-family="FreeSans.ttf" font-size="10.00" fill="#000000">muq::Modeling::ODEBase</text>
</a>
</g>
</g>
<!-- Node0&#45;&gt;Node3 -->
<g id="edge3" class="edge">
<title>Node0&#45;&gt;Node3</title>
<path fill="none" stroke="#191970" d="M145.3943,-66.7156C157.4481,-65.5086 169.7987,-64.2718 181.5573,-63.0943"/>
<polygon fill="#191970" stroke="#191970" points="144.9599,-63.2415 135.3584,-67.7206 145.6574,-70.2067 144.9599,-63.2415"/>
</g>
<!-- Node6 -->
<g id="node7" class="node">
<title>Node6</title>
<g id="a_node7"><a xlink:href="classmuq_1_1Modeling_1_1WorkGraphPiece.html" target="_top" xlink:title="A muq::Modeling::WorkPiece created from a muq::Modeling::WorkGraph. ">
<polygon fill="#ffffff" stroke="#000000" points="178.3623,-.5 178.3623,-28.5 316.457,-28.5 316.457,-.5 178.3623,-.5"/>
<text text-anchor="start" x="186.3623" y="-16.5" font-family="FreeSans.ttf" font-size="10.00" fill="#000000">muq::Modeling::WorkGraph</text>
<text text-anchor="middle" x="247.4097" y="-6.5" font-family="FreeSans.ttf" font-size="10.00" fill="#000000">Piece</text>
</a>
</g>
</g>
<!-- Node0&#45;&gt;Node6 -->
<g id="edge6" class="edge">
<title>Node0&#45;&gt;Node6</title>
<path fill="none" stroke="#191970" d="M102.7846,-62.0196C122.8169,-54.9728 148.4202,-46.0849 171.3164,-38.5 181.31,-35.1894 192.0763,-31.7292 202.2758,-28.5001"/>
<polygon fill="#191970" stroke="#191970" points="101.4145,-58.7915 93.1482,-65.4185 103.743,-65.3929 101.4145,-58.7915"/>
</g>
<!-- Node4 -->
<g id="node5" class="node">
<title>Node4</title>
<g id="a_node5"><a xlink:href="classmuq_1_1Modeling_1_1ODE.html" target="_top" xlink:title="muq::Modeling::ODE">
<polygon fill="#ffffff" stroke="#000000" points="382.0225,-65.5 382.0225,-83.5 490.8398,-83.5 490.8398,-65.5 382.0225,-65.5"/>
<text text-anchor="middle" x="436.4312" y="-71.5" font-family="FreeSans.ttf" font-size="10.00" fill="#000000">muq::Modeling::ODE</text>
</a>
</g>
</g>
<!-- Node3&#45;&gt;Node4 -->
<g id="edge4" class="edge">
<title>Node3&#45;&gt;Node4</title>
<path fill="none" stroke="#191970" d="M323.3564,-63.7322C342.9012,-65.5934 363.5487,-67.5596 381.7752,-69.2953"/>
<polygon fill="#191970" stroke="#191970" points="323.5416,-60.2341 313.2549,-62.7703 322.878,-67.2026 323.5416,-60.2341"/>
</g>
<!-- Node5 -->
<g id="node6" class="node">
<title>Node5</title>
<g id="a_node6"><a xlink:href="classmuq_1_1Modeling_1_1RootfindingIVP.html" target="_top" xlink:title="A rootfinding initial value problem — find the root of a function along an orbit of an ODE...">
<polygon fill="#ffffff" stroke="#000000" points="359.5029,-28.5 359.5029,-46.5 513.3594,-46.5 513.3594,-28.5 359.5029,-28.5"/>
<text text-anchor="middle" x="436.4312" y="-34.5" font-family="FreeSans.ttf" font-size="10.00" fill="#000000">muq::Modeling::RootfindingIVP</text>
</a>
</g>
</g>
<!-- Node3&#45;&gt;Node5 -->
<g id="edge5" class="edge">
<title>Node3&#45;&gt;Node5</title>
<path fill="none" stroke="#191970" d="M323.5357,-48.848C335.3743,-47.658 347.6132,-46.4278 359.4701,-45.2359"/>
<polygon fill="#191970" stroke="#191970" points="322.8546,-45.3987 313.2549,-49.8814 323.5548,-52.3636 322.8546,-45.3987"/>
</g>
</g>
</svg>
