<?xml version="1.0" encoding="UTF-8" standalone="no"?>
<!DOCTYPE svg PUBLIC "-//W3C//DTD SVG 1.1//EN"
 "http://www.w3.org/Graphics/SVG/1.1/DTD/svg11.dtd">
<!-- Generated by graphviz version 2.40.1 (20161225.0304)
 -->
<!-- Title: muq::Modeling::ODEBase Pages: 1 -->
<svg width="288pt" height="137pt"
 viewBox="0.00 0.00 288.34 137.00" xmlns="http://www.w3.org/2000/svg" xmlns:xlink="http://www.w3.org/1999/xlink">
<g id="graph0" class="graph" transform="scale(1 1) rotate(0) translate(4 133)">
<title>muq::Modeling::ODEBase</title>
<polygon fill="#ffffff" stroke="transparent" points="-4,4 -4,-133 284.3369,-133 284.3369,4 -4,4"/>
<!-- Node0 -->
<g id="node1" class="node">
<title>Node0</title>
<polygon fill="#bfbfbf" stroke="#000000" points="62.6035,-55.5 62.6035,-73.5 194.2139,-73.5 194.2139,-55.5 62.6035,-55.5"/>
<text text-anchor="middle" x="128.4087" y="-61.5" font-family="FreeSans.ttf" font-size="10.00" fill="#000000">muq::Modeling::ODEBase</text>
</g>
<!-- Node2 -->
<g id="node3" class="node">
<title>Node2</title>
<g id="a_node3"><a xlink:href="classmuq_1_1Modeling_1_1ODE.html" target="_top" xlink:title="muq::Modeling::ODE">
<polygon fill="#ffffff" stroke="#000000" points="0,-.5 0,-18.5 108.8174,-18.5 108.8174,-.5 0,-.5"/>
<text text-anchor="middle" x="54.4087" y="-6.5" font-family="FreeSans.ttf" font-size="10.00" fill="#000000">muq::Modeling::ODE</text>
</a>
</g>
</g>
<!-- Node0&#45;&gt;Node2 -->
<g id="edge2" class="edge">
<title>Node0&#45;&gt;Node2</title>
<path fill="none" stroke="#191970" d="M108.0816,-49.392C94.8022,-39.5222 77.8998,-26.9596 66.6464,-18.5956"/>
<polygon fill="#191970" stroke="#191970" points="106.0753,-52.2617 116.1891,-55.4179 110.251,-46.6435 106.0753,-52.2617"/>
</g>
<!-- Node3 -->
<g id="node4" class="node">
<title>Node3</title>
<g id="a_node4"><a xlink:href="classmuq_1_1Modeling_1_1RootfindingIVP.html" target="_top" xlink:title="A rootfinding initial value problem — find the root of a function along an orbit of an ODE...">
<polygon fill="#ffffff" stroke="#000000" points="126.4805,-.5 126.4805,-18.5 280.3369,-18.5 280.3369,-.5 126.4805,-.5"/>
<text text-anchor="middle" x="203.4087" y="-6.5" font-family="FreeSans.ttf" font-size="10.00" fill="#000000">muq::Modeling::RootfindingIVP</text>
</a>
</g>
</g>
<!-- Node0&#45;&gt;Node3 -->
<g id="edge3" class="edge">
<title>Node0&#45;&gt;Node3</title>
<path fill="none" stroke="#191970" d="M149.0105,-49.392C162.4693,-39.5222 179.6001,-26.9596 191.0056,-18.5956"/>
<polygon fill="#191970" stroke="#191970" points="146.7877,-46.6818 140.7934,-55.4179 150.9273,-52.3266 146.7877,-46.6818"/>
</g>
<!-- Node1 -->
<g id="node2" class="node">
<title>Node1</title>
<g id="a_node2"><a xlink:href="classmuq_1_1Modeling_1_1WorkPiece.html" target="_top" xlink:title="Base class for MUQ&#39;s modelling envronment. ">
<polygon fill="#ffffff" stroke="#000000" points="60.7505,-110.5 60.7505,-128.5 196.0669,-128.5 196.0669,-110.5 60.7505,-110.5"/>
<text text-anchor="middle" x="128.4087" y="-116.5" font-family="FreeSans.ttf" font-size="10.00" fill="#000000">muq::Modeling::WorkPiece</text>
</a>
</g>
</g>
<!-- Node1&#45;&gt;Node0 -->
<g id="edge1" class="edge">
<title>Node1&#45;&gt;Node0</title>
<path fill="none" stroke="#191970" d="M128.4087,-100.383C128.4087,-91.3738 128.4087,-81.0373 128.4087,-73.7795"/>
<polygon fill="#191970" stroke="#191970" points="124.9088,-100.4178 128.4087,-110.4179 131.9088,-100.4179 124.9088,-100.4178"/>
</g>
</g>
</svg>
