<?xml version="1.0" encoding="UTF-8" standalone="no"?>
<!DOCTYPE svg PUBLIC "-//W3C//DTD SVG 1.1//EN"
 "http://www.w3.org/Graphics/SVG/1.1/DTD/svg11.dtd">
<!-- Generated by graphviz version 2.40.1 (20161225.0304)
 -->
<!-- Title: muq::Modeling::WorkPiece Pages: 1 -->
<svg width="615pt" height="131pt"
 viewBox="0.00 0.00 615.48 131.00" xmlns="http://www.w3.org/2000/svg" xmlns:xlink="http://www.w3.org/1999/xlink">
<g id="graph0" class="graph" transform="scale(1 1) rotate(0) translate(4 127)">
<title>muq::Modeling::WorkPiece</title>
<polygon fill="#ffffff" stroke="transparent" points="-4,4 -4,-127 611.4775,-127 611.4775,4 -4,4"/>
<!-- Node7 -->
<g id="node1" class="node">
<title>Node7</title>
<polygon fill="#bfbfbf" stroke="#000000" points="472.1611,-52.5 472.1611,-70.5 607.4775,-70.5 607.4775,-52.5 472.1611,-52.5"/>
<text text-anchor="middle" x="539.8193" y="-58.5" font-family="FreeSans.ttf" font-size="10.00" fill="#000000">muq::Modeling::WorkPiece</text>
</g>
<!-- Node8 -->
<g id="node2" class="node">
<title>Node8</title>
<polygon fill="#ffffff" stroke="#bfbfbf" points="269.7998,-94.5 269.7998,-122.5 378.8955,-122.5 378.8955,-94.5 269.7998,-94.5"/>
<text text-anchor="start" x="277.7998" y="-110.5" font-family="FreeSans.ttf" font-size="10.00" fill="#000000">std::map&lt; std::string,</text>
<text text-anchor="middle" x="324.3477" y="-100.5" font-family="FreeSans.ttf" font-size="10.00" fill="#000000"> std::string &gt;</text>
</g>
<!-- Node8&#45;&gt;Node7 -->
<g id="edge1" class="edge">
<title>Node8&#45;&gt;Node7</title>
<path fill="none" stroke="#9a32cd" stroke-dasharray="5,2" d="M389.1966,-97.5565C410.0151,-93.7642 433.126,-89.2606 454.1611,-84.5 472.3331,-80.3873 492.4633,-75.0241 508.6408,-70.5113"/>
<polygon fill="#9a32cd" stroke="#9a32cd" points="388.402,-94.1432 379.18,-99.3591 389.6418,-101.0326 388.402,-94.1432"/>
<text text-anchor="middle" x="425.5283" y="-97.5" font-family="FreeSans.ttf" font-size="10.00" fill="#000000"> types</text>
</g>
<!-- Node9 -->
<g id="node3" class="node">
<title>Node9</title>
<g id="a_node3"><a xlink:title="STL class. ">
<polygon fill="#ffffff" stroke="#bfbfbf" points="131.0957,-75.5 131.0957,-93.5 190.4453,-93.5 190.4453,-75.5 131.0957,-75.5"/>
<text text-anchor="middle" x="160.7705" y="-81.5" font-family="FreeSans.ttf" font-size="10.00" fill="#000000">std::string</text>
</a>
</g>
</g>
<!-- Node9&#45;&gt;Node8 -->
<g id="edge2" class="edge">
<title>Node9&#45;&gt;Node8</title>
<path fill="none" stroke="#9a32cd" stroke-dasharray="5,2" d="M200.8269,-90.3771C221.5648,-93.4197 247.1923,-97.1798 269.719,-100.4849"/>
<polygon fill="#9a32cd" stroke="#9a32cd" points="201.1753,-86.8908 190.7731,-88.902 200.159,-93.8166 201.1753,-86.8908"/>
<text text-anchor="middle" x="230.1226" y="-108.5" font-family="FreeSans.ttf" font-size="10.00" fill="#000000"> keys</text>
<text text-anchor="middle" x="230.1226" y="-98.5" font-family="FreeSans.ttf" font-size="10.00" fill="#000000">elements</text>
</g>
<!-- Node12 -->
<g id="node6" class="node">
<title>Node12</title>
<polygon fill="#ffffff" stroke="#bfbfbf" points="272.5684,-47.5 272.5684,-75.5 376.127,-75.5 376.127,-47.5 272.5684,-47.5"/>
<text text-anchor="start" x="280.5684" y="-63.5" font-family="FreeSans.ttf" font-size="10.00" fill="#000000">std::map&lt; unsigned</text>
<text text-anchor="middle" x="324.3477" y="-53.5" font-family="FreeSans.ttf" font-size="10.00" fill="#000000"> int, std::string &gt;</text>
</g>
<!-- Node9&#45;&gt;Node12 -->
<g id="edge6" class="edge">
<title>Node9&#45;&gt;Node12</title>
<path fill="none" stroke="#9a32cd" stroke-dasharray="5,2" d="M200.4057,-74.0407C203.117,-73.4744 205.8155,-72.9531 208.4453,-72.5 229.2606,-68.914 252.3949,-66.4227 272.4866,-64.7299"/>
<polygon fill="#9a32cd" stroke="#9a32cd" points="199.6162,-70.6308 190.6317,-76.2459 201.1569,-77.4591 199.6162,-70.6308"/>
<text text-anchor="middle" x="230.1226" y="-74.5" font-family="FreeSans.ttf" font-size="10.00" fill="#000000"> elements</text>
</g>
<!-- Node10 -->
<g id="node4" class="node">
<title>Node10</title>
<g id="a_node4"><a xlink:title="STL class. ">
<polygon fill="#ffffff" stroke="#bfbfbf" points="0,-70.5 0,-98.5 94.0957,-98.5 94.0957,-70.5 0,-70.5"/>
<text text-anchor="start" x="8" y="-86.5" font-family="FreeSans.ttf" font-size="10.00" fill="#000000">std::basic_string&lt;</text>
<text text-anchor="middle" x="47.0479" y="-76.5" font-family="FreeSans.ttf" font-size="10.00" fill="#000000"> char &gt;</text>
</a>
</g>
</g>
<!-- Node10&#45;&gt;Node9 -->
<g id="edge3" class="edge">
<title>Node10&#45;&gt;Node9</title>
<path fill="none" stroke="#191970" d="M104.2966,-84.5C113.5577,-84.5 122.8051,-84.5 131.056,-84.5"/>
<polygon fill="#191970" stroke="#191970" points="104.2886,-81.0001 94.2885,-84.5 104.2885,-88.0001 104.2886,-81.0001"/>
</g>
<!-- Node11 -->
<g id="node5" class="node">
<title>Node11</title>
<polygon fill="#ffffff" stroke="#bfbfbf" points="276.7432,-.5 276.7432,-28.5 371.9521,-28.5 371.9521,-.5 276.7432,-.5"/>
<text text-anchor="start" x="284.7432" y="-16.5" font-family="FreeSans.ttf" font-size="10.00" fill="#000000">std::vector&lt; boost</text>
<text text-anchor="middle" x="324.3477" y="-6.5" font-family="FreeSans.ttf" font-size="10.00" fill="#000000">::any &gt;</text>
</g>
<!-- Node11&#45;&gt;Node7 -->
<g id="edge4" class="edge">
<title>Node11&#45;&gt;Node7</title>
<path fill="none" stroke="#9a32cd" stroke-dasharray="5,2" d="M382.2175,-27.1229C418.8447,-35.1123 465.338,-45.2537 498.3101,-52.4458"/>
<polygon fill="#9a32cd" stroke="#9a32cd" points="382.684,-23.6425 372.1678,-24.9308 381.1921,-30.4816 382.684,-23.6425"/>
<text text-anchor="middle" x="425.5283" y="-44.5" font-family="FreeSans.ttf" font-size="10.00" fill="#000000"> outputs</text>
</g>
<!-- Node12&#45;&gt;Node7 -->
<g id="edge5" class="edge">
<title>Node12&#45;&gt;Node7</title>
<path fill="none" stroke="#9a32cd" stroke-dasharray="5,2" d="M386.2731,-61.5C413.1133,-61.5 444.6149,-61.5 472.0764,-61.5"/>
<polygon fill="#9a32cd" stroke="#9a32cd" points="386.2327,-58.0001 376.2327,-61.5 386.2327,-65.0001 386.2327,-58.0001"/>
<text text-anchor="middle" x="425.5283" y="-73.5" font-family="FreeSans.ttf" font-size="10.00" fill="#000000"> outputTypes</text>
<text text-anchor="middle" x="425.5283" y="-63.5" font-family="FreeSans.ttf" font-size="10.00" fill="#000000">inputTypes</text>
</g>
</g>
</svg>
