<?xml version="1.0" encoding="UTF-8" standalone="no"?>
<!DOCTYPE svg PUBLIC "-//W3C//DTD SVG 1.1//EN"
 "http://www.w3.org/Graphics/SVG/1.1/DTD/svg11.dtd">
<!-- Generated by graphviz version 2.40.1 (20161225.0304)
 -->
<!-- Title: muq::Modeling::DependentPredicate Pages: 1 -->
<svg width="144pt" height="122pt"
 viewBox="0.00 0.00 144.08 122.00" xmlns="http://www.w3.org/2000/svg" xmlns:xlink="http://www.w3.org/1999/xlink">
<g id="graph0" class="graph" transform="scale(1 1) rotate(0) translate(4 118)">
<title>muq::Modeling::DependentPredicate</title>
<polygon fill="#ffffff" stroke="transparent" points="-4,4 -4,-118 140.0781,-118 140.0781,4 -4,4"/>
<!-- Node1 -->
<g id="node1" class="node">
<title>Node1</title>
<polygon fill="#bfbfbf" stroke="#000000" points="0,-.5 0,-28.5 136.0781,-28.5 136.0781,-.5 0,-.5"/>
<text text-anchor="start" x="8" y="-16.5" font-family="FreeSans.ttf" font-size="10.00" fill="#000000">muq::Modeling::Dependent</text>
<text text-anchor="middle" x="68.0391" y="-6.5" font-family="FreeSans.ttf" font-size="10.00" fill="#000000">Predicate</text>
</g>
<!-- Node2 -->
<g id="node2" class="node">
<title>Node2</title>
<polygon fill="#ffffff" stroke="#bfbfbf" points="10.293,-75.5 10.293,-113.5 125.7852,-113.5 125.7852,-75.5 10.293,-75.5"/>
<text text-anchor="start" x="18.293" y="-101.5" font-family="FreeSans.ttf" font-size="10.00" fill="#000000">std::vector&lt; boost</text>
<text text-anchor="start" x="18.293" y="-91.5" font-family="FreeSans.ttf" font-size="10.00" fill="#000000">::graph_traits&lt; Graph</text>
<text text-anchor="middle" x="68.0391" y="-81.5" font-family="FreeSans.ttf" font-size="10.00" fill="#000000"> &gt;::vertex_descriptor &gt;</text>
</g>
<!-- Node2&#45;&gt;Node1 -->
<g id="edge1" class="edge">
<title>Node2&#45;&gt;Node1</title>
<path fill="none" stroke="#9a32cd" stroke-dasharray="5,2" d="M68.0391,-64.7707C68.0391,-52.4196 68.0391,-38.6672 68.0391,-28.6728"/>
<polygon fill="#9a32cd" stroke="#9a32cd" points="64.5392,-65.1342 68.0391,-75.1342 71.5392,-65.1343 64.5392,-65.1342"/>
<text text-anchor="middle" x="97.7852" y="-49" font-family="FreeSans.ttf" font-size="10.00" fill="#000000"> doesDepend</text>
</g>
</g>
</svg>
