<?xml version="1.0" encoding="UTF-8" standalone="no"?>
<!DOCTYPE svg PUBLIC "-//W3C//DTD SVG 1.1//EN"
 "http://www.w3.org/Graphics/SVG/1.1/DTD/svg11.dtd">
<!-- Generated by graphviz version 2.40.1 (20161225.0304)
 -->
<!-- Title: muq::Approximation::SquaredExpKernel Pages: 1 -->
<svg width="179pt" height="167pt"
 viewBox="0.00 0.00 178.54 167.00" xmlns="http://www.w3.org/2000/svg" xmlns:xlink="http://www.w3.org/1999/xlink">
<g id="graph0" class="graph" transform="scale(1 1) rotate(0) translate(4 163)">
<title>muq::Approximation::SquaredExpKernel</title>
<polygon fill="#ffffff" stroke="transparent" points="-4,4 -4,-163 174.5361,-163 174.5361,4 -4,4"/>
<!-- Node0 -->
<g id="node1" class="node">
<title>Node0</title>
<polygon fill="#bfbfbf" stroke="#000000" points="32.5171,-.5 32.5171,-28.5 138.019,-28.5 138.019,-.5 32.5171,-.5"/>
<text text-anchor="start" x="40.5171" y="-16.5" font-family="FreeSans.ttf" font-size="10.00" fill="#000000">muq::Approximation</text>
<text text-anchor="middle" x="85.2681" y="-6.5" font-family="FreeSans.ttf" font-size="10.00" fill="#000000">::SquaredExpKernel</text>
</g>
<!-- Node1 -->
<g id="node2" class="node">
<title>Node1</title>
<g id="a_node2"><a xlink:href="classmuq_1_1Approximation_1_1KernelImpl.html" target="_top" xlink:title="muq::Approximation\l::KernelImpl\&lt; SquaredExpKernel \&gt;">
<polygon fill="#ffffff" stroke="#000000" points="0,-65.5 0,-93.5 170.5361,-93.5 170.5361,-65.5 0,-65.5"/>
<text text-anchor="start" x="8" y="-81.5" font-family="FreeSans.ttf" font-size="10.00" fill="#000000">muq::Approximation</text>
<text text-anchor="middle" x="85.2681" y="-71.5" font-family="FreeSans.ttf" font-size="10.00" fill="#000000">::KernelImpl&lt; SquaredExpKernel &gt;</text>
</a>
</g>
</g>
<!-- Node1&#45;&gt;Node0 -->
<g id="edge1" class="edge">
<title>Node1&#45;&gt;Node0</title>
<path fill="none" stroke="#191970" d="M85.2681,-55.1081C85.2681,-46.1539 85.2681,-36.3227 85.2681,-28.5765"/>
<polygon fill="#191970" stroke="#191970" points="81.7682,-55.3959 85.2681,-65.396 88.7682,-55.396 81.7682,-55.3959"/>
</g>
<!-- Node2 -->
<g id="node3" class="node">
<title>Node2</title>
<g id="a_node3"><a xlink:href="classmuq_1_1Approximation_1_1KernelBase.html" target="_top" xlink:title="Base class for covariance kernels. ">
<polygon fill="#ffffff" stroke="#000000" points="32.8027,-130.5 32.8027,-158.5 137.7334,-158.5 137.7334,-130.5 32.8027,-130.5"/>
<text text-anchor="start" x="40.8027" y="-146.5" font-family="FreeSans.ttf" font-size="10.00" fill="#000000">muq::Approximation</text>
<text text-anchor="middle" x="85.2681" y="-136.5" font-family="FreeSans.ttf" font-size="10.00" fill="#000000">::KernelBase</text>
</a>
</g>
</g>
<!-- Node2&#45;&gt;Node1 -->
<g id="edge2" class="edge">
<title>Node2&#45;&gt;Node1</title>
<path fill="none" stroke="#191970" d="M85.2681,-120.1081C85.2681,-111.1539 85.2681,-101.3227 85.2681,-93.5765"/>
<polygon fill="#191970" stroke="#191970" points="81.7682,-120.3959 85.2681,-130.396 88.7682,-120.396 81.7682,-120.3959"/>
</g>
</g>
</svg>
