<?xml version="1.0" encoding="UTF-8" standalone="no"?>
<!DOCTYPE svg PUBLIC "-//W3C//DTD SVG 1.1//EN"
 "http://www.w3.org/Graphics/SVG/1.1/DTD/svg11.dtd">
<!-- Generated by graphviz version 2.40.1 (20161225.0304)
 -->
<!-- Title: muq::Modeling::WorkGraphNode Pages: 1 -->
<svg width="170pt" height="158pt"
 viewBox="0.00 0.00 170.00 158.00" xmlns="http://www.w3.org/2000/svg" xmlns:xlink="http://www.w3.org/1999/xlink">
<g id="graph0" class="graph" transform="scale(1 1) rotate(0) translate(4 154)">
<title>muq::Modeling::WorkGraphNode</title>
<polygon fill="#ffffff" stroke="transparent" points="-4,4 -4,-154 166.001,-154 166.001,4 -4,4"/>
<!-- Node1 -->
<g id="node1" class="node">
<title>Node1</title>
<polygon fill="#bfbfbf" stroke="#000000" points="0,-.5 0,-18.5 162.001,-18.5 162.001,-.5 0,-.5"/>
<text text-anchor="middle" x="81.0005" y="-6.5" font-family="FreeSans.ttf" font-size="10.00" fill="#000000">muq::Modeling::WorkGraphNode</text>
</g>
<!-- Node2 -->
<g id="node2" class="node">
<title>Node2</title>
<g id="a_node2"><a xlink:title="STL class. ">
<polygon fill="#ffffff" stroke="#bfbfbf" points="51.3257,-65.5 51.3257,-83.5 110.6753,-83.5 110.6753,-65.5 51.3257,-65.5"/>
<text text-anchor="middle" x="81.0005" y="-71.5" font-family="FreeSans.ttf" font-size="10.00" fill="#000000">std::string</text>
</a>
</g>
</g>
<!-- Node2&#45;&gt;Node1 -->
<g id="edge1" class="edge">
<title>Node2&#45;&gt;Node1</title>
<path fill="none" stroke="#9a32cd" stroke-dasharray="5,2" d="M81.0005,-55.1265C81.0005,-43.1522 81.0005,-28.3205 81.0005,-18.8821"/>
<polygon fill="#9a32cd" stroke="#9a32cd" points="77.5006,-55.462 81.0005,-65.462 84.5006,-55.4621 77.5006,-55.462"/>
<text text-anchor="middle" x="94.897" y="-39" font-family="FreeSans.ttf" font-size="10.00" fill="#000000"> name</text>
</g>
<!-- Node3 -->
<g id="node3" class="node">
<title>Node3</title>
<g id="a_node3"><a xlink:title="STL class. ">
<polygon fill="#ffffff" stroke="#bfbfbf" points="33.9526,-121.5 33.9526,-149.5 128.0483,-149.5 128.0483,-121.5 33.9526,-121.5"/>
<text text-anchor="start" x="41.9526" y="-137.5" font-family="FreeSans.ttf" font-size="10.00" fill="#000000">std::basic_string&lt;</text>
<text text-anchor="middle" x="81.0005" y="-127.5" font-family="FreeSans.ttf" font-size="10.00" fill="#000000"> char &gt;</text>
</a>
</g>
</g>
<!-- Node3&#45;&gt;Node2 -->
<g id="edge2" class="edge">
<title>Node3&#45;&gt;Node2</title>
<path fill="none" stroke="#191970" d="M81.0005,-111.1001C81.0005,-101.5157 81.0005,-91.0935 81.0005,-83.831"/>
<polygon fill="#191970" stroke="#191970" points="77.5006,-111.352 81.0005,-121.3521 84.5006,-111.3521 77.5006,-111.352"/>
</g>
</g>
</svg>
