<?xml version="1.0" encoding="UTF-8" standalone="no"?>
<!DOCTYPE svg PUBLIC "-//W3C//DTD SVG 1.1//EN"
 "http://www.w3.org/Graphics/SVG/1.1/DTD/svg11.dtd">
<!-- Generated by graphviz version 2.40.1 (20161225.0304)
 -->
<!-- Title: muq::Approximation::KernelBase Pages: 1 -->
<svg width="507pt" height="453pt"
 viewBox="0.00 0.00 506.56 453.00" xmlns="http://www.w3.org/2000/svg" xmlns:xlink="http://www.w3.org/1999/xlink">
<g id="graph0" class="graph" transform="scale(1 1) rotate(0) translate(4 449)">
<title>muq::Approximation::KernelBase</title>
<polygon fill="#ffffff" stroke="transparent" points="-4,4 -4,-449 502.5645,-449 502.5645,4 -4,4"/>
<!-- Node0 -->
<g id="node1" class="node">
<title>Node0</title>
<polygon fill="#bfbfbf" stroke="#000000" points="0,-203.5 0,-231.5 104.9307,-231.5 104.9307,-203.5 0,-203.5"/>
<text text-anchor="start" x="8" y="-219.5" font-family="FreeSans.ttf" font-size="10.00" fill="#000000">muq::Approximation</text>
<text text-anchor="middle" x="52.4653" y="-209.5" font-family="FreeSans.ttf" font-size="10.00" fill="#000000">::KernelBase</text>
</g>
<!-- Node1 -->
<g id="node2" class="node">
<title>Node1</title>
<g id="a_node2"><a xlink:href="classmuq_1_1Approximation_1_1KernelImpl.html" target="_top" xlink:title="muq::Approximation\l::KernelImpl\&lt; ConcatenateKernel\l\&lt; KernelType1, KernelType2 \&gt; \&gt;">
<polygon fill="#ffffff" stroke="#000000" points="144.4048,-406.5 144.4048,-444.5 307.9927,-444.5 307.9927,-406.5 144.4048,-406.5"/>
<text text-anchor="start" x="152.4048" y="-432.5" font-family="FreeSans.ttf" font-size="10.00" fill="#000000">muq::Approximation</text>
<text text-anchor="start" x="152.4048" y="-422.5" font-family="FreeSans.ttf" font-size="10.00" fill="#000000">::KernelImpl&lt; ConcatenateKernel</text>
<text text-anchor="middle" x="226.1987" y="-412.5" font-family="FreeSans.ttf" font-size="10.00" fill="#000000">&lt; KernelType1, KernelType2 &gt; &gt;</text>
</a>
</g>
</g>
<!-- Node0&#45;&gt;Node1 -->
<g id="edge1" class="edge">
<title>Node0&#45;&gt;Node1</title>
<path fill="none" stroke="#191970" d="M57.8712,-241.5429C67.7396,-279.9754 92.2908,-355.2135 140.9307,-397.5 144.811,-400.8735 149.1079,-403.8426 153.6494,-406.4554"/>
<polygon fill="#191970" stroke="#191970" points="61.248,-240.6172 55.4693,-231.737 54.449,-242.2826 61.248,-240.6172"/>
</g>
<!-- Node3 -->
<g id="node4" class="node">
<title>Node3</title>
<g id="a_node4"><a xlink:href="classmuq_1_1Approximation_1_1KernelImpl.html" target="_top" xlink:title="muq::Approximation\l::KernelImpl\&lt; ConstantKernel \&gt;">
<polygon fill="#ffffff" stroke="#000000" points="148.438,-359.5 148.438,-387.5 303.9595,-387.5 303.9595,-359.5 148.438,-359.5"/>
<text text-anchor="start" x="156.438" y="-375.5" font-family="FreeSans.ttf" font-size="10.00" fill="#000000">muq::Approximation</text>
<text text-anchor="middle" x="226.1987" y="-365.5" font-family="FreeSans.ttf" font-size="10.00" fill="#000000">::KernelImpl&lt; ConstantKernel &gt;</text>
</a>
</g>
</g>
<!-- Node0&#45;&gt;Node3 -->
<g id="edge3" class="edge">
<title>Node0&#45;&gt;Node3</title>
<path fill="none" stroke="#191970" d="M61.7568,-240.8685C74.8776,-270.8293 101.6944,-322.2718 140.9307,-350.5 145.7847,-353.9922 151.1387,-356.9541 156.7277,-359.4664"/>
<polygon fill="#191970" stroke="#191970" points="64.9537,-239.442 57.834,-231.5959 58.5069,-242.1694 64.9537,-239.442"/>
</g>
<!-- Node5 -->
<g id="node6" class="node">
<title>Node5</title>
<g id="a_node6"><a xlink:href="classmuq_1_1Approximation_1_1KernelImpl.html" target="_top" xlink:title="muq::Approximation\l::KernelImpl\&lt; CoregionalKernel \&gt;">
<polygon fill="#ffffff" stroke="#000000" points="144.2681,-312.5 144.2681,-340.5 308.1294,-340.5 308.1294,-312.5 144.2681,-312.5"/>
<text text-anchor="start" x="152.2681" y="-328.5" font-family="FreeSans.ttf" font-size="10.00" fill="#000000">muq::Approximation</text>
<text text-anchor="middle" x="226.1987" y="-318.5" font-family="FreeSans.ttf" font-size="10.00" fill="#000000">::KernelImpl&lt; CoregionalKernel &gt;</text>
</a>
</g>
</g>
<!-- Node0&#45;&gt;Node5 -->
<g id="edge5" class="edge">
<title>Node0&#45;&gt;Node5</title>
<path fill="none" stroke="#191970" d="M69.475,-239.4758C85.7736,-259.0612 112.0984,-287.0924 140.9307,-303.5 146.9273,-306.9125 153.4505,-309.836 160.1298,-312.337"/>
<polygon fill="#191970" stroke="#191970" points="72.1468,-237.2137 63.1257,-231.6576 66.713,-241.6266 72.1468,-237.2137"/>
</g>
<!-- Node7 -->
<g id="node8" class="node">
<title>Node7</title>
<g id="a_node8"><a xlink:href="classmuq_1_1Approximation_1_1KernelImpl.html" target="_top" xlink:title="muq::Approximation\l::KernelImpl\&lt; LinearTransform\lKernel\&lt; KernelType \&gt; \&gt;">
<polygon fill="#ffffff" stroke="#000000" points="150.7158,-255.5 150.7158,-293.5 301.6816,-293.5 301.6816,-255.5 150.7158,-255.5"/>
<text text-anchor="start" x="158.7158" y="-281.5" font-family="FreeSans.ttf" font-size="10.00" fill="#000000">muq::Approximation</text>
<text text-anchor="start" x="158.7158" y="-271.5" font-family="FreeSans.ttf" font-size="10.00" fill="#000000">::KernelImpl&lt; LinearTransform</text>
<text text-anchor="middle" x="226.1987" y="-261.5" font-family="FreeSans.ttf" font-size="10.00" fill="#000000">Kernel&lt; KernelType &gt; &gt;</text>
</a>
</g>
</g>
<!-- Node0&#45;&gt;Node7 -->
<g id="edge7" class="edge">
<title>Node0&#45;&gt;Node7</title>
<path fill="none" stroke="#191970" d="M104.929,-234.7127C124.8354,-241.2438 147.6168,-248.7181 168.0196,-255.4121"/>
<polygon fill="#191970" stroke="#191970" points="106.0035,-231.3818 95.4107,-231.5899 103.8212,-238.0329 106.0035,-231.3818"/>
</g>
<!-- Node9 -->
<g id="node10" class="node">
<title>Node9</title>
<g id="a_node10"><a xlink:href="classmuq_1_1Approximation_1_1KernelImpl.html" target="_top" xlink:title="muq::Approximation\l::KernelImpl\&lt; ProductKernel\l\&lt; LeftType, RightType \&gt; \&gt;">
<polygon fill="#ffffff" stroke="#000000" points="155.5278,-198.5 155.5278,-236.5 296.8696,-236.5 296.8696,-198.5 155.5278,-198.5"/>
<text text-anchor="start" x="163.5278" y="-224.5" font-family="FreeSans.ttf" font-size="10.00" fill="#000000">muq::Approximation</text>
<text text-anchor="start" x="163.5278" y="-214.5" font-family="FreeSans.ttf" font-size="10.00" fill="#000000">::KernelImpl&lt; ProductKernel</text>
<text text-anchor="middle" x="226.1987" y="-204.5" font-family="FreeSans.ttf" font-size="10.00" fill="#000000">&lt; LeftType, RightType &gt; &gt;</text>
</a>
</g>
</g>
<!-- Node0&#45;&gt;Node9 -->
<g id="edge9" class="edge">
<title>Node0&#45;&gt;Node9</title>
<path fill="none" stroke="#191970" d="M115.3293,-217.5C128.3715,-217.5 142.1971,-217.5 155.4985,-217.5"/>
<polygon fill="#191970" stroke="#191970" points="115.0626,-214.0001 105.0625,-217.5 115.0625,-221.0001 115.0626,-214.0001"/>
</g>
<!-- Node11 -->
<g id="node12" class="node">
<title>Node11</title>
<g id="a_node12"><a xlink:href="classmuq_1_1Approximation_1_1KernelImpl.html" target="_top" xlink:title="muq::Approximation\l::KernelImpl\&lt; SquaredExpKernel \&gt;">
<polygon fill="#ffffff" stroke="#000000" points="140.9307,-151.5 140.9307,-179.5 311.4668,-179.5 311.4668,-151.5 140.9307,-151.5"/>
<text text-anchor="start" x="148.9307" y="-167.5" font-family="FreeSans.ttf" font-size="10.00" fill="#000000">muq::Approximation</text>
<text text-anchor="middle" x="226.1987" y="-157.5" font-family="FreeSans.ttf" font-size="10.00" fill="#000000">::KernelImpl&lt; SquaredExpKernel &gt;</text>
</a>
</g>
</g>
<!-- Node0&#45;&gt;Node11 -->
<g id="edge11" class="edge">
<title>Node0&#45;&gt;Node11</title>
<path fill="none" stroke="#191970" d="M105.6069,-200.3752C117.2263,-196.7162 129.4752,-192.9241 140.9307,-189.5 151.9816,-186.1969 163.876,-182.7692 175.1711,-179.5735"/>
<polygon fill="#191970" stroke="#191970" points="104.5044,-197.0529 96.0259,-203.4064 106.6159,-203.7269 104.5044,-197.0529"/>
</g>
<!-- Node13 -->
<g id="node14" class="node">
<title>Node13</title>
<g id="a_node14"><a xlink:href="classmuq_1_1Approximation_1_1KernelImpl.html" target="_top" xlink:title="muq::Approximation\l::KernelImpl\&lt; SumKernel\l\&lt; LeftType, RightType \&gt; \&gt;">
<polygon fill="#ffffff" stroke="#000000" points="160.7964,-94.5 160.7964,-132.5 291.6011,-132.5 291.6011,-94.5 160.7964,-94.5"/>
<text text-anchor="start" x="168.7964" y="-120.5" font-family="FreeSans.ttf" font-size="10.00" fill="#000000">muq::Approximation</text>
<text text-anchor="start" x="168.7964" y="-110.5" font-family="FreeSans.ttf" font-size="10.00" fill="#000000">::KernelImpl&lt; SumKernel</text>
<text text-anchor="middle" x="226.1987" y="-100.5" font-family="FreeSans.ttf" font-size="10.00" fill="#000000">&lt; LeftType, RightType &gt; &gt;</text>
</a>
</g>
</g>
<!-- Node0&#45;&gt;Node13 -->
<g id="edge13" class="edge">
<title>Node0&#45;&gt;Node13</title>
<path fill="none" stroke="#191970" d="M73.0699,-196.0736C89.9854,-179.5188 115.2567,-157.0476 140.9307,-142.5 147.3246,-138.877 154.2448,-135.6069 161.2826,-132.6821"/>
<polygon fill="#191970" stroke="#191970" points="70.5208,-193.6727 65.9145,-203.2138 75.4653,-198.6278 70.5208,-193.6727"/>
</g>
<!-- Node15 -->
<g id="node16" class="node">
<title>Node15</title>
<g id="a_node16"><a xlink:href="classmuq_1_1Approximation_1_1KernelImpl.html" target="_top" xlink:title="muq::Approximation\l::KernelImpl\&lt; WhiteNoiseKernel \&gt;">
<polygon fill="#ffffff" stroke="#000000" points="142.8862,-47.5 142.8862,-75.5 309.5112,-75.5 309.5112,-47.5 142.8862,-47.5"/>
<text text-anchor="start" x="150.8862" y="-63.5" font-family="FreeSans.ttf" font-size="10.00" fill="#000000">muq::Approximation</text>
<text text-anchor="middle" x="226.1987" y="-53.5" font-family="FreeSans.ttf" font-size="10.00" fill="#000000">::KernelImpl&lt; WhiteNoiseKernel &gt;</text>
</a>
</g>
</g>
<!-- Node0&#45;&gt;Node15 -->
<g id="edge15" class="edge">
<title>Node0&#45;&gt;Node15</title>
<path fill="none" stroke="#191970" d="M62.0567,-193.9109C75.3525,-164.1807 102.2037,-113.5802 140.9307,-85.5 146.2843,-81.6182 152.2451,-78.3633 158.4582,-75.6342"/>
<polygon fill="#191970" stroke="#191970" points="58.8265,-192.5628 58.0698,-203.1306 65.2515,-195.3412 58.8265,-192.5628"/>
</g>
<!-- Node17 -->
<g id="node18" class="node">
<title>Node17</title>
<g id="a_node18"><a xlink:href="classmuq_1_1Approximation_1_1KernelImpl.html" target="_top" xlink:title="muq::Approximation\l::KernelImpl\&lt; ChildType \&gt;">
<polygon fill="#ffffff" stroke="#000000" points="160.667,-.5 160.667,-28.5 291.7305,-28.5 291.7305,-.5 160.667,-.5"/>
<text text-anchor="start" x="168.667" y="-16.5" font-family="FreeSans.ttf" font-size="10.00" fill="#000000">muq::Approximation</text>
<text text-anchor="middle" x="226.1987" y="-6.5" font-family="FreeSans.ttf" font-size="10.00" fill="#000000">::KernelImpl&lt; ChildType &gt;</text>
</a>
</g>
</g>
<!-- Node0&#45;&gt;Node17 -->
<g id="edge17" class="edge">
<title>Node0&#45;&gt;Node17</title>
<path fill="none" stroke="#191970" d="M57.6344,-193.6323C67.2214,-155.158 91.449,-79.5955 140.9307,-38.5 146.7277,-33.6855 153.4294,-29.8348 160.4772,-26.7552"/>
<polygon fill="#191970" stroke="#191970" points="54.2103,-192.9034 55.3098,-203.4411 61.0216,-194.5177 54.2103,-192.9034"/>
</g>
<!-- Node2 -->
<g id="node3" class="node">
<title>Node2</title>
<g id="a_node3"><a xlink:href="classmuq_1_1Approximation_1_1ConcatenateKernel.html" target="_top" xlink:title="muq::Approximation\l::ConcatenateKernel\l\&lt; KernelType1, KernelType2 \&gt;">
<polygon fill="#ffffff" stroke="#000000" points="347.4668,-406.5 347.4668,-444.5 498.5645,-444.5 498.5645,-406.5 347.4668,-406.5"/>
<text text-anchor="start" x="355.4668" y="-432.5" font-family="FreeSans.ttf" font-size="10.00" fill="#000000">muq::Approximation</text>
<text text-anchor="start" x="355.4668" y="-422.5" font-family="FreeSans.ttf" font-size="10.00" fill="#000000">::ConcatenateKernel</text>
<text text-anchor="middle" x="423.0156" y="-412.5" font-family="FreeSans.ttf" font-size="10.00" fill="#000000">&lt; KernelType1, KernelType2 &gt;</text>
</a>
</g>
</g>
<!-- Node1&#45;&gt;Node2 -->
<g id="edge2" class="edge">
<title>Node1&#45;&gt;Node2</title>
<path fill="none" stroke="#191970" d="M318.3378,-425.5C328.0699,-425.5 337.8842,-425.5 347.3977,-425.5"/>
<polygon fill="#191970" stroke="#191970" points="318.2417,-422.0001 308.2416,-425.5 318.2416,-429.0001 318.2417,-422.0001"/>
</g>
<!-- Node4 -->
<g id="node5" class="node">
<title>Node4</title>
<g id="a_node5"><a xlink:href="classmuq_1_1Approximation_1_1ConstantKernel.html" target="_top" xlink:title="muq::Approximation\l::ConstantKernel">
<polygon fill="#ffffff" stroke="#000000" points="370.5503,-359.5 370.5503,-387.5 475.481,-387.5 475.481,-359.5 370.5503,-359.5"/>
<text text-anchor="start" x="378.5503" y="-375.5" font-family="FreeSans.ttf" font-size="10.00" fill="#000000">muq::Approximation</text>
<text text-anchor="middle" x="423.0156" y="-365.5" font-family="FreeSans.ttf" font-size="10.00" fill="#000000">::ConstantKernel</text>
</a>
</g>
</g>
<!-- Node3&#45;&gt;Node4 -->
<g id="edge4" class="edge">
<title>Node3&#45;&gt;Node4</title>
<path fill="none" stroke="#191970" d="M314.2366,-373.5C333.3752,-373.5 353.0428,-373.5 370.3006,-373.5"/>
<polygon fill="#191970" stroke="#191970" points="313.986,-370.0001 303.986,-373.5 313.9859,-377.0001 313.986,-370.0001"/>
</g>
<!-- Node6 -->
<g id="node7" class="node">
<title>Node6</title>
<g id="a_node7"><a xlink:href="classmuq_1_1Approximation_1_1CoregionalKernel.html" target="_top" xlink:title="muq::Approximation\l::CoregionalKernel">
<polygon fill="#ffffff" stroke="#000000" points="370.5503,-312.5 370.5503,-340.5 475.481,-340.5 475.481,-312.5 370.5503,-312.5"/>
<text text-anchor="start" x="378.5503" y="-328.5" font-family="FreeSans.ttf" font-size="10.00" fill="#000000">muq::Approximation</text>
<text text-anchor="middle" x="423.0156" y="-318.5" font-family="FreeSans.ttf" font-size="10.00" fill="#000000">::CoregionalKernel</text>
</a>
</g>
</g>
<!-- Node5&#45;&gt;Node6 -->
<g id="edge6" class="edge">
<title>Node5&#45;&gt;Node6</title>
<path fill="none" stroke="#191970" d="M318.6376,-326.5C336.375,-326.5 354.372,-326.5 370.3122,-326.5"/>
<polygon fill="#191970" stroke="#191970" points="318.2417,-323.0001 308.2416,-326.5 318.2416,-330.0001 318.2417,-323.0001"/>
</g>
<!-- Node8 -->
<g id="node9" class="node">
<title>Node8</title>
<g id="a_node9"><a xlink:href="classmuq_1_1Approximation_1_1LinearTransformKernel.html" target="_top" xlink:title="muq::Approximation\l::LinearTransformKernel\l\&lt; KernelType \&gt;">
<polygon fill="#ffffff" stroke="#000000" points="361.2876,-255.5 361.2876,-293.5 484.7437,-293.5 484.7437,-255.5 361.2876,-255.5"/>
<text text-anchor="start" x="369.2876" y="-281.5" font-family="FreeSans.ttf" font-size="10.00" fill="#000000">muq::Approximation</text>
<text text-anchor="start" x="369.2876" y="-271.5" font-family="FreeSans.ttf" font-size="10.00" fill="#000000">::LinearTransformKernel</text>
<text text-anchor="middle" x="423.0156" y="-261.5" font-family="FreeSans.ttf" font-size="10.00" fill="#000000">&lt; KernelType &gt;</text>
</a>
</g>
</g>
<!-- Node7&#45;&gt;Node8 -->
<g id="edge8" class="edge">
<title>Node7&#45;&gt;Node8</title>
<path fill="none" stroke="#191970" d="M311.9444,-274.5C328.4768,-274.5 345.494,-274.5 361.0876,-274.5"/>
<polygon fill="#191970" stroke="#191970" points="311.7304,-271.0001 301.7304,-274.5 311.7304,-278.0001 311.7304,-271.0001"/>
</g>
<!-- Node10 -->
<g id="node11" class="node">
<title>Node10</title>
<g id="a_node11"><a xlink:href="classmuq_1_1Approximation_1_1ProductKernel.html" target="_top" xlink:title="muq::Approximation\l::ProductKernel\&lt; LeftType,\l RightType \&gt;">
<polygon fill="#ffffff" stroke="#000000" points="355.6724,-198.5 355.6724,-236.5 490.3589,-236.5 490.3589,-198.5 355.6724,-198.5"/>
<text text-anchor="start" x="363.6724" y="-224.5" font-family="FreeSans.ttf" font-size="10.00" fill="#000000">muq::Approximation</text>
<text text-anchor="start" x="363.6724" y="-214.5" font-family="FreeSans.ttf" font-size="10.00" fill="#000000">::ProductKernel&lt; LeftType,</text>
<text text-anchor="middle" x="423.0156" y="-204.5" font-family="FreeSans.ttf" font-size="10.00" fill="#000000"> RightType &gt;</text>
</a>
</g>
</g>
<!-- Node9&#45;&gt;Node10 -->
<g id="edge10" class="edge">
<title>Node9&#45;&gt;Node10</title>
<path fill="none" stroke="#191970" d="M307.381,-217.5C323.38,-217.5 340.0061,-217.5 355.4959,-217.5"/>
<polygon fill="#191970" stroke="#191970" points="306.9761,-214.0001 296.9761,-217.5 306.976,-221.0001 306.9761,-214.0001"/>
</g>
<!-- Node12 -->
<g id="node13" class="node">
<title>Node12</title>
<g id="a_node13"><a xlink:href="classmuq_1_1Approximation_1_1SquaredExpKernel.html" target="_top" xlink:title="muq::Approximation\l::SquaredExpKernel">
<polygon fill="#ffffff" stroke="#000000" points="370.2646,-151.5 370.2646,-179.5 475.7666,-179.5 475.7666,-151.5 370.2646,-151.5"/>
<text text-anchor="start" x="378.2646" y="-167.5" font-family="FreeSans.ttf" font-size="10.00" fill="#000000">muq::Approximation</text>
<text text-anchor="middle" x="423.0156" y="-157.5" font-family="FreeSans.ttf" font-size="10.00" fill="#000000">::SquaredExpKernel</text>
</a>
</g>
</g>
<!-- Node11&#45;&gt;Node12 -->
<g id="edge12" class="edge">
<title>Node11&#45;&gt;Node12</title>
<path fill="none" stroke="#191970" d="M321.984,-165.5C338.6019,-165.5 355.3197,-165.5 370.24,-165.5"/>
<polygon fill="#191970" stroke="#191970" points="321.6668,-162.0001 311.6668,-165.5 321.6668,-169.0001 321.6668,-162.0001"/>
</g>
<!-- Node14 -->
<g id="node15" class="node">
<title>Node14</title>
<g id="a_node15"><a xlink:href="classmuq_1_1Approximation_1_1SumKernel.html" target="_top" xlink:title="muq::Approximation\l::SumKernel\&lt; LeftType,\l RightType \&gt;">
<polygon fill="#ffffff" stroke="#000000" points="362.623,-94.5 362.623,-132.5 483.4082,-132.5 483.4082,-94.5 362.623,-94.5"/>
<text text-anchor="start" x="370.623" y="-120.5" font-family="FreeSans.ttf" font-size="10.00" fill="#000000">muq::Approximation</text>
<text text-anchor="start" x="370.623" y="-110.5" font-family="FreeSans.ttf" font-size="10.00" fill="#000000">::SumKernel&lt; LeftType,</text>
<text text-anchor="middle" x="423.0156" y="-100.5" font-family="FreeSans.ttf" font-size="10.00" fill="#000000"> RightType &gt;</text>
</a>
</g>
</g>
<!-- Node13&#45;&gt;Node14 -->
<g id="edge14" class="edge">
<title>Node13&#45;&gt;Node14</title>
<path fill="none" stroke="#191970" d="M301.7766,-113.5C321.8475,-113.5 343.2594,-113.5 362.4168,-113.5"/>
<polygon fill="#191970" stroke="#191970" points="301.7359,-110.0001 291.7359,-113.5 301.7359,-117.0001 301.7359,-110.0001"/>
</g>
<!-- Node16 -->
<g id="node17" class="node">
<title>Node16</title>
<g id="a_node17"><a xlink:href="classmuq_1_1Approximation_1_1WhiteNoiseKernel.html" target="_top" xlink:title="muq::Approximation\l::WhiteNoiseKernel">
<polygon fill="#ffffff" stroke="#000000" points="370.5503,-47.5 370.5503,-75.5 475.481,-75.5 475.481,-47.5 370.5503,-47.5"/>
<text text-anchor="start" x="378.5503" y="-63.5" font-family="FreeSans.ttf" font-size="10.00" fill="#000000">muq::Approximation</text>
<text text-anchor="middle" x="423.0156" y="-53.5" font-family="FreeSans.ttf" font-size="10.00" fill="#000000">::WhiteNoiseKernel</text>
</a>
</g>
</g>
<!-- Node15&#45;&gt;Node16 -->
<g id="edge16" class="edge">
<title>Node15&#45;&gt;Node16</title>
<path fill="none" stroke="#191970" d="M319.8814,-61.5C337.2969,-61.5 354.9102,-61.5 370.5329,-61.5"/>
<polygon fill="#191970" stroke="#191970" points="319.6668,-58.0001 309.6668,-61.5 319.6668,-65.0001 319.6668,-58.0001"/>
</g>
</g>
</svg>
