<?xml version="1.0" encoding="UTF-8" standalone="no"?>
<!DOCTYPE svg PUBLIC "-//W3C//DTD SVG 1.1//EN"
 "http://www.w3.org/Graphics/SVG/1.1/DTD/svg11.dtd">
<!-- Generated by graphviz version 2.40.1 (20161225.0304)
 -->
<!-- Title: muq::Approximation::ProductKernel&lt; LeftType, RightType &gt; Pages: 1 -->
<svg width="149pt" height="254pt"
 viewBox="0.00 0.00 149.34 254.00" xmlns="http://www.w3.org/2000/svg" xmlns:xlink="http://www.w3.org/1999/xlink">
<g id="graph0" class="graph" transform="scale(1 1) rotate(0) translate(4 250)">
<title>muq::Approximation::ProductKernel&lt; LeftType, RightType &gt;</title>
<polygon fill="#ffffff" stroke="transparent" points="-4,4 -4,-250 145.3418,-250 145.3418,4 -4,4"/>
<!-- Node3 -->
<g id="node1" class="node">
<title>Node3</title>
<polygon fill="#bfbfbf" stroke="#000000" points="3.3276,-.5 3.3276,-38.5 138.0142,-38.5 138.0142,-.5 3.3276,-.5"/>
<text text-anchor="start" x="11.3276" y="-26.5" font-family="FreeSans.ttf" font-size="10.00" fill="#000000">muq::Approximation</text>
<text text-anchor="start" x="11.3276" y="-16.5" font-family="FreeSans.ttf" font-size="10.00" fill="#000000">::ProductKernel&lt; LeftType,</text>
<text text-anchor="middle" x="70.6709" y="-6.5" font-family="FreeSans.ttf" font-size="10.00" fill="#000000"> RightType &gt;</text>
</g>
<!-- Node4 -->
<g id="node2" class="node">
<title>Node4</title>
<g id="a_node2"><a xlink:href="classmuq_1_1Approximation_1_1KernelImpl.html" target="_top" xlink:title="muq::Approximation\l::KernelImpl\&lt; ProductKernel\l\&lt; LeftType, RightType \&gt; \&gt;">
<polygon fill="#ffffff" stroke="#000000" points="0,-76.5 0,-114.5 141.3418,-114.5 141.3418,-76.5 0,-76.5"/>
<text text-anchor="start" x="8" y="-102.5" font-family="FreeSans.ttf" font-size="10.00" fill="#000000">muq::Approximation</text>
<text text-anchor="start" x="8" y="-92.5" font-family="FreeSans.ttf" font-size="10.00" fill="#000000">::KernelImpl&lt; ProductKernel</text>
<text text-anchor="middle" x="70.6709" y="-82.5" font-family="FreeSans.ttf" font-size="10.00" fill="#000000">&lt; LeftType, RightType &gt; &gt;</text>
</a>
</g>
</g>
<!-- Node4&#45;&gt;Node3 -->
<g id="edge1" class="edge">
<title>Node4&#45;&gt;Node3</title>
<path fill="none" stroke="#191970" d="M70.6709,-66.3048C70.6709,-57.0426 70.6709,-47.0418 70.6709,-38.6719"/>
<polygon fill="#191970" stroke="#191970" points="67.171,-66.322 70.6709,-76.322 74.171,-66.322 67.171,-66.322"/>
</g>
<!-- Node5 -->
<g id="node3" class="node">
<title>Node5</title>
<g id="a_node3"><a xlink:href="classmuq_1_1Approximation_1_1KernelBase.html" target="_top" xlink:title="Base class for covariance kernels. ">
<polygon fill="#ffffff" stroke="#000000" points="18.2056,-152.5 18.2056,-180.5 123.1362,-180.5 123.1362,-152.5 18.2056,-152.5"/>
<text text-anchor="start" x="26.2056" y="-168.5" font-family="FreeSans.ttf" font-size="10.00" fill="#000000">muq::Approximation</text>
<text text-anchor="middle" x="70.6709" y="-158.5" font-family="FreeSans.ttf" font-size="10.00" fill="#000000">::KernelBase</text>
</a>
</g>
</g>
<!-- Node5&#45;&gt;Node4 -->
<g id="edge2" class="edge">
<title>Node5&#45;&gt;Node4</title>
<path fill="none" stroke="#191970" d="M70.6709,-142.1894C70.6709,-133.1757 70.6709,-123.0901 70.6709,-114.6055"/>
<polygon fill="#191970" stroke="#191970" points="67.171,-142.4727 70.6709,-152.4727 74.171,-142.4727 67.171,-142.4727"/>
</g>
<!-- Node6 -->
<g id="node4" class="node">
<title>Node6</title>
<polygon fill="#ffffff" stroke="#bfbfbf" points="10.6934,-227.5 10.6934,-245.5 130.6484,-245.5 130.6484,-227.5 10.6934,-227.5"/>
<text text-anchor="middle" x="70.6709" y="-233.5" font-family="FreeSans.ttf" font-size="10.00" fill="#000000">std::vector&lt; unsigned &gt;</text>
</g>
<!-- Node6&#45;&gt;Node5 -->
<g id="edge3" class="edge">
<title>Node6&#45;&gt;Node5</title>
<path fill="none" stroke="#9a32cd" stroke-dasharray="5,2" d="M70.6709,-217.0243C70.6709,-205.5169 70.6709,-191.2016 70.6709,-180.7499"/>
<polygon fill="#9a32cd" stroke="#9a32cd" points="67.171,-217.3487 70.6709,-227.3487 74.171,-217.3488 67.171,-217.3487"/>
<text text-anchor="middle" x="89.5674" y="-201" font-family="FreeSans.ttf" font-size="10.00" fill="#000000"> dimInds</text>
</g>
</g>
</svg>
