<?xml version="1.0" encoding="UTF-8" standalone="no"?>
<!DOCTYPE svg PUBLIC "-//W3C//DTD SVG 1.1//EN"
 "http://www.w3.org/Graphics/SVG/1.1/DTD/svg11.dtd">
<!-- Generated by graphviz version 2.40.1 (20161225.0304)
 -->
<!-- Title: muq::Approximation::KernelBase Pages: 1 -->
<svg width="128pt" height="102pt"
 viewBox="0.00 0.00 127.96 102.00" xmlns="http://www.w3.org/2000/svg" xmlns:xlink="http://www.w3.org/1999/xlink">
<g id="graph0" class="graph" transform="scale(1 1) rotate(0) translate(4 98)">
<title>muq::Approximation::KernelBase</title>
<polygon fill="#ffffff" stroke="transparent" points="-4,4 -4,-98 123.9551,-98 123.9551,4 -4,4"/>
<!-- Node18 -->
<g id="node1" class="node">
<title>Node18</title>
<polygon fill="#bfbfbf" stroke="#000000" points="7.5122,-.5 7.5122,-28.5 112.4429,-28.5 112.4429,-.5 7.5122,-.5"/>
<text text-anchor="start" x="15.5122" y="-16.5" font-family="FreeSans.ttf" font-size="10.00" fill="#000000">muq::Approximation</text>
<text text-anchor="middle" x="59.9775" y="-6.5" font-family="FreeSans.ttf" font-size="10.00" fill="#000000">::KernelBase</text>
</g>
<!-- Node19 -->
<g id="node2" class="node">
<title>Node19</title>
<polygon fill="#ffffff" stroke="#bfbfbf" points="0,-75.5 0,-93.5 119.9551,-93.5 119.9551,-75.5 0,-75.5"/>
<text text-anchor="middle" x="59.9775" y="-81.5" font-family="FreeSans.ttf" font-size="10.00" fill="#000000">std::vector&lt; unsigned &gt;</text>
</g>
<!-- Node19&#45;&gt;Node18 -->
<g id="edge1" class="edge">
<title>Node19&#45;&gt;Node18</title>
<path fill="none" stroke="#9a32cd" stroke-dasharray="5,2" d="M59.9775,-65.0243C59.9775,-53.5169 59.9775,-39.2016 59.9775,-28.7499"/>
<polygon fill="#9a32cd" stroke="#9a32cd" points="56.4776,-65.3487 59.9775,-75.3487 63.4776,-65.3488 56.4776,-65.3487"/>
<text text-anchor="middle" x="78.874" y="-49" font-family="FreeSans.ttf" font-size="10.00" fill="#000000"> dimInds</text>
</g>
</g>
</svg>
