<?xml version="1.0" encoding="UTF-8" standalone="no"?>
<!DOCTYPE svg PUBLIC "-//W3C//DTD SVG 1.1//EN"
 "http://www.w3.org/Graphics/SVG/1.1/DTD/svg11.dtd">
<!-- Generated by graphviz version 2.40.1 (20161225.0304)
 -->
<!-- Title: muq::Approximation::WhiteNoiseKernel Pages: 1 -->
<svg width="175pt" height="167pt"
 viewBox="0.00 0.00 174.62 167.00" xmlns="http://www.w3.org/2000/svg" xmlns:xlink="http://www.w3.org/1999/xlink">
<g id="graph0" class="graph" transform="scale(1 1) rotate(0) translate(4 163)">
<title>muq::Approximation::WhiteNoiseKernel</title>
<polygon fill="#ffffff" stroke="transparent" points="-4,4 -4,-163 170.625,-163 170.625,4 -4,4"/>
<!-- Node0 -->
<g id="node1" class="node">
<title>Node0</title>
<polygon fill="#bfbfbf" stroke="#000000" points="30.8472,-.5 30.8472,-28.5 135.7778,-28.5 135.7778,-.5 30.8472,-.5"/>
<text text-anchor="start" x="38.8472" y="-16.5" font-family="FreeSans.ttf" font-size="10.00" fill="#000000">muq::Approximation</text>
<text text-anchor="middle" x="83.3125" y="-6.5" font-family="FreeSans.ttf" font-size="10.00" fill="#000000">::WhiteNoiseKernel</text>
</g>
<!-- Node1 -->
<g id="node2" class="node">
<title>Node1</title>
<g id="a_node2"><a xlink:href="classmuq_1_1Approximation_1_1KernelImpl.html" target="_top" xlink:title="muq::Approximation\l::KernelImpl\&lt; WhiteNoiseKernel \&gt;">
<polygon fill="#ffffff" stroke="#000000" points="0,-65.5 0,-93.5 166.625,-93.5 166.625,-65.5 0,-65.5"/>
<text text-anchor="start" x="8" y="-81.5" font-family="FreeSans.ttf" font-size="10.00" fill="#000000">muq::Approximation</text>
<text text-anchor="middle" x="83.3125" y="-71.5" font-family="FreeSans.ttf" font-size="10.00" fill="#000000">::KernelImpl&lt; WhiteNoiseKernel &gt;</text>
</a>
</g>
</g>
<!-- Node1&#45;&gt;Node0 -->
<g id="edge1" class="edge">
<title>Node1&#45;&gt;Node0</title>
<path fill="none" stroke="#191970" d="M83.3125,-55.1081C83.3125,-46.1539 83.3125,-36.3227 83.3125,-28.5765"/>
<polygon fill="#191970" stroke="#191970" points="79.8126,-55.3959 83.3125,-65.396 86.8126,-55.396 79.8126,-55.3959"/>
</g>
<!-- Node2 -->
<g id="node3" class="node">
<title>Node2</title>
<g id="a_node3"><a xlink:href="classmuq_1_1Approximation_1_1KernelBase.html" target="_top" xlink:title="Base class for covariance kernels. ">
<polygon fill="#ffffff" stroke="#000000" points="30.8472,-130.5 30.8472,-158.5 135.7778,-158.5 135.7778,-130.5 30.8472,-130.5"/>
<text text-anchor="start" x="38.8472" y="-146.5" font-family="FreeSans.ttf" font-size="10.00" fill="#000000">muq::Approximation</text>
<text text-anchor="middle" x="83.3125" y="-136.5" font-family="FreeSans.ttf" font-size="10.00" fill="#000000">::KernelBase</text>
</a>
</g>
</g>
<!-- Node2&#45;&gt;Node1 -->
<g id="edge2" class="edge">
<title>Node2&#45;&gt;Node1</title>
<path fill="none" stroke="#191970" d="M83.3125,-120.1081C83.3125,-111.1539 83.3125,-101.3227 83.3125,-93.5765"/>
<polygon fill="#191970" stroke="#191970" points="79.8126,-120.3959 83.3125,-130.396 86.8126,-120.396 79.8126,-120.3959"/>
</g>
</g>
</svg>
