<?xml version="1.0" encoding="UTF-8" standalone="no"?>
<!DOCTYPE svg PUBLIC "-//W3C//DTD SVG 1.1//EN"
 "http://www.w3.org/Graphics/SVG/1.1/DTD/svg11.dtd">
<!-- Generated by graphviz version 2.40.1 (20161225.0304)
 -->
<!-- Title: muq::Approximation::KernelImpl&lt; ChildType &gt; Pages: 1 -->
<svg width="139pt" height="168pt"
 viewBox="0.00 0.00 139.06 168.00" xmlns="http://www.w3.org/2000/svg" xmlns:xlink="http://www.w3.org/1999/xlink">
<g id="graph0" class="graph" transform="scale(1 1) rotate(0) translate(4 164)">
<title>muq::Approximation::KernelImpl&lt; ChildType &gt;</title>
<polygon fill="#ffffff" stroke="transparent" points="-4,4 -4,-164 135.0635,-164 135.0635,4 -4,4"/>
<!-- Node2 -->
<g id="node1" class="node">
<title>Node2</title>
<polygon fill="#bfbfbf" stroke="#000000" points="0,-.5 0,-28.5 131.0635,-28.5 131.0635,-.5 0,-.5"/>
<text text-anchor="start" x="8" y="-16.5" font-family="FreeSans.ttf" font-size="10.00" fill="#000000">muq::Approximation</text>
<text text-anchor="middle" x="65.5317" y="-6.5" font-family="FreeSans.ttf" font-size="10.00" fill="#000000">::KernelImpl&lt; ChildType &gt;</text>
</g>
<!-- Node3 -->
<g id="node2" class="node">
<title>Node3</title>
<g id="a_node2"><a xlink:href="classmuq_1_1Approximation_1_1KernelBase.html" target="_top" xlink:title="Base class for covariance kernels. ">
<polygon fill="#ffffff" stroke="#000000" points="13.0664,-66.5 13.0664,-94.5 117.9971,-94.5 117.9971,-66.5 13.0664,-66.5"/>
<text text-anchor="start" x="21.0664" y="-82.5" font-family="FreeSans.ttf" font-size="10.00" fill="#000000">muq::Approximation</text>
<text text-anchor="middle" x="65.5317" y="-72.5" font-family="FreeSans.ttf" font-size="10.00" fill="#000000">::KernelBase</text>
</a>
</g>
</g>
<!-- Node3&#45;&gt;Node2 -->
<g id="edge1" class="edge">
<title>Node3&#45;&gt;Node2</title>
<path fill="none" stroke="#191970" d="M65.5317,-56.0322C65.5317,-46.8606 65.5317,-36.7449 65.5317,-28.7931"/>
<polygon fill="#191970" stroke="#191970" points="62.0318,-56.1789 65.5317,-66.179 69.0318,-56.179 62.0318,-56.1789"/>
</g>
<!-- Node4 -->
<g id="node3" class="node">
<title>Node4</title>
<polygon fill="#ffffff" stroke="#bfbfbf" points="5.5542,-141.5 5.5542,-159.5 125.5093,-159.5 125.5093,-141.5 5.5542,-141.5"/>
<text text-anchor="middle" x="65.5317" y="-147.5" font-family="FreeSans.ttf" font-size="10.00" fill="#000000">std::vector&lt; unsigned &gt;</text>
</g>
<!-- Node4&#45;&gt;Node3 -->
<g id="edge2" class="edge">
<title>Node4&#45;&gt;Node3</title>
<path fill="none" stroke="#9a32cd" stroke-dasharray="5,2" d="M65.5317,-131.0243C65.5317,-119.5169 65.5317,-105.2016 65.5317,-94.7499"/>
<polygon fill="#9a32cd" stroke="#9a32cd" points="62.0318,-131.3487 65.5317,-141.3487 69.0318,-131.3488 62.0318,-131.3487"/>
<text text-anchor="middle" x="84.4282" y="-115" font-family="FreeSans.ttf" font-size="10.00" fill="#000000"> dimInds</text>
</g>
</g>
</svg>
