<?xml version="1.0" encoding="UTF-8" standalone="no"?>
<!DOCTYPE svg PUBLIC "-//W3C//DTD SVG 1.1//EN"
 "http://www.w3.org/Graphics/SVG/1.1/DTD/svg11.dtd">
<!-- Generated by graphviz version 2.40.1 (20161225.0304)
 -->
<!-- Title: muq::Modeling::WorkGraphPiece Pages: 1 -->
<svg width="929pt" height="368pt"
 viewBox="0.00 0.00 929.28 368.00" xmlns="http://www.w3.org/2000/svg" xmlns:xlink="http://www.w3.org/1999/xlink">
<g id="graph0" class="graph" transform="scale(1 1) rotate(0) translate(4 364)">
<title>muq::Modeling::WorkGraphPiece</title>
<polygon fill="#ffffff" stroke="transparent" points="-4,4 -4,-364 925.2842,-364 925.2842,4 -4,4"/>
<!-- Node2 -->
<g id="node1" class="node">
<title>Node2</title>
<polygon fill="#bfbfbf" stroke="#000000" points="783.1895,-127.5 783.1895,-155.5 921.2842,-155.5 921.2842,-127.5 783.1895,-127.5"/>
<text text-anchor="start" x="791.1895" y="-143.5" font-family="FreeSans.ttf" font-size="10.00" fill="#000000">muq::Modeling::WorkGraph</text>
<text text-anchor="middle" x="852.2368" y="-133.5" font-family="FreeSans.ttf" font-size="10.00" fill="#000000">Piece</text>
</g>
<!-- Node3 -->
<g id="node2" class="node">
<title>Node3</title>
<g id="a_node2"><a xlink:href="classmuq_1_1Modeling_1_1WorkPiece.html" target="_top" xlink:title="Base class for MUQ&#39;s modelling envronment. ">
<polygon fill="#ffffff" stroke="#000000" points="508.5356,-274.5 508.5356,-292.5 643.8521,-292.5 643.8521,-274.5 508.5356,-274.5"/>
<text text-anchor="middle" x="576.1938" y="-280.5" font-family="FreeSans.ttf" font-size="10.00" fill="#000000">muq::Modeling::WorkPiece</text>
</a>
</g>
</g>
<!-- Node3&#45;&gt;Node2 -->
<g id="edge1" class="edge">
<title>Node3&#45;&gt;Node2</title>
<path fill="none" stroke="#191970" d="M654.1864,-276.8352C689.9602,-271.0873 731.7493,-260.3923 765.1895,-240.5 801.1847,-219.0878 830.1993,-177.6992 843.8198,-155.8359"/>
<polygon fill="#191970" stroke="#191970" points="653.6351,-273.3786 644.2678,-278.3287 654.6775,-280.3006 653.6351,-273.3786"/>
</g>
<!-- Node4 -->
<g id="node3" class="node">
<title>Node4</title>
<polygon fill="#ffffff" stroke="#bfbfbf" points="272.998,-331.5 272.998,-359.5 382.0938,-359.5 382.0938,-331.5 272.998,-331.5"/>
<text text-anchor="start" x="280.998" y="-347.5" font-family="FreeSans.ttf" font-size="10.00" fill="#000000">std::map&lt; std::string,</text>
<text text-anchor="middle" x="327.5459" y="-337.5" font-family="FreeSans.ttf" font-size="10.00" fill="#000000"> std::string &gt;</text>
</g>
<!-- Node4&#45;&gt;Node3 -->
<g id="edge2" class="edge">
<title>Node4&#45;&gt;Node3</title>
<path fill="none" stroke="#9a32cd" stroke-dasharray="5,2" d="M391.967,-333.0007C413.8248,-328.4782 438.3317,-323.0977 460.5576,-317.5 490.5896,-309.9363 524.546,-299.7544 547.8517,-292.5095"/>
<polygon fill="#9a32cd" stroke="#9a32cd" points="391.2226,-329.5804 382.1283,-335.0159 392.6273,-336.438 391.2226,-329.5804"/>
<text text-anchor="middle" x="431.9248" y="-331.5" font-family="FreeSans.ttf" font-size="10.00" fill="#000000"> types</text>
</g>
<!-- Node5 -->
<g id="node4" class="node">
<title>Node5</title>
<g id="a_node4"><a xlink:title="STL class. ">
<polygon fill="#ffffff" stroke="#bfbfbf" points="131.0957,-312.5 131.0957,-330.5 190.4453,-330.5 190.4453,-312.5 131.0957,-312.5"/>
<text text-anchor="middle" x="160.7705" y="-318.5" font-family="FreeSans.ttf" font-size="10.00" fill="#000000">std::string</text>
</a>
</g>
</g>
<!-- Node5&#45;&gt;Node4 -->
<g id="edge3" class="edge">
<title>Node5&#45;&gt;Node4</title>
<path fill="none" stroke="#9a32cd" stroke-dasharray="5,2" d="M200.701,-327.2462C222.2636,-330.3492 249.2064,-334.2265 272.7082,-337.6085"/>
<polygon fill="#9a32cd" stroke="#9a32cd" points="200.9832,-323.7509 190.5866,-325.7907 199.9861,-330.6795 200.9832,-323.7509"/>
<text text-anchor="middle" x="230.1226" y="-345.5" font-family="FreeSans.ttf" font-size="10.00" fill="#000000"> keys</text>
<text text-anchor="middle" x="230.1226" y="-335.5" font-family="FreeSans.ttf" font-size="10.00" fill="#000000">elements</text>
</g>
<!-- Node8 -->
<g id="node7" class="node">
<title>Node8</title>
<polygon fill="#ffffff" stroke="#bfbfbf" points="275.7666,-284.5 275.7666,-312.5 379.3252,-312.5 379.3252,-284.5 275.7666,-284.5"/>
<text text-anchor="start" x="283.7666" y="-300.5" font-family="FreeSans.ttf" font-size="10.00" fill="#000000">std::map&lt; unsigned</text>
<text text-anchor="middle" x="327.5459" y="-290.5" font-family="FreeSans.ttf" font-size="10.00" fill="#000000"> int, std::string &gt;</text>
</g>
<!-- Node5&#45;&gt;Node8 -->
<g id="edge7" class="edge">
<title>Node5&#45;&gt;Node8</title>
<path fill="none" stroke="#9a32cd" stroke-dasharray="5,2" d="M200.4044,-311.033C203.116,-310.4686 205.8149,-309.9497 208.4453,-309.5 230.3462,-305.7554 254.746,-303.2194 275.7296,-301.5358"/>
<polygon fill="#9a32cd" stroke="#9a32cd" points="199.6165,-307.6227 190.6297,-313.2341 201.1544,-314.4517 199.6165,-307.6227"/>
<text text-anchor="middle" x="230.1226" y="-311.5" font-family="FreeSans.ttf" font-size="10.00" fill="#000000"> elements</text>
</g>
<!-- Node6 -->
<g id="node5" class="node">
<title>Node6</title>
<g id="a_node5"><a xlink:title="STL class. ">
<polygon fill="#ffffff" stroke="#bfbfbf" points="0,-307.5 0,-335.5 94.0957,-335.5 94.0957,-307.5 0,-307.5"/>
<text text-anchor="start" x="8" y="-323.5" font-family="FreeSans.ttf" font-size="10.00" fill="#000000">std::basic_string&lt;</text>
<text text-anchor="middle" x="47.0479" y="-313.5" font-family="FreeSans.ttf" font-size="10.00" fill="#000000"> char &gt;</text>
</a>
</g>
</g>
<!-- Node6&#45;&gt;Node5 -->
<g id="edge4" class="edge">
<title>Node6&#45;&gt;Node5</title>
<path fill="none" stroke="#191970" d="M104.2966,-321.5C113.5577,-321.5 122.8051,-321.5 131.056,-321.5"/>
<polygon fill="#191970" stroke="#191970" points="104.2886,-318.0001 94.2885,-321.5 104.2885,-325.0001 104.2886,-318.0001"/>
</g>
<!-- Node7 -->
<g id="node6" class="node">
<title>Node7</title>
<polygon fill="#ffffff" stroke="#bfbfbf" points="279.9414,-237.5 279.9414,-265.5 375.1504,-265.5 375.1504,-237.5 279.9414,-237.5"/>
<text text-anchor="start" x="287.9414" y="-253.5" font-family="FreeSans.ttf" font-size="10.00" fill="#000000">std::vector&lt; boost</text>
<text text-anchor="middle" x="327.5459" y="-243.5" font-family="FreeSans.ttf" font-size="10.00" fill="#000000">::any &gt;</text>
</g>
<!-- Node7&#45;&gt;Node3 -->
<g id="edge5" class="edge">
<title>Node7&#45;&gt;Node3</title>
<path fill="none" stroke="#9a32cd" stroke-dasharray="5,2" d="M385.2634,-258.928C422.0643,-263.6641 469.9134,-269.8221 508.5038,-274.7886"/>
<polygon fill="#9a32cd" stroke="#9a32cd" points="385.5585,-255.4372 375.1935,-257.6321 384.6649,-262.3799 385.5585,-255.4372"/>
<text text-anchor="middle" x="431.9248" y="-269.5" font-family="FreeSans.ttf" font-size="10.00" fill="#000000"> outputs</text>
</g>
<!-- Node8&#45;&gt;Node3 -->
<g id="edge6" class="edge">
<title>Node8&#45;&gt;Node3</title>
<path fill="none" stroke="#9a32cd" stroke-dasharray="5,2" d="M389.7663,-294.7465C425.8654,-292.5688 471.3643,-289.824 508.3761,-287.5912"/>
<polygon fill="#9a32cd" stroke="#9a32cd" points="389.1391,-291.2779 379.368,-295.3738 389.5606,-298.2652 389.1391,-291.2779"/>
<text text-anchor="middle" x="431.9248" y="-305.5" font-family="FreeSans.ttf" font-size="10.00" fill="#000000"> outputTypes</text>
<text text-anchor="middle" x="431.9248" y="-295.5" font-family="FreeSans.ttf" font-size="10.00" fill="#000000">inputTypes</text>
</g>
<!-- Node9 -->
<g id="node8" class="node">
<title>Node9</title>
<polygon fill="#ffffff" stroke="#bfbfbf" points="495.9331,-151.5 495.9331,-189.5 656.4546,-189.5 656.4546,-151.5 495.9331,-151.5"/>
<text text-anchor="start" x="503.9331" y="-177.5" font-family="FreeSans.ttf" font-size="10.00" fill="#000000">std::vector&lt; std::deque</text>
<text text-anchor="start" x="503.9331" y="-167.5" font-family="FreeSans.ttf" font-size="10.00" fill="#000000">&lt; boost::graph_traits</text>
<text text-anchor="middle" x="576.1938" y="-157.5" font-family="FreeSans.ttf" font-size="10.00" fill="#000000">&lt; Graph &gt;::vertex_descriptor &gt; &gt;</text>
</g>
<!-- Node9&#45;&gt;Node2 -->
<g id="edge8" class="edge">
<title>Node9&#45;&gt;Node2</title>
<path fill="none" stroke="#9a32cd" stroke-dasharray="5,2" d="M666.7569,-160.9858C704.4934,-157.0214 747.6191,-152.4907 782.7842,-148.7964"/>
<polygon fill="#9a32cd" stroke="#9a32cd" points="666.3585,-157.5083 656.779,-162.034 667.09,-164.47 666.3585,-157.5083"/>
<text text-anchor="middle" x="728.5098" y="-159.5" font-family="FreeSans.ttf" font-size="10.00" fill="#000000"> derivRunOrders</text>
</g>
<!-- Node10 -->
<g id="node9" class="node">
<title>Node10</title>
<polygon fill="#ffffff" stroke="#bfbfbf" points="269.7998,-179.5 269.7998,-217.5 385.292,-217.5 385.292,-179.5 269.7998,-179.5"/>
<text text-anchor="start" x="277.7998" y="-205.5" font-family="FreeSans.ttf" font-size="10.00" fill="#000000">std::deque&lt; boost::</text>
<text text-anchor="start" x="277.7998" y="-195.5" font-family="FreeSans.ttf" font-size="10.00" fill="#000000">graph_traits&lt; Graph</text>
<text text-anchor="middle" x="327.5459" y="-185.5" font-family="FreeSans.ttf" font-size="10.00" fill="#000000"> &gt;::vertex_descriptor &gt;</text>
</g>
<!-- Node10&#45;&gt;Node2 -->
<g id="edge10" class="edge">
<title>Node10&#45;&gt;Node2</title>
<path fill="none" stroke="#9a32cd" stroke-dasharray="5,2" d="M395.5696,-202.264C398.1766,-202.3537 400.7579,-202.4331 403.292,-202.5 428.7345,-203.1713 435.1069,-202.679 460.5576,-202.5 555.3524,-201.8333 580.1801,-214.2031 673.8301,-199.5 715.7845,-192.9131 724.806,-184.643 765.1895,-171.5 780.6934,-166.4542 797.6617,-160.6667 812.466,-155.5295"/>
<polygon fill="#9a32cd" stroke="#9a32cd" points="395.5595,-198.7611 385.4316,-201.8717 395.2887,-205.7558 395.5595,-198.7611"/>
<text text-anchor="middle" x="576.1938" y="-208.5" font-family="FreeSans.ttf" font-size="10.00" fill="#000000"> runOrder</text>
</g>
<!-- Node10&#45;&gt;Node9 -->
<g id="edge9" class="edge">
<title>Node10&#45;&gt;Node9</title>
<path fill="none" stroke="#9a32cd" stroke-dasharray="5,2" d="M395.7513,-190.8195C426.5975,-187.3459 463.2765,-183.2155 495.4838,-179.5887"/>
<polygon fill="#9a32cd" stroke="#9a32cd" points="395.0745,-187.3735 385.529,-191.9706 395.8579,-194.3295 395.0745,-187.3735"/>
<text text-anchor="middle" x="431.9248" y="-190.5" font-family="FreeSans.ttf" font-size="10.00" fill="#000000"> elements</text>
</g>
<!-- Node11 -->
<g id="node10" class="node">
<title>Node11</title>
<polygon fill="#ffffff" stroke="#bfbfbf" points="519.9736,-94.5 519.9736,-132.5 632.4141,-132.5 632.4141,-94.5 519.9736,-94.5"/>
<text text-anchor="start" x="527.9736" y="-120.5" font-family="FreeSans.ttf" font-size="10.00" fill="#000000">std::map&lt; unsigned</text>
<text text-anchor="start" x="527.9736" y="-110.5" font-family="FreeSans.ttf" font-size="10.00" fill="#000000"> int, ref_vector&lt; boost</text>
<text text-anchor="middle" x="576.1938" y="-100.5" font-family="FreeSans.ttf" font-size="10.00" fill="#000000">::any &gt; &gt;</text>
</g>
<!-- Node11&#45;&gt;Node2 -->
<g id="edge11" class="edge">
<title>Node11&#45;&gt;Node2</title>
<path fill="none" stroke="#9a32cd" stroke-dasharray="5,2" d="M643.0158,-116.4321C679.252,-118.4407 724.7698,-121.6402 765.1895,-126.5 770.9751,-127.1956 776.9612,-128.0153 782.9606,-128.9067"/>
<polygon fill="#9a32cd" stroke="#9a32cd" points="642.7433,-112.9126 632.5701,-115.8717 642.3682,-119.9025 642.7433,-112.9126"/>
<text text-anchor="middle" x="728.5098" y="-128.5" font-family="FreeSans.ttf" font-size="10.00" fill="#000000"> valMap</text>
</g>
<!-- Node12 -->
<g id="node11" class="node">
<title>Node12</title>
<polygon fill="#ffffff" stroke="#bfbfbf" points="478.5576,-47.5 478.5576,-75.5 673.8301,-75.5 673.8301,-47.5 478.5576,-47.5"/>
<text text-anchor="start" x="486.5576" y="-63.5" font-family="FreeSans.ttf" font-size="10.00" fill="#000000">std::vector&lt; std::shared</text>
<text text-anchor="middle" x="576.1938" y="-53.5" font-family="FreeSans.ttf" font-size="10.00" fill="#000000">_ptr&lt; muq::Modeling::ConstantPiece &gt; &gt;</text>
</g>
<!-- Node12&#45;&gt;Node2 -->
<g id="edge12" class="edge">
<title>Node12&#45;&gt;Node2</title>
<path fill="none" stroke="#9a32cd" stroke-dasharray="5,2" d="M659.3378,-77.7804C692.589,-85.0865 731.0305,-94.5413 765.1895,-105.5 784.3431,-111.6448 805.1862,-120.1954 821.6737,-127.4215"/>
<polygon fill="#9a32cd" stroke="#9a32cd" points="659.71,-74.2799 649.1956,-75.5828 658.2275,-81.1212 659.71,-74.2799"/>
<text text-anchor="middle" x="728.5098" y="-107.5" font-family="FreeSans.ttf" font-size="10.00" fill="#000000"> constantPieces</text>
</g>
<!-- Node13 -->
<g id="node12" class="node">
<title>Node13</title>
<polygon fill="#ffffff" stroke="#bfbfbf" points="516.082,-.5 516.082,-28.5 636.3057,-28.5 636.3057,-.5 516.082,-.5"/>
<text text-anchor="start" x="524.082" y="-16.5" font-family="FreeSans.ttf" font-size="10.00" fill="#000000">std::vector&lt; std::shared</text>
<text text-anchor="middle" x="576.1938" y="-6.5" font-family="FreeSans.ttf" font-size="10.00" fill="#000000">_ptr&lt; FilteredGraph &gt; &gt;</text>
</g>
<!-- Node13&#45;&gt;Node2 -->
<g id="edge13" class="edge">
<title>Node13&#45;&gt;Node2</title>
<path fill="none" stroke="#9a32cd" stroke-dasharray="5,2" d="M646.6022,-27.8171C683.5217,-36.7139 728.5575,-50.6826 765.1895,-71.5 793.0089,-87.3094 821.1286,-111.819 837.6048,-127.246"/>
<polygon fill="#9a32cd" stroke="#9a32cd" points="646.9517,-24.3047 636.4179,-25.4407 645.361,-31.1216 646.9517,-24.3047"/>
<text text-anchor="middle" x="728.5098" y="-73.5" font-family="FreeSans.ttf" font-size="10.00" fill="#000000"> filtered_graphs</text>
</g>
</g>
</svg>
