<?xml version="1.0" encoding="UTF-8" standalone="no"?>
<!DOCTYPE svg PUBLIC "-//W3C//DTD SVG 1.1//EN"
 "http://www.w3.org/Graphics/SVG/1.1/DTD/svg11.dtd">
<!-- Generated by graphviz version 2.40.1 (20161225.0304)
 -->
<!-- Title: muq::Modeling::AnyAlgebra Pages: 1 -->
<svg width="149pt" height="218pt"
 viewBox="0.00 0.00 148.60 218.00" xmlns="http://www.w3.org/2000/svg" xmlns:xlink="http://www.w3.org/1999/xlink">
<g id="graph0" class="graph" transform="scale(1 1) rotate(0) translate(4 214)">
<title>muq::Modeling::AnyAlgebra</title>
<polygon fill="#ffffff" stroke="transparent" points="-4,4 -4,-214 144.6001,-214 144.6001,4 -4,4"/>
<!-- Node1 -->
<g id="node1" class="node">
<title>Node1</title>
<polygon fill="#bfbfbf" stroke="#000000" points="0,-.5 0,-18.5 138.8467,-18.5 138.8467,-.5 0,-.5"/>
<text text-anchor="middle" x="69.4233" y="-6.5" font-family="FreeSans.ttf" font-size="10.00" fill="#000000">muq::Modeling::AnyAlgebra</text>
</g>
<!-- Node2 -->
<g id="node2" class="node">
<title>Node2</title>
<g id="a_node2"><a xlink:title="STL class. ">
<polygon fill="#ffffff" stroke="#bfbfbf" points="39.7485,-125.5 39.7485,-143.5 99.0981,-143.5 99.0981,-125.5 39.7485,-125.5"/>
<text text-anchor="middle" x="69.4233" y="-131.5" font-family="FreeSans.ttf" font-size="10.00" fill="#000000">std::string</text>
</a>
</g>
</g>
<!-- Node2&#45;&gt;Node1 -->
<g id="edge1" class="edge">
<title>Node2&#45;&gt;Node1</title>
<path fill="none" stroke="#9a32cd" stroke-dasharray="5,2" d="M69.4233,-114.7922C69.4233,-87.3735 69.4233,-38.8188 69.4233,-18.6646"/>
<polygon fill="#9a32cd" stroke="#9a32cd" points="65.9234,-115.1046 69.4233,-125.1047 72.9234,-115.1047 65.9234,-115.1046"/>
<text text-anchor="middle" x="105.0117" y="-99" font-family="FreeSans.ttf" font-size="10.00" fill="#000000"> eigenVec4Type</text>
<text text-anchor="middle" x="105.0117" y="-89" font-family="FreeSans.ttf" font-size="10.00" fill="#000000">eigenVec3Type</text>
<text text-anchor="middle" x="105.0117" y="-79" font-family="FreeSans.ttf" font-size="10.00" fill="#000000">eigenVecType</text>
<text text-anchor="middle" x="105.0117" y="-69" font-family="FreeSans.ttf" font-size="10.00" fill="#000000">eigenVec2Type</text>
<text text-anchor="middle" x="105.0117" y="-59" font-family="FreeSans.ttf" font-size="10.00" fill="#000000">noneType</text>
<text text-anchor="middle" x="105.0117" y="-49" font-family="FreeSans.ttf" font-size="10.00" fill="#000000">eigenMatType</text>
<text text-anchor="middle" x="105.0117" y="-39" font-family="FreeSans.ttf" font-size="10.00" fill="#000000">doubleType</text>
</g>
<!-- Node3 -->
<g id="node3" class="node">
<title>Node3</title>
<g id="a_node3"><a xlink:title="STL class. ">
<polygon fill="#ffffff" stroke="#bfbfbf" points="22.3755,-181.5 22.3755,-209.5 116.4712,-209.5 116.4712,-181.5 22.3755,-181.5"/>
<text text-anchor="start" x="30.3755" y="-197.5" font-family="FreeSans.ttf" font-size="10.00" fill="#000000">std::basic_string&lt;</text>
<text text-anchor="middle" x="69.4233" y="-187.5" font-family="FreeSans.ttf" font-size="10.00" fill="#000000"> char &gt;</text>
</a>
</g>
</g>
<!-- Node3&#45;&gt;Node2 -->
<g id="edge2" class="edge">
<title>Node3&#45;&gt;Node2</title>
<path fill="none" stroke="#191970" d="M69.4233,-171.1001C69.4233,-161.5157 69.4233,-151.0935 69.4233,-143.831"/>
<polygon fill="#191970" stroke="#191970" points="65.9234,-171.352 69.4233,-181.3521 72.9234,-171.3521 65.9234,-171.352"/>
</g>
</g>
</svg>
