<?xml version="1.0" encoding="UTF-8" standalone="no"?>
<!DOCTYPE svg PUBLIC "-//W3C//DTD SVG 1.1//EN"
 "http://www.w3.org/Graphics/SVG/1.1/DTD/svg11.dtd">
<!-- Generated by graphviz version 2.40.1 (20161225.0304)
 -->
<!-- Title: muq::Modeling::NodeNameFinder Pages: 1 -->
<svg width="174pt" height="158pt"
 viewBox="0.00 0.00 174.07 158.00" xmlns="http://www.w3.org/2000/svg" xmlns:xlink="http://www.w3.org/1999/xlink">
<g id="graph0" class="graph" transform="scale(1 1) rotate(0) translate(4 154)">
<title>muq::Modeling::NodeNameFinder</title>
<polygon fill="#ffffff" stroke="transparent" points="-4,4 -4,-154 170.0732,-154 170.0732,4 -4,4"/>
<!-- Node1 -->
<g id="node1" class="node">
<title>Node1</title>
<polygon fill="#bfbfbf" stroke="#000000" points="0,-.5 0,-18.5 166.0732,-18.5 166.0732,-.5 0,-.5"/>
<text text-anchor="middle" x="83.0366" y="-6.5" font-family="FreeSans.ttf" font-size="10.00" fill="#000000">muq::Modeling::NodeNameFinder</text>
</g>
<!-- Node2 -->
<g id="node2" class="node">
<title>Node2</title>
<g id="a_node2"><a xlink:title="STL class. ">
<polygon fill="#ffffff" stroke="#bfbfbf" points="53.3618,-65.5 53.3618,-83.5 112.7114,-83.5 112.7114,-65.5 53.3618,-65.5"/>
<text text-anchor="middle" x="83.0366" y="-71.5" font-family="FreeSans.ttf" font-size="10.00" fill="#000000">std::string</text>
</a>
</g>
</g>
<!-- Node2&#45;&gt;Node1 -->
<g id="edge1" class="edge">
<title>Node2&#45;&gt;Node1</title>
<path fill="none" stroke="#9a32cd" stroke-dasharray="5,2" d="M83.0366,-55.1265C83.0366,-43.1522 83.0366,-28.3205 83.0366,-18.8821"/>
<polygon fill="#9a32cd" stroke="#9a32cd" points="79.5367,-55.462 83.0366,-65.462 86.5367,-55.4621 79.5367,-55.462"/>
<text text-anchor="middle" x="96.9331" y="-39" font-family="FreeSans.ttf" font-size="10.00" fill="#000000"> name</text>
</g>
<!-- Node3 -->
<g id="node3" class="node">
<title>Node3</title>
<g id="a_node3"><a xlink:title="STL class. ">
<polygon fill="#ffffff" stroke="#bfbfbf" points="35.9888,-121.5 35.9888,-149.5 130.0845,-149.5 130.0845,-121.5 35.9888,-121.5"/>
<text text-anchor="start" x="43.9888" y="-137.5" font-family="FreeSans.ttf" font-size="10.00" fill="#000000">std::basic_string&lt;</text>
<text text-anchor="middle" x="83.0366" y="-127.5" font-family="FreeSans.ttf" font-size="10.00" fill="#000000"> char &gt;</text>
</a>
</g>
</g>
<!-- Node3&#45;&gt;Node2 -->
<g id="edge2" class="edge">
<title>Node3&#45;&gt;Node2</title>
<path fill="none" stroke="#191970" d="M83.0366,-111.1001C83.0366,-101.5157 83.0366,-91.0935 83.0366,-83.831"/>
<polygon fill="#191970" stroke="#191970" points="79.5367,-111.352 83.0366,-121.3521 86.5367,-111.3521 79.5367,-111.352"/>
</g>
</g>
</svg>
